<?xml version="1.0" encoding="UTF-8" standalone="no"?><!DOCTYPE svg PUBLIC "-//W3C//DTD SVG 1.1//EN" "http://www.w3.org/Graphics/SVG/1.1/DTD/svg11.dtd"><svg width="100%" height="100%" viewBox="0 0 86 125" version="1.1" xmlns="http://www.w3.org/2000/svg" xmlns:xlink="http://www.w3.org/1999/xlink" xml:space="preserve" xmlns:serif="http://www.serif.com/" style="fill-rule:evenodd;clip-rule:evenodd;stroke-linejoin:round;stroke-miterlimit:1.41421;"><path d="M49.971,5.379c-1.933,-7.008 -12.039,-7.334 -14.23,0c-11.389,38.415 -35.741,48.853 -35.741,75.928c0,23.97 19.168,43.365 42.856,43.365c23.688,0 42.856,-19.395 42.856,-43.365c0,-27.211 -24.299,-37.338 -35.741,-75.928Zm-7.115,103.709c-15.036,0 -27.272,-12.236 -27.272,-27.272c0,-2.152 1.743,-3.896 3.896,-3.896c2.153,0 3.896,1.744 3.896,3.896c0,10.741 8.739,19.48 19.48,19.48c2.153,0 3.896,1.744 3.896,3.896c0,2.153 -1.743,3.896 -3.896,3.896Z" style="fill:#218dff;fill-rule:nonzero;"/></svg>