<?xml version="1.0" encoding="UTF-8" standalone="no"?><!DOCTYPE svg PUBLIC "-//W3C//DTD SVG 1.1//EN" "http://www.w3.org/Graphics/SVG/1.1/DTD/svg11.dtd"><svg width="100%" height="100%" viewBox="0 0 1280 587" version="1.1" xmlns="http://www.w3.org/2000/svg" xmlns:xlink="http://www.w3.org/1999/xlink" xml:space="preserve" xmlns:serif="http://www.serif.com/" style="fill-rule:evenodd;clip-rule:evenodd;stroke-linejoin:round;stroke-miterlimit:1.41421;"><g id="Background"><rect x="0" y="0" width="1280" height="447.168" style="fill:#a1cfff;"/><path d="M1280,586.568l-1280,0l0.136,-281.057c0,0 47.841,-31.697 79.813,-0.393c31.972,31.304 67.095,5.207 72.271,0c5.177,-5.208 40.086,-39.522 71.706,0.393c31.619,39.915 62.633,7.76 75.749,-0.393c13.116,-8.153 42.139,-30.434 68.682,0c18.599,21.326 37.656,9.469 52.841,0.511l0,-0.118c0,0 47.84,-31.697 79.813,-0.393c31.972,31.304 67.094,5.207 72.271,0c5.177,-5.208 40.086,-39.522 71.705,0.393c31.62,39.915 62.633,7.76 75.75,-0.393c13.116,-8.153 42.139,-30.434 68.682,0c18.467,21.175 37.386,9.635 52.518,0.701l0,-0.308c0,0 47.841,-31.697 79.813,-0.393c31.973,31.304 67.095,5.207 72.271,0c5.177,-5.208 40.087,-39.522 71.706,0.393c31.619,39.915 62.633,7.76 75.749,-0.393c13.117,-8.153 42.14,-30.434 68.682,0c26.543,30.434 54.017,-6.711 69.842,-6.572l0,288.022Z" style="fill:#218dff;"/></g></svg>