<svg xmlns="http://www.w3.org/2000/svg" enable-background="new 0 0 300 300" viewBox="0 0 300 300"><path fill="#d1dcf8" d="M127.198 170.533c0 .287-.358.547-1.081.666h-1.839c-.723-.12-1.08-.379-1.08-.673s.357-.546 1.08-.672h1.839c.723.126 1.08.378 1.08.68zM135.198 170.533c0 .287-.358.547-1.081.666h-1.839c-.723-.12-1.08-.379-1.08-.673s.357-.546 1.08-.672h1.839c.723.126 1.08.378 1.08.68zM143.198 170.533c0 .287-.358.547-1.081.666h-1.839c-.723-.12-1.08-.379-1.08-.673s.357-.546 1.08-.672h1.839c.723.126 1.08.378 1.08.68zM151.198 170.533c0 .287-.358.547-1.081.666h-1.839c-.723-.12-1.08-.379-1.08-.673s.357-.546 1.08-.672h1.839c.723.126 1.08.378 1.08.68zM159.065 171.04c-.208.21-.598.137-1.063.177-.144-.033-.505-.012-.803-.018h-.92c-.723-.12-1.081-.379-1.081-.673s.358-.546 1.081-.672h.92c.314.012.57-.032 1.034.037.48.151.75.429.859.647.11.224.076.394-.027.501zM159.559 178.879c-.287-.002-.543-.362-.655-1.087l.019-1.84c.126-.723.389-1.078.683-1.074.294.004.543.364.662 1.088l-.019 1.837c-.133.722-.389 1.078-.69 1.076zM159.654 186.878c-.274.106-.626-.364-.73-1.06l-.026-1.849c.109-.728.363-1.088.657-1.088s.552.355.688 1.072l.026 1.828c-.133.754-.322.988-.615 1.097zM166.979 188.339c0 .287-.358.546-1.081.665h-1.839c-.723-.119-1.08-.378-1.08-.672 0-.295.357-.547 1.08-.673h1.839c.723.126 1.08.378 1.08.68zM174.979 188.339c0 .287-.358.546-1.081.665h-1.839c-.723-.119-1.08-.378-1.08-.672 0-.295.357-.547 1.08-.673h1.839c.723.126 1.08.378 1.08.68zM182.979 188.339c0 .287-.358.546-1.081.665h-1.839c-.723-.119-1.08-.378-1.08-.672 0-.295.357-.547 1.08-.673h1.839c.723.126 1.08.378 1.08.68zM190.221 186.774c.137.025.265.143.305.388.037.238-.011.622-.305 1.021-.28.305-.64.535-1.03.674-.371.147-.876.156-1.13.147-.724-.119-1.082-.378-1.082-.672 0-.295.358-.547 1.081-.673.356.005.476-.002.685-.071a1.23 1.23 0 0 0 .494-.324c.409-.254.674-.542.982-.49zM190.254 178.774c.287 0 .547.358.666 1.081v1.839c-.12.722-.379 1.08-.673 1.08s-.546-.358-.672-1.08v-1.839c.126-.723.378-1.081.68-1.081zM190.254 170.774c.287 0 .547.358.666 1.081v1.839c-.12.722-.379 1.08-.673 1.08s-.546-.358-.672-1.08v-1.839c.126-.723.378-1.081.68-1.081zM190.254 162.774c.287 0 .547.358.666 1.081v1.839c-.12.722-.379 1.08-.673 1.08s-.546-.358-.672-1.08v-1.839c.126-.723.378-1.081.68-1.081zM190.254 154.774c.287 0 .547.358.666 1.081v1.839c-.12.722-.379 1.08-.673 1.08s-.546-.358-.672-1.08v-1.839c.126-.723.378-1.081.68-1.081zM190.254 146.774c.287 0 .547.358.666 1.081v1.839c-.12.722-.379 1.08-.673 1.08s-.546-.358-.672-1.08v-1.839c.126-.723.378-1.081.68-1.081zM190.254 138.774c.287 0 .547.358.666 1.081v1.839c-.12.722-.379 1.08-.673 1.08s-.546-.358-.672-1.08v-1.839c.126-.723.378-1.081.68-1.081zM190.254 130.774c.287 0 .547.358.666 1.081v1.839c-.12.722-.379 1.08-.673 1.08s-.546-.358-.672-1.08v-1.839c.126-.723.378-1.081.68-1.081zM190.254 122.774c.287 0 .547.358.666 1.081v1.839c-.12.722-.379 1.08-.673 1.08s-.546-.358-.672-1.08v-1.839c.126-.723.378-1.081.68-1.081zM190.254 114.774c.287 0 .547.358.666 1.081v1.839c-.12.722-.379 1.08-.673 1.08s-.546-.358-.672-1.08v-1.839c.126-.723.378-1.081.68-1.081zM190.93 107.06c.096.096.131.243.097.434a1.376 1.376 0 0 1-.105.319c-.088.152-.056.176-.025.19l.023.01v1.68c-.12.723-.379 1.08-.673 1.08s-.546-.357-.672-1.08v-1.995l.024-.233c.26-.213.49-.386.571-.404.117-.053.224-.087.32-.104.192-.034.34.003.44.103zM196.588 101.403c.203.203.133.64-.294 1.235l-1.3 1.3c-.596.427-1.032.497-1.24.289-.208-.208-.133-.64.289-1.24l1.3-1.3c.6-.422 1.032-.497 1.245-.284zM202.244 95.746c.203.203.134.64-.294 1.235l-1.3 1.3c-.595.427-1.03.497-1.239.289-.208-.208-.133-.64.288-1.24l1.3-1.3c.601-.422 1.032-.497 1.245-.284zM206.616 89.552c.287 0 .547.357.666 1.08v1.018l-.975.975c-.595.426-1.031.496-1.24.288-.207-.208-.133-.64.29-1.24l.58-.58v-.46c.126-.724.378-1.081.68-1.081zM206.616 81.552c.287 0 .547.357.666 1.08v1.839c-.12.723-.379 1.08-.673 1.08s-.546-.357-.672-1.08v-1.838c.126-.724.378-1.081.68-1.081zM206.616 73.552c.287 0 .547.357.666 1.08v1.839c-.12.723-.379 1.08-.673 1.08s-.546-.357-.672-1.08v-1.838c.126-.724.378-1.081.68-1.081zM206.616 65.552c.287 0 .547.357.666 1.08v1.839c-.12.723-.379 1.08-.673 1.08s-.546-.357-.672-1.08v-1.838c.126-.724.378-1.081.68-1.081z" class="colord1dcf8 svgShape"/><path fill="#e4ecf9" d="M33.4 78.562c0 1.548.13 3.07.382 4.549.122.695.27 1.383.444 2.052a.659.659 0 0 0 .035.14 26.511 26.511 0 0 0 2.73 6.662c4.637 7.976 13.265 13.342 23.154 13.342 14.825 0 26.754-12.015 26.754-26.745 0-.13 0-.27-.009-.4-.193-14.585-12.12-26.354-26.745-26.354-14.769 0-26.745 11.976-26.745 26.754z" class="colore4ecf9 svgShape"/><path fill="#61ba76" d="M61.631 63.785c.329.224.643.448.912.732.328.328.582.732.896 1.06.075.105.269.18.403.165.105 0 .165-.164.284-.254.463.104.538-.03.478-.463-.06-.344-.12-.687-.374-1.03-.104-.15-.044-.374-.134-.554-.045-.104-.239-.194-.299-.283-.104-.15-.164-.329-.328-.418-.463-.284-.493-.3-.299-.703-.388 0-.597-.12-.508-.463l.583.09c-.075-.104-.12-.18-.18-.24-.433-.282-.687-.955-.462-1.298.03-.06.179-.09.268-.105.314 0 .628 0 .986.015-.015-.03-.015-.09-.015-.105.598.15 1.3-.269 1.808.105.284.18.343.508.642.702.209.135.523.179.642.388.045.12 0 .224-.075.314-.179-.09-.358.03-.552.164.075.045.15.105.239.15a.448.448 0 0 0-.105.15c-.104.014-.194 0-.284.014 0 .06 0 .15-.044.209-.015.075-.15.164-.12.21.06.163.194.313.299.447.06.06.209.134.209.21.015.044-.104.09-.164.149-.06.044-.18.104-.18.134.075.33-.208.24-.537.224.388.284.687.508 1 .762l.09-.045c-.045-.104-.074-.194-.104-.268.149-.06.283-.12.448-.18.224.09.269.269.164.448-.18.329 0 .627.24.94.148-.073.298-.118.522-.208v.463c.239-.09.478-.149.702-.239-.21-.702.553-.298.866-.433-.03-.09-.09-.15-.15-.21.06.016.135.06.21.09.12.06.224.15.329.224.134.09.268.18.433.255.015.014.045.03.06.03h.015c.253.104.522.208.791.283.06.03.135.09.21.135-.016-.03 0-.06-.016-.09.075.03.15.045.224.06a.583.583 0 0 1-.254-.493c.03.015.06.03.09.06.463.253.97.493 1.374.836.568.449 1.046.986 1.539 1.51.075.074.06.208.06.313-.015.149-.06.298-.105.507-.358-.12-.523.09-.702.36-.12.133-.448.118-.732.178.105.21.224.448.329.672.06.105.134.21.12.284-.03.15-.15.284-.225.418-.134-.119-.314-.238-.403-.373-.12-.194-.15-.388-.18-.598-.044-.448-.343-.806-.806-1-.493-.224-.612-.523-.568-.897.03-.238-.044-.403-.283-.597-.135-.104-.195-.284-.284-.448-.105-.195-.21-.419-.344-.613-.03-.045-.164-.09-.239-.105a2.464 2.464 0 0 0-.657-.014.416.416 0 0 0-.269.18c-.06.089-.09.208-.224.283.134.284.269.537.403.807-.403.223-.478.209-.776-.24-.105-.164-.254-.313-.478-.537-.075.523-.165.94.12 1.42.074.118.014.357-.105.447-.18.12-.284.21-.135.418-.359.105-.433.343-.134.613.522.463 1.09.926 1.837.91.702 0 1.165.404 1.598.897.15.194.389.373.583.553-.538-.3-1.046-.598-1.584-.882-.015.045-.06.09-.074.135.134.104.284.224.418.343-.015.36 0 .762-.732.613.448.508.941.732 1.509 1.045-.164-.238-.27-.388-.389-.567.09-.016.18-.06.225-.03.477.359 1.09.613 1.344 1.21.06.164.298.314.463.478.239.269.478.507.672.792.15.208.224.448.344.701.149-.014.268-.03.403-.044.03.343.075.657.134 1.075.374.403.837.912 1.24 1.45.15.193.194.477.194.686.015.388-.045.777-.015 1.18.015.21.12.448.21.762.313-.358.537-.642.477-1.135-.03-.24-.03-.493.389-.284.045.015.09.015.134.015.583-.12.717-.03.747.642.194.015.374.045.568.075.597.075 1.12.448 1.419 1.046.015.044.044.074.03.104-.165.642.418 1.39.283 2.031-.06.3-.149.583-.298.807-.224.344-.643.254-.956-.179-.105-.15-.224-.313-.27-.478-.149-.523-.522-.792-1.06-.971.09.329.105.657.24.956.178.358.253.687.134 1-.254-.074-.508-.163-.762-.209-.24-.06-.403.016-.433.21-.015.044-.03.104-.015.164.015.284.075.583.06.852-.045.208-.15.418-.3.537-.178.135-.388-.075-.612-.18-.224-.103-.493-.059-.746-.089-.015.03-.015.075-.045.105-.06-.194-.165-.373-.18-.567-.074-.523-.388-.897-.956-1.091.03.313.045.612.06.926-.03 0-.06-.015-.09-.015-.074-.329-.164-.642-.253-1.031-.553.3-1.106.135-1.673-.149-.09-.03-.21.03-.314.06-.209.12-.433.239-.612.388-.404.284-.822.433-1.375.27a.451.451 0 0 0-.358.089c-.24.18-.433.418-.642.627-.254.284-.21.582.104.956-.687-.135-1.36-.493-1.822.164-.523-.283-1.06-.358-1.524.015a.562.562 0 0 1-.164.075c-.194.075-.463.104-.538.254-.21.388-.284.807-.104 1.3.12.358.209.717.268 1.105.03.209 0 .433-.074.642-.24.627-.135 1.255.044 1.912.015.09.09.15.15.194.702.553.881 1.06.687 1.912-.075.36-.075.747-.104 1.12 0 .045.044.105.074.18l.165-.21c.015.045.044.075.044.105-.03.15-.044.299-.074.448-.15.508-.09.628.358.807.045.015.09.045.21.075-.374.164-.479.463-.494.836 0 .478.434.463.673.642-.06.135-.165.27-.15.404-.015.104.12.224.21.373-.045.045-.105.135-.18.18-.209.134-.403.596-.359.866.09.493 0 .582-.448.552-.194.448.015 1.18-.552 1.315 0 .299.015.537.015.806.09-.074.164-.179.254-.283.209.18.373.12.537-.12.21-.254.493-.433.747-.642.06-.075.09-.18.12-.284a4.646 4.646 0 0 1-.06-.06c.18-.044.358-.104.612-.164a.503.503 0 0 0-.015-.329.452.452 0 0 1 .09-.462c.164-.18.299-.374.448-.553.045-.046.09-.12.12-.12.254.074.298-.15.403-.299.15-.179.284-.328.433-.522.03-.03.09-.06.105-.105.164-1.015.836-1.673 1.15-2.584.03-.045.06-.09.045-.15.104-.94.612-1.628 1.045-2.345.194-.283.448-.477.807-.523.134 0 .254-.074.388-.074.777-.03 1.24-.538 1.599-1.12.254-.404.508-.717.94-.852.225-.045.3-.224.33-.478.044-.627.119-1.24.134-1.867-.015-.374-.135-.762-.254-1.15-.18-.523.015-1.016.493-1.15.194-.03.298.12.269.478.253-.045.478-.12.716-.15.21-.015.329-.283.643-.045.045-.12.104-.254.18-.388.178-.299.387-.507.836-.493.179.015.358-.044.507-.104.12-.045.254-.105.359-.15a.538.538 0 0 1 .583.09c.164.104.358.164.507.164.538-.044 1.076-.044 1.584-.18.164-.06.194-.403.283-.611.03-.075-.06-.224-.03-.284.255-.359.568-.687.777-1.091.27-.448.717-.761.672-1.434-.014-.209-.044-.537.434-.433-.3.956-.598 1.912-.911 2.868l.164.12c.134-.18.284-.329.403-.538.135-.164.254-.374.388-.583.03-.06.12-.149.09-.209-.194-.373-.075-.552.105-.746.045-.06.045-.194.045-.3 0-.493.149-.896.627-1.015.105-.03.224-.09.224-.18.045-.418.045-.851.045-1.269 0-.254.044-.463-.015-.732-.09-.508-.18-1.016-.359-1.553-.224-.628-.537-1.27-.821-1.912-.09-.18-.21-.36-.314-.538h-.105c0 .104-.014.194 0 .284-.03 0-.074 0-.09-.03-.447-.493-.238-.897-.223-1.3-.015-.044.03-.06.074-.06.464.03.27-.298.195-.582-.09-.343-.135-.672-.195-1.016-.104-.582-.209-1.18-.328-1.822.18.09.328.194.538.299.03-.21.074-.404.119-.643.15.03.403.09.568.045.164-.045.269-.209.403-.329.269.27.583.569.911.867-.06-.164-.104-.33-.164-.493-.09-.075-.164-.164-.254-.239.03-.03.045-.045.06-.075a.65.65 0 0 1 .104.09c-.612-1.673-1.404-3.257-2.315-4.765-.314-.194-.612-.389-.911-.567-.373-.21-.807-.569-1.165-.255-.03.045-.224-.044-.314-.03-.224.06-.418.15-.598.225-.089.03-.164.044-.238.06a6.288 6.288 0 0 1-.762.178c-.135.016-.284.045-.433-.014-.479-.224-.941-.448-1.45-.613.105.075.21.165.33.24a.207.207 0 0 0-.03.044 6.692 6.692 0 0 1-.344-.179c-.344-.18-.642-.314-.941-.105-.21.15-.553.134-.837.21-.044 0-.06.03-.104.03.06-.195.239-.36.463-.434.06 0 .134-.015.164-.06.09-.074-.015-.239-.12-.359-.209-.238-.403-.477-.657-.671-.283-.344-.687-.613-1.105-.881-.104-.03-.18-.076-.284-.135-.328-.358-.597-.747-1.045-1.001a2.15 2.15 0 0 0-.732-.254c-.329-.134-.642-.24-.956-.359l-.045.09c.045.045.09.105.15.135a2.265 2.265 0 0 1-.748-.225c.015 0 .015-.014.03-.029a1.135 1.135 0 0 0-.179-.06l-.015-.015a3.566 3.566 0 0 0-.284-.21c-.164-.074-.358-.088-.537-.104-.523-.09-1.031-.358-1.36-.731-.254 0-.493.089-.642.238-.06.06-.12.12-.21.12a.295.295 0 0 1-.149-.045 3.46 3.46 0 0 1-1.21-.836c-.134-.135-.298-.33-.507-.33-.165-.014-.284.075-.419.106a.54.54 0 0 1-.343-.03c0-.015.03-.06.06-.105-.195-.03-.404-.074-.613-.104-.552-.21-1.165-.24-1.762-.344-.344-.06-.687-.12-1.016-.09-.314.03-.612.194-.657.434-.06.03-.09.03-.12.044.015.045.03.075.045.12h.06c.015.09.06.18.12.269-.15-.06-.3-.105-.449-.165-.209-.089-.582-.254-.717.105a.95.95 0 0 1-.388-.03c-.314-.135-.538-.09-.717.15-.06-.135-.105-.24-.164-.36-.12 0-.284.016-.419.016.045-.075.06-.135.12-.239-.777.03-1.509-.418-2.36-.044.493.029.851.06 1.254.118 0 .03-.015.076-.015.105-.657 0-1.359-.164-1.941.269.253 0 .507-.015.761-.015.27 0 .523 0 .792.015v.075c-.344.074-.672.164-1.165.268-.269-.029-.717-.06-1.18-.089-.09-.015-.18.045-.284.06.045.06.09.12.12.179.298.045.582.09.88.15.12.06.255.134.374.193-.15.284.254.344.389.539.104.194.254.402.373.597.12.104.553-.164.448.284-.03.134.18.313.299.507h.194c.06.15.09.3.194.39.03.058.284.074.284.044.12-.254.314-.075.418 0 .3.179.24.343-.149.552.06.105.12.21.24.388.148-.164.268-.283.417-.447.224.224.374.373.568.582-.314.015-.523.045-.732.045.314.478 1.06.792 1.673.702.239-.045.373.015.538.179.284.254.642.478.97.672.135.075.36 0 .493.075z" class="color61ba76 svgShape"/><path fill="#61ba76" d="M74 81.83c.268.014.567.044.851.059-.358-.194-.448-.374-.03-.597-.553-.135-1-.464-1.404-.105.194.209.388.434.583.642zM76.584 80.933c-.628-.09-1.18.045-1.748.359.254.15.463.269.657.388.344-.523.956-.568 1.748-.06-.015-.12 0-.254-.045-.299-.194-.149-.418-.358-.612-.388zM33.789 83.114c0 .06.03.134.03.194.119-.15.238-.299.328-.463.493.448.359 1.076.299 1.658-.015.09-.12.18-.194.27-.03.044-.045.089-.075.133.015.09.03.18.045.254.015.06.015.105.045.15.014.09.06.194.089.299.06-.18.135-.374.194-.553.105-.36.09-.732.419-1.046.03-.03.014-.134 0-.224-.03-.21-.06-.463-.12-.672-.15-.508-.03-1.046.12-1.583.03 0 .06-.016.09-.03.134.044.283.089.417.12.03-.09.06-.195.09-.3.015-.06.03-.134.045-.194.015-.209-.015-.403.045-.598.045-.164.194-.298.313-.462.06-.09.165-.15.21-.254.239-.448.91-.598 1.164-.21.24.389.583.643.957.867.015 0 .044.015.06.03.433.239.642.612.731 1.09.075.478.21.971.852 1.031.209-.926.537-1.852.702-2.779a6.73 6.73 0 0 0 .134-1.344c.165.06.269.12.374.135.12.03.298.06.328 0 .09-.105.105-.254.15-.404 0-.015-.015-.044 0-.074.328-.404.522-.927 1.15-1.031.269-.044.537-.104.791-.15.359-.044.688-.148.941-.447.075-.09.254-.15.404-.194.552-.135 1.03-.36 1.195-.972.03-.089.164-.149.254-.208.06.074.194.148.194.253.032.255-.307.734-.538 1.195-.03-.015-.105-.015-.18-.03 0 .135.016.27.016.404-.329.075-.628.224-.807-.165-.06-.09-.209-.134-.358-.209-.045.403-.15.673-.538.837-.254.12-.224.477-.075.702.224.344.523.627.822.836.642.433 1.404.672 2.196.882.448.134.657.014.851-.404.075-.164.075-.329.15-.493.044-.15.104-.283.164-.418l.313-.762c.105-.268.18-.537.284-.806.015-.045.03-.09.06-.15.284-.522.598-1.03.926-1.568.03-.015.18-.03.359-.06-.135.389-.284.777-.449 1.18-.149.433-.253.911-.463 1.344-.134.24-.224.508-.313.763-.18.433-.404.836-.762 1.18a.883.883 0 0 0-.269.552c-.015.313-.194.344-.433.329-.478-.016-.926-.06-1.42-.09.03.09.03.194.06.27.36.641.688 1.298 1.061 1.926.164.239.418.418.657.582 1.06.762 1.494 1.748 1.106 3.077-.09.3-.09.613-.09.912.015.418.164.732.568.881.104.045.209.15.269.254.149.21.268.418.433.687-.329.761 0 1.15.552 1.195.015.075.015.12.03.194.045 1.135.613 1.838 1.539 2.226.314.134.672.179 1.016.179.239.015.373-.21.358-.448-.045-.658.269-1.165.538-1.688.104-.209.18-.463.254-.687.164-.434.284-.926.508-1.33.343-.612.343-1.225.254-1.882 0-.06-.045-.164-.09-.194-.269-.165-.24-.373-.15-.597.09-.24.105-.493.195-.717.179-.389.313-.822.597-1.136.359-.433.314-.956.448-1.449.015-.059-.044-.149-.074-.224-.165-.298-.045-.552.313-.552.284 0 .493-.06.657-.254.27-.284.613-.135.912-.06.463.135.926.284 1.374.448.06.015.12.03.164.06.434.374.747.134 1.076-.105.448-.328.762-.776 1.135-1.165.553-.582.553-1.24.508-1.927-.03-.209-.03-.433-.045-.642.015-.104-.06-.239-.015-.298.254-.284.06-.538-.06-.822-.164-.299-.269-.642-.478-.941a5.544 5.544 0 0 0-.881-.896c-.299-.24-.612-.433-.538-.852 0-.044-.03-.12-.06-.18a28.054 28.054 0 0 0-.836-1.03c-.03-.044-.134-.074-.224-.074a6.849 6.849 0 0 1-2.121-.404 4.489 4.489 0 0 0-1.076-.194c-.702-.06-.956.344-.627.852-.552.343-1.09.671-1.643 1.03-.03-.014-.06-.014-.075-.03-.582-.507-1.254-.553-1.956-.18-.15.076-.314.106-.479.18-.06.016-.134.075-.179.06-.358-.15-.732-.134-1.12-.12-.06 0-.15-.134-.18-.224-.119-.388-.238-.776-.343-1.134.493-.031.941-.016 1.374 0 .3-.016.702-.39.732-.703 0-.15-.015-.299-.015-.448-.612-.194-1.24-.403-1.896-.538-.12-.03-.3.164-.449.224-.18.075-.373.21-.523.195-.209-.016-.403-.15-.612-.24.12-.134.224-.313.359-.447.074-.075.179-.15.268-.224.24-.21.389-.433.09-.703.015-.03.045-.06.06-.09.254 0 .493.015.732.03 0 .03.015.075.015.12-.12.075-.224.164-.344.254.538.314.583.284.792-.254.03-.09.179-.18.284-.239.044-.015.179.075.238.135.27.343.553.702.479 1.195 0 .09.134.224.238.283.284.09.673-.15.912.18.015.014.15-.045.358-.09-.134.3-.224.508-.328.762.074.06.224.209.433.388.045-.164.074-.329.134-.463a.331.331 0 0 1 .12-.194c.298-.225.418-.553.478-.882.015-.164.149-.313.269-.447.164-.18.358-.359.582-.568.045-.015.18-.06.329-.105.15.224-.03.717-.329.912-.254.164-.493.373-.717.552.194.21.373.389.627.672a.703.703 0 0 1 .06-.507c0 .148.06.283.329.373.03-.225.06-.419.045-.627 0-.015-.045-.03-.105-.045.105-.09.21-.164.314-.24.09-.089.194-.178.298-.268.404-.419.389-.359 1.031-.24.478.106.747.33 1.076.658.299.314.657.568.851 1 .21.48 1.09.703 1.479.464.12-.09.328-.06.523-.075.074-.358 0-.687-.165-1.03-.134-.255-.179-.538-.298-.911-.224-.15-.613-.105-1.001-.09-.613.03-.642.03-.777-.493-.045-.164.03-.359.105-.493.134-.18.328-.329.522-.523-.238-.074-.403-.134-.582-.194-.702-.224-1.33-.538-1.763-1.09a.615.615 0 0 0-.343-.195c-.404-.089-.598-.283-.643-.627-.03-.269-.149-.478-.493-.552-.074.238-.119.463-.194.687-.134.298-.313.373-.672.253-.328-.134-.642-.253-1.045-.209-.21.015-.523-.104-.553-.403-.015-.21-.075-.328-.344-.433-.12-.06-.209-.239-.254-.374-.074-.224-.209-.298-.492-.224-.24.045-.508.015-.792.045.134-.344.343-.418.672-.358.239.045.523.164.747-.105.239-.283.194-.538.015-.792a12 12 0 0 0-.523-.806c.18.015.314.015.433.06.403.119 1.03.881 1.001 1.24-.03.612.538 1.508 1.18 1.882.15-.374.269-.733.418-1.136.21.075.403.15.628.21.194.044.418.014.388-.21-.03-.329-.12-.657-.21-.986a.204.204 0 0 0-.133-.134c-1.046-.27-1.48-1.06-2.107-1.688-.343-.329-.672-.627-1.27-.613-.119 0-.239-.06-.328-.104-.433-.225-.866-.225-1.36 0 .016.045.045.104.075.209-.253.075-.508.135-.761.224-.27.135-.538.269-.822.434-.344.208-.254.418 0 .567.105.045.284.074.403.03.24-.075.478-.21.702-.314.045.03.075.06.105.06-.224.344-.448.672-.657 1-.03-.015-.09-.015-.12-.03 0-.089 0-.179-.015-.253-.134.045-.283.06-.358.074-.18-.134-.344-.313-.508-.313-.478-.06-.523-.284-.463-.597a.736.736 0 0 0 .015-.21c-.165.045-.284.075-.493.15.388.224.254.343-.09.463-.15-.433-.627-.657-1-.538-.404.135-.867-.12-1.18.254-.464-.343-.479-.343-1.51.209.03-.09.03-.194.09-.239.508-.418.3-.806.105-1.18-.03-.075-.164-.165-.254-.15-.134.03-.344.12-.359.21-.179.612-.313 1.254-.463 1.882.225.03.374.045.628.074-.27.09-.433.15-.613.21-.149-.24-.313-.464-.477-.732a3.86 3.86 0 0 1-.479.268c.15-.358.18-.402.553-.462.254-.045.344-.135.388-.344.045-.284.3-.582-.044-.836-.09.164-.165.313-.27.477-.313-.403-.686-.283-1.224.448-.09-.448.433-.717.687-1.135-.329-.015-.583-.03-.896-.044.045-.105.075-.195.12-.285-.09-.194-.613-.313-1.12-.283a26.719 26.719 0 0 0-5.602 21.42z" class="color61ba76 svgShape"/><path fill="#e4ecf9" d="M62.339 209.551c-9.56 0-17.336-7.777-17.336-17.335 0-9.56 7.777-17.336 17.336-17.336s17.335 7.777 17.335 17.336c0 9.558-7.777 17.335-17.335 17.335zm0-33.575c-8.955 0-16.24 7.285-16.24 16.24s7.285 16.24 16.24 16.24 16.24-7.286 16.24-16.24-7.286-16.24-16.24-16.24z" class="colore4ecf9 svgShape"/><path fill="#e4ecf9" d="M53.385 186.443h-.932v-3.054c0-.589.478-1.067 1.067-1.067h3.054v.932H53.52a.135.135 0 0 0-.135.135v3.054zM56.574 201.177v.932H53.52a1.068 1.068 0 0 1-1.067-1.067v-3.054h.932v3.054c0 .075.06.135.135.135h3.054zM71.292 197.988h.932v3.054c0 .589-.478 1.067-1.067 1.067h-3.054v-.932h3.054c.075 0 .135-.06.135-.135v-3.054zM68.103 183.254v-.932h3.054c.589 0 1.067.478 1.067 1.067v3.054h-.932v-3.054a.135.135 0 0 0-.135-.135h-3.054z" class="colore4ecf9 svgShape"/><path fill="#64d3ff" d="M65.871 184.786c-1.033-.47-2.22-.71-3.532-.71-1.32 0-2.51.24-3.533.71a.34.34 0 0 0 .284.616c.934-.43 2.028-.647 3.25-.647 1.212 0 2.306.218 3.25.648a.34.34 0 0 0 .281-.617z" class="color64d3ff svgShape"/><path fill="#64d3ff" d="M67.329 187.57c-1.375-1.398-3.101-2.137-4.991-2.137-1.883 0-3.608.739-4.987 2.135a.34.34 0 0 0 .482.477c1.25-1.265 2.807-1.933 4.505-1.933 1.704 0 3.263.668 4.507 1.933a.339.339 0 0 0 .484-.476z" class="color64d3ff svgShape"/><path fill="#64d3ff" d="M62.338 186.79c-.484 0-.964.06-1.428.177a.34.34 0 1 0 .167.658 5.092 5.092 0 0 1 6.348 4.93.34.34 0 0 0 .678 0 5.771 5.771 0 0 0-5.765-5.765zM59.907 187.69a.34.34 0 0 0-.464-.12 5.774 5.774 0 0 0-1.194.928c-1.056 1.068-1.65 2.506-1.675 4.052a.339.339 0 0 0 .335.344h.005a.338.338 0 0 0 .338-.334c.022-1.37.547-2.643 1.48-3.586a5.094 5.094 0 0 1 1.054-.82.34.34 0 0 0 .121-.464z" class="color64d3ff svgShape"/><path fill="#64d3ff" d="M65.661 189.66a4.411 4.411 0 0 0-3.323-1.514 4.359 4.359 0 0 0-3.123 1.306c-.83.837-1.285 1.969-1.285 3.204.002.73-.226 1.604-.634 2.445l-.19.339a.34.34 0 0 0 .59.333l.2-.357c.47-.964.715-1.92.712-2.778 0-1.038.386-2 1.088-2.71a3.687 3.687 0 0 1 2.642-1.103 3.73 3.73 0 0 1 2.812 1.282.34.34 0 0 0 .511-.446zM67.377 196.464l-.383-1.251c-.215-.982-.233-1.918-.244-2.479l-.004-.18c0-.502-.085-.996-.251-1.467a.338.338 0 1 0-.64.227c.142.398.213.815.213 1.25l.004.184c.012.585.031 1.563.267 2.636l.388 1.277a.339.339 0 0 0 .424.226.34.34 0 0 0 .226-.423z" class="color64d3ff svgShape"/><path fill="#64d3ff" d="m66.387 198.03-.315-1.01c-.56-1.746-.664-3.71-.682-4.465 0-1.683-1.37-3.052-3.052-3.052s-3.052 1.39-3.052 3.11c.002.357-.064 2.242-1.496 4.308a.34.34 0 0 0 .556.387c1.51-2.176 1.62-4.145 1.619-4.705 0-1.336 1.064-2.421 2.373-2.421a2.378 2.378 0 0 1 2.374 2.382c.024.984.15 2.9.714 4.662l.313 1.006a.34.34 0 0 0 .648-.201z" class="color64d3ff svgShape"/><path fill="#64d3ff" d="M64.033 192.555c0-.935-.76-1.696-1.695-1.696s-1.696.761-1.696 1.709c.004.112.08 2.776-2.074 5.579a.34.34 0 0 0 .537.413c2.302-2.995 2.219-5.896 2.215-6.005 0-.561.456-1.018 1.017-1.018s1.017.457 1.018 1.025c.01.38.012 3.806-2.636 7.246a.339.339 0 0 0 .537.414c2.795-3.63 2.787-7.272 2.777-7.667z" class="color64d3ff svgShape"/><path fill="#64d3ff" d="M62.676 192.54a.33.33 0 0 0-.354-.324.34.34 0 0 0-.324.354c0 .004.019.5-.107 1.286a.34.34 0 0 0 .336.393.339.339 0 0 0 .334-.285c.138-.86.116-1.402.115-1.424zM62.01 194.952a.34.34 0 0 0-.422.229 11.68 11.68 0 0 1-2.095 3.98.34.34 0 0 0 .53.423 12.36 12.36 0 0 0 2.216-4.21.34.34 0 0 0-.229-.422zM65.297 199.015l-.41-1.298c-.162-.487-.314-1.002-.314-1.004a.339.339 0 0 0-.306-.243.333.333 0 0 0-.332.206c-.007.018-.763 1.794-1.63 3.157a.34.34 0 0 0 .573.364c.525-.825 1-1.774 1.311-2.434l.055.163.406 1.293a.34.34 0 0 0 .647-.204z" class="color64d3ff svgShape"/><path fill="#f3f6fd" d="M70.666 156.656H42.483a2.375 2.375 0 0 1-2.375-2.375v-7.263a2.375 2.375 0 0 1 2.375-2.375h28.183a2.375 2.375 0 0 1 2.375 2.375v7.263a2.375 2.375 0 0 1-2.375 2.375z" class="colorf3f6fd svgShape"/><path fill="#d1dcf8" d="M52.172 148.494H44.25a.764.764 0 1 1 0-1.527h7.923a.764.764 0 1 1 0 1.527zM68.9 151.44H44.249a.764.764 0 1 1 0-1.527h24.65a.764.764 0 0 1 0 1.528zM68.9 154.332H44.249a.764.764 0 0 1 0-1.528h24.65a.764.764 0 0 1 0 1.528z" class="colord1dcf8 svgShape"/><path fill="#ecf3fe" d="M218.563 63.603c0 1.336-5.39 5.619-10.465 6.708-1.126.278-2.456.396-3.996.396-5.501 0-12.385-5.656-12.385-6.745 0-1.085 5.387-5.619 10.466-6.707 1.126-.278 2.451-.397 3.992-.397 5.505 0 12.388 5.405 12.388 6.745z" class="colorecf3fe svgShape"/><path fill="#c1d3ff" d="M204.88 59.578a4.462 4.462 0 1 0 0 8.924 4.462 4.462 0 0 0 0-8.924zm0 6.573a2.117 2.117 0 0 1-2.118-2.117c0-.445.144-.853.38-1.193a1.123 1.123 0 1 1 2.056-.892 2.111 2.111 0 0 1 1.8 2.085 2.117 2.117 0 0 1-2.118 2.117z" class="colorc1d3ff svgShape"/><path fill="#64d3ff" d="M205.198 61.949a1.123 1.123 0 0 1-2.056.892 2.08 2.08 0 0 0-.38 1.193 2.117 2.117 0 0 0 4.236 0 2.111 2.111 0 0 0-1.8-2.085z" class="color64d3ff svgShape"/><path fill="#d1dcf8" d="M204.146 63.463a1.123 1.123 0 1 0 0-2.246 1.123 1.123 0 0 0 0 2.246zM241.2 66.612a.99.99 0 0 1-.744-.323c-.333-.374-.271-.926.138-1.231 1.809-1.347 4.087-2.089 6.415-2.089 2.329 0 4.606.742 6.415 2.089a.852.852 0 0 1 .348.59.82.82 0 0 1-.21.641.99.99 0 0 1-.743.323c-.223 0-.432-.068-.605-.197-1.488-1.109-3.288-1.695-5.205-1.695-1.916 0-3.717.586-5.206 1.695a1.001 1.001 0 0 1-.604.197z" class="colord1dcf8 svgShape"/><path fill="#d1dcf8" d="M243.17 69.338a.99.99 0 0 1-.742-.322c-.333-.374-.271-.927.137-1.232 1.253-.933 2.831-1.447 4.444-1.447s3.19.514 4.443 1.447a.853.853 0 0 1 .348.59.82.82 0 0 1-.21.642.991.991 0 0 1-.743.322c-.222 0-.431-.068-.604-.196-.925-.69-2.044-1.054-3.234-1.054s-2.309.364-3.235 1.054a1.003 1.003 0 0 1-.604.196zM248.96 71.883a.998.998 0 0 1-.604-.197 2.234 2.234 0 0 0-1.347-.439c-.496 0-.961.152-1.347.439a1.003 1.003 0 0 1-.603.196.99.99 0 0 1-.743-.322.818.818 0 0 1-.21-.642.85.85 0 0 1 .347-.59c.721-.536 1.629-.831 2.556-.831s1.835.295 2.556.831c.408.305.47.857.136 1.232a.99.99 0 0 1-.742.323zM247.017 74.692c-.532 0-.965-.393-.965-.875 0-.483.426-.876.95-.876.542 0 .972.393.972.876 0 .482-.43.875-.957.875z" class="colord1dcf8 svgShape"/><path fill="#f3f6fd" d="M190.247 152.802s-2.074 2.49-6.844 2.49v4.036c0 3.1 1.346 6.09 3.784 8.007.863.678 1.88 1.261 3.06 1.611 1.18-.35 2.197-.933 3.06-1.611 2.438-1.916 3.785-4.906 3.785-8.007v-4.037c-4.77 0-6.845-2.489-6.845-2.489z" class="colorf3f6fd svgShape"/><path fill="#fe4c40" d="M190.247 167.667a8.1 8.1 0 0 1-2.308-1.289c-2.079-1.634-3.32-4.27-3.32-7.05v-2.871c2.783-.24 4.622-1.269 5.628-2.028 1.006.76 2.845 1.788 5.628 2.028v2.871c0 2.78-1.24 5.416-3.32 7.05a8.107 8.107 0 0 1-2.308 1.29z" class="colorfe4c40 svgShape"/><path fill="#ffffff" d="M189.293 163.67a.774.774 0 0 1-.551-.228l-1.322-1.32a.624.624 0 1 1 .883-.884l.99.99 3.619-3.62a.624.624 0 1 1 .883.883l-3.951 3.951a.774.774 0 0 1-.551.229z" class="colorfff svgShape"/><path fill="#fec9ac" d="M176.808 88.777c1.011.734-6.73 9.508-7.424 10.275-.056.06-.146.264-.266.597-1.424 3.882-7.339 24.95-15.016 27.721-5.587 2.018-11.292-.068-14.452-1.658-.009-.002-.012-.007-.02-.01-1.54-.783-2.466-1.442-2.466-1.442a8.566 8.566 0 0 1-.09-.626 10.416 10.416 0 0 1-.08-1.077c-.203-6.154 4.812-9.167 9.706-13.508.222.288 4.15 1.785 4.635 1.506 0 0 10.747-14.99 10.772-15.837.023-.851-3.354-5.476-1.532-7.031.686-.277 3.357 3.846 3.357 3.846s1.084-9.84 2.766-10.302c1.68-.462.107 8.974.107 8.974s2.025-8.954 3.843-9.142c1.765-.184-1.637 9.59-1.832 10.154.206-.424 3.896-8.002 5.415-7.553 1.56.46-2.282 7.64-2.282 7.64s3.845-3.253 4.859-2.527z" class="colorfec9ac svgShape"/><path fill="#ffab90" d="M169.118 99.649c-1.424 3.882-7.339 24.95-15.016 27.721-5.587 2.018-11.292-.068-14.452-1.658-.009-.002-.012-.007-.02-.01a20.227 20.227 0 0 1-2.556-2.068 18.226 18.226 0 0 1-1.54-1.65c.474.22.958.411 1.46.573 5.451 1.837 11.774.435 16.601-2.808 5.262-3.535 8.972-8.97 11.792-14.64.835-1.68 1.625-3.423 2.927-4.762.249-.254.514-.49.804-.698z" opacity=".5" class="colorffab90 svgShape"/><path fill="#fec9ac" d="M121.965 231.126h7.084v11.536h-7.084z" class="colorfec9ac svgShape"/><path fill="#ffab90" d="M121.965 231.126v4.079c2.367.14 4.752-.024 7.084-.495v-3.584h-7.084z" class="colorffab90 svgShape"/><path fill="#2e363a" d="M119.244 246.905h22.493c.537 0 1.026-.226 1.382-.598.356-.373.577-.886.577-1.448 0-.855-.507-1.618-1.27-1.923-2.368-.928-6.507-1.96-7.382-2.876-1.172-1.222-3.218-3.268-4.682-3.164-1.463.104-2.338 2.553-4.583 3.982-1.591 1.014-3.311-1.49-4.168-3.029-.292-.519-1.02-.525-1.295 0-1.819 3.438-1.072 9.056-1.072 9.056z" class="color2e363a svgShape"/><path fill="#fec9ac" d="M103.776 231.126h7.084v11.536h-7.084z" class="colorfec9ac svgShape"/><path fill="#ffab90" d="M103.776 231.126v4.079c2.367.14 4.752-.024 7.084-.495v-3.584h-7.084z" class="colorffab90 svgShape"/><path fill="#3a4146" d="M101.054 246.905h22.494c.536 0 1.026-.226 1.382-.598.356-.373.577-.886.577-1.448 0-.855-.507-1.618-1.271-1.923-2.367-.928-6.507-1.96-7.381-2.876-1.172-1.222-3.219-3.268-4.682-3.164-1.463.104-2.338 2.553-4.583 3.982-1.591 1.014-3.311-1.49-4.168-3.029-.292-.519-1.02-.525-1.295 0-1.819 3.438-1.073 9.056-1.073 9.056zM136.737 150.65c0 .004-.005.01 0 .015-.232 1.466.538 81.689-3.002 82.754-2.824.842-9.899.005-12.756-.385-.17-.02-.325-.046-.465-.066-.015 0-.024 0-.039-.005-.455-.061-.721-.107-.721-.107l-.078-2.678-.402-14.03s-.765 3.074-1.738 6.553a134.723 134.723 0 0 1-1.327 4.494c-.867 2.76-1.72 5.012-2.233 5.255-1.4.66-13.617-.908-14.063-1.714-.228-.41.17-20.452.625-40.335.45-19.782.954-39.406.954-39.406l35.245-.345z" class="color3a4146 svgShape"/><path fill="#2e363a" d="M126.887 163.224s-.174 47.08-6.373 69.744c-.01.02-.015.045-.02.066l-.019-.071-.799-2.785-.402-14.03s-.765 3.074-1.738 6.553l-.276-.968c1.331-18.53 4.731-38.129 9.627-58.51z" class="color2e363a svgShape"/><path fill="#2e363a" d="m113.915 232.72-.846-.534c1.462-2.307 2.76-10.788 4.558-22.527 1.915-12.503 4.537-29.627 8.723-47.996l.975.223c-4.179 18.333-6.798 35.436-8.71 47.925-1.884 12.3-3.128 20.426-4.7 22.91z" class="color2e363a svgShape"/><path fill="#2e363a" d="M100.536 190.4c4.637-10.276 11.052-19.68 18.865-27.574 5.02-5.064 10.882-9.616 17.334-12.16-.004-.005 0-.01 0-.015l-35.243.346s-.504 19.622-.956 39.404z" class="color2e363a svgShape"/><path fill="#64d3ff" d="M147.919 109.421a50.561 50.561 0 0 1-.24 2.156c-.023.167-.049.331-.072.493-.073.498-.152.977-.237 1.436-.029.153-.057.306-.088.453-.029.15-.06.297-.09.442a28.74 28.74 0 0 1-.615 2.401c-.66 2.167-1.47 3.748-2.317 4.878l-.114.15c-.04.05-.076.099-.116.147a7.717 7.717 0 0 1-1.158 1.17c-.04.034-.077.062-.113.09l-.216.16a6.292 6.292 0 0 1-.575.351c-.04.02-.073.039-.11.056-.037.02-.074.037-.11.054-.071.03-.14.062-.207.09-.02.009-.04.015-.057.02a4.104 4.104 0 0 1-.586.181c-.054.012-.108.023-.159.032-.042.005-.085.014-.125.02l-.076.008c-.606.068-1.105-.051-1.413-.26l.39 2.495 2.258 25.372a45.342 45.342 0 0 1-21.721 5.503 45.307 45.307 0 0 1-22.483-5.931l.694-17.742.626-6.112a3.354 3.354 0 0 1-.544-.218c-3.801-1.86-7.843-11.055-9.095-14.094-.255-.617-.393-.98-.393-.98s1.968-2.753 5.687-6.593a87.2 87.2 0 0 1 3.84-3.733c4.476-4.09 9.99-7.024 15.995-8.33a31.81 31.81 0 0 1 3.747-.6 29.714 29.714 0 0 1 7.095.099h.003c3.288.458 6.471 1.523 9.454 3.3a24.81 24.81 0 0 1 2.419 1.656 64.908 64.908 0 0 1 4.628 3.866c5.01 4.631 6.194 7.514 6.194 7.514z" class="color64d3ff svgShape"/><path fill="#fec9ac" d="M126.345 93.957c-.571 1.692-2.692 2.855-4.298 3.296-1.524.419-3.138.454-4.667.05-3.444-.91-3.529-3.042-3.529-3.042.582-.188.865-1.672.998-3.269.168-2.012.102-4.203.102-4.203h9.146s.268 2.78.559 4.92c.06.431.21.845.446 1.203a2.721 2.721 0 0 0 1.243 1.045z" class="colorfec9ac svgShape"/><path fill="#ffab90" d="M125.102 92.912c-3.125 1.13-6.815.762-9.461-1.243a8.875 8.875 0 0 1-.792-.677c.168-2.012.102-4.203.102-4.203h9.146s.268 2.78.559 4.92c.06.431.21.845.446 1.203z" opacity=".5" class="colorffab90 svgShape"/><path fill="#fec9ac" d="M127.165 83.7c-.246 1.752-.602 3.6-1.798 4.902-1.062 1.155-2.66 1.705-4.228 1.778-.85.041-1.713-.046-2.517-.328-1.631-.57-2.893-1.866-4.026-3.166-.42-.48-.835-.97-1.225-1.477-.405-.524-.91-.956-1.452-1.336a4.588 4.588 0 0 1-.007-.006c-.433-.304-.786-.709-1.12-1.114-.268-.322-.539-.665-.607-1.072-.063-.37.052-.756.265-1.06.132-.18.29-.336.47-.467a9.99 9.99 0 0 1 .606-5.673 9.963 9.963 0 0 1 5.341-5.276l8.859-1.39c.038 1.324.604 2.564 1.007 3.823 1.22 3.798.985 7.908.432 11.862z" class="colorfec9ac svgShape"/><path fill="#2e363a" d="M130.748 72.246c-.355.824-.8 1.629-1.46 2.238-.66.61-1.562 1.002-2.453.888-.74-.097-1.39-.523-2.077-.824-.456-.204-1.072-.14-1.625.037-.603.2-1.236.301-1.87.244l-.555-.047c.083-.402.653-.418.971-.68-2.244-.238-4.566 1.163-5.404 3.26-.304.77-1.243 3.531-1.243 3.531s-.928-.63-1.333-.787c-.54-.208-1.152-.359-1.725-.214-.45.11-.865.432-.992.877-.214-.901-.666-1.63-1.052-2.412-.58-1.174-.777-2.51-.657-3.812.047-.52.138-1.032.252-1.541.17-.768.398-1.525.626-2.279.349-1.142.707-2.301 1.364-3.3.918-1.393 2.372-2.382 3.946-2.941 1.572-.56 3.263-.717 4.932-.7 1.072.013 2.15.097 3.176.415 1.022.318 1.986.891 2.64 1.742.204.268.375.56.536.858.238.446.452.911.717 1.343a6.278 6.278 0 0 0 2.764 2.433c.2.09.415.174.559.345.302.355.15.898-.037 1.326z" class="color2e363a svgShape"/><path fill="#ffab90" d="M113.307 83.412a.403.403 0 0 1-.338.426.544.544 0 0 1-.282-.047c-.315-.124-.556-.385-.764-.653-.378-.486-.713-1.049-.727-1.665-.003-.195.03-.402.161-.546.185-.205.51-.218.778-.144.539.144.984.59 1.135 1.125l.037 1.504z" opacity=".5" class="colorffab90 svgShape"/><path fill="#3a4146" d="M126.028 70.719c-.667.415-1.531.271-2.292.073-1.186-.308-2.388-.72-3.605-.566a4.027 4.027 0 0 0-2.934 1.933c-.151.262-.275.54-.456.78-.442.587-1.19.875-1.92.929-.733.053-1.46-.1-2.177-.255-.704-.147-1.404-.298-2.104-.449-.339-.073-.67-.144-1.015-.16.17-.768.398-1.525.626-2.279.349-1.142.707-2.301 1.364-3.3.918-1.393 2.372-2.382 3.946-2.941 1.572-.56 3.263-.717 4.932-.7 1.072.013 2.15.097 3.176.415 1.022.318 1.986.891 2.64 1.742.204.268.375.56.536.858.06.496.16.995.197 1.494.07.908-.14 1.947-.914 2.426z" class="color3a4146 svgShape"/><path fill="#4f2d2a" d="M117.827 78.786c-.036-.02-.041-.1.015-.23.057-.127.18-.31.414-.478a1.797 1.797 0 0 1 1.406-.22c.274.088.446.223.54.327.093.107.111.184.083.216-.063.075-.276-.072-.722-.154a1.392 1.392 0 0 0-1.094.172c-.4.215-.557.42-.642.367zM123.57 77.634c-.055-.052.065-.32.546-.577.417-.182.879-.254 1.332-.209.536.098.732.317.695.385-.039.088-.279.027-.734.015a2.282 2.282 0 0 0-1.134.178c-.43.15-.64.281-.706.208zM121.696 84.474c.034-.03.147.06.359.207.105.07.243.153.404.187.153.034.372.005.485-.12.204-.184.058-.74.007-1.171a13.87 13.87 0 0 0-.283-1.343c-.246-1.051-.403-1.572-.314-1.607.074-.03.376.44.702 1.505a14.271 14.271 0 0 1 .386 2.085 1.51 1.51 0 0 1-.007.4.762.762 0 0 1-.208.416c-.298.259-.632.23-.86.155a1.159 1.159 0 0 1-.47-.328c-.19-.222-.232-.359-.2-.386zM122.335 87.075c.01.038-.074.109-.273.172-.196.06-.511.123-.932.076-.705-.107-1.38-.427-1.877-.965-.278-.335-.372-.68-.36-.902.01-.224.089-.317.126-.308.1.012.019.42.534.942.414.45 1.019.746 1.636.836.732.134 1.123.045 1.146.149z" class="color4f2d2a svgShape"/><ellipse cx="124.988" cy="80.356" fill="#4f2d2a" rx=".46" ry=".827" class="color4f2d2a svgShape"/><ellipse cx="119.591" cy="80.811" fill="#4f2d2a" rx=".46" ry=".827" class="color4f2d2a svgShape"/><path fill="#42c1f4" d="M147.918 109.422c-1.303 14.397-7.276 15.556-8.794 14.527l.39 2.496c-1.707-4.036-3.418-8.075-5.129-12.111.788 1.52 3.17 1.475 4.43.317 1.263-1.159 1.674-2.957 1.963-4.642.462-2.682.776-5.387.946-8.1 5.01 4.63 6.194 7.513 6.194 7.513z" class="color42c1f4 svgShape"/><path fill="#42c1f4" d="M141.773 151.816a45.342 45.342 0 0 1-21.721 5.503 45.307 45.307 0 0 1-22.483-5.931l.694-17.742.626-6.112a3.354 3.354 0 0 1-.544-.218c-3.801-1.86-7.843-11.055-9.095-14.094-.255-.617-.393-.98-.393-.98s1.968-2.753 5.687-6.593c2.889 7.095 7.361 13.787 14.215 17.01 4.7 2.21 10.248 2.544 15.179.916 4.413-1.46 8.29-4.478 10.816-8.376a17.927 17.927 0 0 0 .83-1.4c.371.565.74 1.131 1.108 1.698.569.872 1.133 1.747 1.682 2.628 1.187 1.878 2.331 3.781 3.373 5.733-.07.03-.138.062-.206.09-.02.009-.04.015-.057.02a4.104 4.104 0 0 1-.586.181c-.054.012-.108.023-.159.032-.042.005-.085.014-.125.02l-.076.008c-.606.068-1.105-.051-1.413-.26l.39 2.495 2.258 25.372z" class="color42c1f4 svgShape"/><path fill="#ffffff" d="M100.744 124.391c-.112.211-1.64-.203-3.8-2.358a16.499 16.499 0 0 1-2.222-3.132 91.323 91.323 0 0 1-1.565-3.42c-1.025-2.72-1.347-4.145-1.077-4.26.271-.114 1.065 1.11 2.315 3.735.483 1.134.993 2.21 1.507 3.299a15.145 15.145 0 0 0 2.043 2.878c1.798 2.135 2.988 2.97 2.8 3.258zM125.027 97.42c.098.095-.029.45-.507.993-.478.532-1.33 1.256-2.699 1.812-2.356.841-5.034.686-7.284-.39-1.297-.658-2.147-1.582-2.391-2.349-.257-.778-.016-1.18.106-1.163.163 0 .24.34.604.793.36.458 1.065 1.02 2.257 1.504 1.938.926 4.241 1.058 6.26.337 1.217-.37 2.066-.852 2.643-1.167.576-.322.899-.479 1.01-.37z" class="colorfff svgShape"/><path fill="#4a5258" d="m137.75 130.832-6.516 21.536a2.18 2.18 0 0 1-2.163 1.546l-2.702-.098-14.52-.534c-.812-.03-1.281-.668-1.054-1.42l6.993-23.116c.068-.224.185-.428.346-.61.37-.436.96-.72 1.534-.698l16.078.59a2.175 2.175 0 0 1 2.003 2.804z" class="color4a5258 svgShape"/><path fill="#fec9ac" d="M110.888 146.454c-1.431.202-3.512.115-5.912-.232-7.89-1.14-19.287-5.085-23.005-10.835-.559-.864-.987-1.72-1.295-2.553-2.4-6.393 8.272-20.198 8.272-20.198 3.289 6.08 5.95 12.029 9.97 14.845-.28.262-2.102 3.522-2.648 4.729-.01.03-.015.054-.008.077-.082 1.485 13.043 7.496 13.043 7.496s1.414.246 2.804-.83c1.396-1.074 4.013-3.128 4.908-1.909.89 1.225-5.212 5.522-2.675 4.258 2.099-1.045 7.156-2.372 9.141-1.995.408.072.693.221.78.461.546 1.4-7.228 5.808-13.375 6.686z" class="colorfec9ac svgShape"/><path fill="#2e363a" d="M227.405 139.71h2.029v106.968h-2.029z" transform="rotate(10.545 228.42 193.194)" class="color2e363a svgShape"/><path fill="#bbcaea" d="m218.192 243.28 1.615.409a.99.99 0 0 1 .748 1.018 107 107 0 0 1-.217 2.692c-.122 1.384-4.625.888-4.098-.956.281-.984.562-1.883.763-2.508a.99.99 0 0 1 1.189-.656z" class="colorbbcaea svgShape"/><path fill="#4a5258" d="M236.82 127.49h9.207v11.732h-9.207z" class="color4a5258 svgShape"/><path fill="#2e363a" d="M246.523 133.191a5.1 5.1 0 1 1-10.198 0 5.1 5.1 0 0 1 10.198 0z" class="color2e363a svgShape"/><path fill="#bbcaea" d="M244.76 133.243a3.336 3.336 0 1 1-6.672 0 3.336 3.336 0 0 1 6.672 0z" opacity=".5" class="colorbbcaea svgShape"/><path fill="#2e363a" d="M188.252 191.55h105.931v2.029H188.252z" transform="rotate(-89.942 241.217 192.564)" class="color2e363a svgShape"/><path fill="#bbcaea" d="M240.217 243.096h1.654a.99.99 0 0 1 .987.878c.077.685.16 1.627.276 2.843.132 1.383-4.385 1.715-4.203-.194.1-1.049.217-2.01.302-2.663a.992.992 0 0 1 .984-.864z" class="colorbbcaea svgShape"/><path fill="#2e363a" d="M253.363 139.71h2.029v106.968h-2.029z" transform="rotate(169.454 254.378 193.194)" class="color2e363a svgShape"/><path fill="#bbcaea" d="m264.606 243.28-1.615.409a.99.99 0 0 0-.748 1.018c.038.623.11 1.472.217 2.692.122 1.384 4.625.888 4.098-.956a81.3 81.3 0 0 0-.763-2.508.99.99 0 0 0-1.189-.656z" class="colorbbcaea svgShape"/><path fill="#2e363a" d="M220.636 126.063h4.012v-6.589h1.056v-6.612h-5.068zM228.45 112.862v13.2H229.868v.013h1.467v-.012h2.181v-13.201z" class="color2e363a svgShape"/><path fill="#3a4146" d="M225.364 112.188a.715.715 0 0 0-.716.715v13.834h3.372c.395 0 .715-.32.715-.715v-13.119a.715.715 0 0 0-.715-.715h-2.656zM217.55 112.188a.715.715 0 0 0-.715.715v13.834H220.207c.395 0 .715-.32.715-.715v-13.119a.715.715 0 0 0-.715-.715h-2.657z" class="color3a4146 svgShape"/><path fill="#4a5258" d="M213.01 109.45h-2.878v20.025H213.01c2.383 0 4.315-1.537 4.315-3.433v-13.16c0-1.896-1.932-3.433-4.315-3.433z" class="color4a5258 svgShape"/><path fill="#2e363a" d="M210.132 109.449h1.845v20.026h-1.845z" class="color2e363a svgShape"/><path fill="#3a4146" d="M208.526 108.816a.6.6 0 0 0-.6.6v20.092a.6.6 0 0 0 .6.6h1.087a.6.6 0 0 0 .601-.6v-20.091a.6.6 0 0 0-.6-.601h-1.088z" class="color3a4146 svgShape"/><path fill="#4a5258" d="M232.749 100.12c0 .649-.526 1.174-1.174 1.174h-4.549a1.174 1.174 0 0 1 0-2.348h4.549c.648 0 1.174.526 1.174 1.174z" class="color4a5258 svgShape"/><path fill="#4a5258" d="M234.876 104.047h-4.842v-4.98c0-.491.398-.89.888-.89h3.954v5.87z" class="color4a5258 svgShape"/><path fill="#2e363a" d="M237.566 106.395h-8.314a.832.832 0 0 1-.832-.832v-1.711c0-.46.372-.832.832-.832h8.314c.46 0 .832.372.832.832v1.71c0 .46-.373.833-.832.833z" class="color2e363a svgShape"/><path fill="#d1dcf8" d="m244.844 102.333-.951-1.553c-.395-.643-1.218-.855-1.84-.474l-6.474 3.968a1.269 1.269 0 0 0-.311.277 2.274 2.274 0 0 0 1.589 3.898 2.25 2.25 0 0 0 1.06-.274c.013-.007.028-.011.041-.02l.038-.022c.06-.035.12-.069.177-.109l6.26-3.836c.62-.381.805-1.212.411-1.855z" class="colord1dcf8 svgShape"/><path fill="#2e363a" d="M238.206 105.105h3.081v10.365h-3.081z" transform="rotate(-35.466 239.746 110.287)" class="color2e363a svgShape"/><path fill="#4a5258" d="M250.641 103.784h3.081v10.365h-3.081z" transform="rotate(-21.005 252.182 108.967)" class="color4a5258 svgShape"/><path fill="#2e363a" d="M238.38 106.175a1.559 1.559 0 1 1-3.119 0 1.559 1.559 0 0 1 3.118 0z" class="color2e363a svgShape"/><path fill="#4a5258" d="M248.989 106.26h-6.124a1.312 1.312 0 0 1-1.312-1.313v-3.062c0-3.645 2.332-5.395 5.832-5.395h4.812c.724 0 1.312.588 1.312 1.313v3.936c0 2.48-1.312 4.52-4.52 4.52z" class="color4a5258 svgShape"/><path fill="#2e363a" d="M248.7 105.388h-4.98c-.59 0-1.067-.478-1.067-1.067v-2.49c0-2.964 1.897-4.387 4.743-4.387h3.912c.59 0 1.068.478 1.068 1.067v3.201c0 2.016-1.068 3.676-3.676 3.676zM253.694 108.596h-14.416v2.787h15.517z" class="color2e363a svgShape"/><path fill="#4a5258" d="M253.997 109.33h-13.123c-.51 0-1.816-.102-1.816 1.632v1.155h16.04l-1.101-2.788z" class="color4a5258 svgShape"/><path fill="#3a4146" d="M256.59 118.28c0 5.577-4.106 9.536-11.296 9.536H233.7c-.727 0-1.317-.59-1.317-1.318V112.56c0-.733.59-1.323 1.317-1.323h21.009c.94 1.98 1.88 5.096 1.88 7.043z" class="color3a4146 svgShape"/><path fill="#2e363a" d="M256.59 118.28c0 5.577-4.106 9.536-11.296 9.536H233.7c-.727 0-1.317-.59-1.317-1.318v-3.44c2.116-.048 4.21-.579 6.255-1.142 3.226-.891 6.474-1.887 9.307-3.67 2.63-1.656 4.899-4.073 5.856-7.01h.908c.94 1.98 1.88 5.097 1.88 7.044z" opacity=".5" class="color2e363a svgShape"/><path fill="#64d3ff" d="M228.091 99.464v1.318c0 .733-.11 1.946-1.58 1.908l-11.592-.585c-.186 0-.367-.038-.53-.11a1.328 1.328 0 0 1-.788-1.213v-1.318c0-.733.59-1.323 1.318-1.323l10.356-.525 1.236-.06c1.526-.11 1.58 1.175 1.58 1.908z" class="color64d3ff svgShape"/><path fill="#2e363a" d="M233.849 112.998h7.043v11.592h-7.043z" class="color2e363a svgShape"/><path fill="#bbcaea" d="M239.865 122.975a.44.44 0 0 1-.44.44h-3.962a.44.44 0 0 1-.44-.44v-5.722a.44.44 0 0 1 .44-.44h3.962a.44.44 0 0 1 .44.44v5.722z" opacity=".5" class="colorbbcaea svgShape"/><path fill="#3a4146" d="M247.178 141.016H235.67a.376.376 0 0 1-.375-.375v-1.571c0-.206.17-.375.375-.375h11.508c.206 0 .375.169.375.375v1.57a.376.376 0 0 1-.375.376z" class="color3a4146 svgShape"/><path fill="#bbcaea" d="M242.064 188.331h-1.825a.866.866 0 0 1-.866-.865v-2.89c0-.479.388-.867.866-.867h1.825c.478 0 .865.388.865.866v2.89a.866.866 0 0 1-.865.866zM230.356 187.78l-1.795-.334a.866.866 0 0 1-.692-1.01l.529-2.841a.866.866 0 0 1 1.01-.693l1.793.334c.47.088.78.54.693 1.01l-.529 2.841a.866.866 0 0 1-1.01.693zM252.442 187.78l1.795-.334c.47-.087.78-.54.692-1.01l-.529-2.841a.866.866 0 0 0-1.01-.693l-1.793.334a.866.866 0 0 0-.693 1.01l.529 2.841c.087.47.54.78 1.01.693z" class="colorbbcaea svgShape"/><circle cx="243.657" cy="115.718" r="1.398" fill="#ffcf3d" class="colorffcf3d svgShape"/><circle cx="247.722" cy="115.718" r="1.398" fill="#71c687" class="color71c687 svgShape"/><circle cx="251.787" cy="115.718" r="1.398" fill="#fe4c40" class="colorfe4c40 svgShape"/><path fill="#42c1f4" d="M228.091 99.464v1.318c0 .733-.11 1.947-1.58 1.909l-11.592-.585c-.186 0-.367-.039-.53-.11a32.492 32.492 0 0 0 8.24-2.138c.65-.262 1.296-.558 1.82-1.011.378-.329.69-.76.826-1.23l1.236-.06c1.526-.11 1.58 1.175 1.58 1.907z" class="color42c1f4 svgShape"/><circle cx="173.857" cy="63.463" r="7.032" fill="#fe4c40" class="colorfe4c40 svgShape"/><path fill="#ffffff" d="m176.372 64.038-3.28 2.064a.68.68 0 0 1-1.043-.577v-4.124a.68.68 0 0 1 1.042-.577l3.281 2.064a.679.679 0 0 1 0 1.15z" class="colorfff svgShape"/><path fill="#bbcaea" d="M240.049 115.082a.353.353 0 0 1-.355.353h-4.53a.353.353 0 0 1 0-.705h4.53c.197 0 .355.158.355.352z" opacity=".5" class="colorbbcaea svgShape"/></svg>