<svg xmlns="http://www.w3.org/2000/svg" viewBox="0 0 4680 3120"><defs><linearGradient id="d" x1="1645.53" x2="2061.05" y1="2467.48" y2="2467.48" gradientUnits="userSpaceOnUse"><stop offset="0" stop-color="#f48e85" class="stopColorf48e85 svgShape"/><stop offset="1" stop-color="#ec72aa" class="stopColorec72aa svgShape"/></linearGradient><linearGradient id="e" x1="1916.11" x2="1831.93" y1="639.4" y2="2010.84" gradientUnits="userSpaceOnUse"><stop offset="0" stop-color="#eaedf1" class="stopColoreaedf1 svgShape"/><stop offset=".47" stop-color="#d2d8e0" class="stopColord2d8e0 svgShape"/><stop offset=".99" stop-color="#b6bfcd" class="stopColorb6bfcd svgShape"/></linearGradient><clipPath id="a"><path fill="#999248" d="M1807.47,2631.17c-37.75-32.34-88-85.32-112.91-162.11-32.69-100.72,6.87-153.91-5-326.2-7.5-108.94-13.85-184.89-71-223.32-44.76-30.11-115.34-33.58-156.79-2.27-34.47,26-52.82,79.14-57.54,116.71-3.84,30.62,1.18,52.53-15.83,69.27-17.38,17.11-37.26,8.64-53.64,21.46-33.23,26-10,106.63-6.26,119.66,41.74,145,181.87,238.19,243.49,278.11C1623,2555.49,1701.47,2599.05,1807.47,2631.17Z" class="color999248 svgShape"/></clipPath><clipPath id="b"><path fill="#c49b30" d="M1882.82,2765.75c-102.36,24.27-236.25,40.7-374.55,13.33-35.3-7-253.35-50.13-250.88-144.65.87-33.3,28.36-44.85,30.31-89.34,2.3-52.73-34.83-70.26-71-127-21.57-33.85-84.71-132.91-33.56-207.57,30.56-44.61,100.56-78.49,159.89-78.4,87,.12,134,73.3,211.43,198.49,68.6,111,65.1,142.89,115.91,222C1708.09,2611.24,1771.53,2689.37,1882.82,2765.75Z" class="colorc49b30 svgShape"/></clipPath><radialGradient id="c" cx="-11587.08" cy="4126.64" r="1487.76" gradientTransform="matrix(-.93 .35 .36 .93 -9731.87 1386.34)" gradientUnits="userSpaceOnUse"><stop offset="0" stop-color="#b4d34d" class="stopColorb4d34d svgShape"/><stop offset=".25" stop-color="#a6c94b" class="stopColora6c94b svgShape"/><stop offset=".72" stop-color="#80ae45" class="stopColor80ae45 svgShape"/><stop offset="1" stop-color="#669c41" class="stopColor669c41 svgShape"/></radialGradient></defs><g data-name="13" fill="#000000" class="color000 svgShape"><rect width="4680" height="3120" fill="#ffffff" data-name="3" opacity="0" class="colorfff svgShape"/><path fill="#ffffff" d="M2999.3 1719.19q-2.68-11.81-6.2-23.44c-2.69-9-5.84-17.93-9.34-26.67a65.33 65.33 0 01-14.86-7.66c-1.49.89-3 1.72-4.57 2.5a131 131 0 01-9.53 25.29 208.17 208.17 0 0120.06 10.8A134.37 134.37 0 012999.3 1719.19zM3013.68 1689.17c8.72 25.85 14.39 53 15.34 80.63.09 2.83.13 5.66.1 8.49 18.92 11.91 45.34 12.79 66.74 4.59.76-1.58 1.53-3.18 2.26-4.76 6.29-14.14 11.56-28.63 14.42-43.52a148.28 148.28 0 002.85-22.43 134.84 134.84 0 00-.84-22.54 147.86 147.86 0 00-4.21-22.27 189.74 189.74 0 00-7.1-21.71c-.15-.39-.3-.79-.47-1.18-6.71 3.4-16.2 3.4-23.88 1.34a84.45 84.45 0 01-17.12-6.64l-2.38.08c-.51.94-1 1.9-1.54 2.83-11 18.26-29.11 28.81-48.19 30.41.22 2.58.46 5.13.76 7.7C3011.53 1683.16 3012.63 1686.15 3013.68 1689.17zM2962.35 1809.13a226.88 226.88 0 00-6.49-35.75 249.91 249.91 0 00-12.16-36c-2.67-6.49-5.63-12.88-8.76-19.2a119.52 119.52 0 01-29.72 23.55C2907.52 1779.85 2930.74 1799.75 2962.35 1809.13zM3179.27 1694.27c1.53 10.2 2.55 20.5 3.24 30.77 3.43-3.3 6.8-6.63 10.11-10 2.4-7.31 5-14.57 7.18-22a68.82 68.82 0 01-9.07 1.32A69.58 69.58 0 013179.27 1694.27z" class="colorfff svgShape"/><path fill="#ffffff" d="M3839.31,1561.86c-1.64-35.25-26.09-62.87-52.49-75.63-6.32-3-41.75-17.18-46.27-9.42,38.41-65.83-13-184.34-76-201.81-21.44-6-41.54-.46-59.1,11.8-16.69-17.65-40.42-29.27-64-34.18-9.09-1.89-59.26-9.06-63.82.81,38.65-83.8-53.16-204.8-140.95-208.91-80.69-3.79-132.35,84.14-139.89,154.18a46.78,46.78,0,0,0,.62,15.33q-4-2.29-8.11-4.31a50.09,50.09,0,0,0-30.14-10.81,105.56,105.56,0,0,0-18.05-2.48,103,103,0,0,0-46,8.43c-9.9-10.51-25.05-17.36-39.41-17.58-24.84-.38-46.95,16.34-64.55,45.15,15.34-44.25-3.2-98.62-44.18-121.8s-99.92-9.48-123.67,30.93c-20.24,34.46-13.8,78-2.61,116.31-24.72-12-54.86-11.61-79.76-.2a92.24,92.24,0,0,0-33.07-6.34,51.35,51.35,0,0,0-22.86-8.46c-15.94-1.9-31.9,2.33-47.39,6.5,13.41-24.48.43-58.31-24.69-70.81s-57.67-4.74-77.23,15.29c-14.73,15.09-22.38,35.91-23.3,57-17.48-10.68-38.81-16.1-58.31-10.28-28.4,8.46-45.94,39.72-44.11,69.08a84.1,84.1,0,0,0,3.53,19.11c-24.51-10-54.82-2.06-73.38,17-1.46,1.49-2.78,3.07-4.1,4.65,7.55,30.29,35.33,56.19,66,59.26-23.47,16.84-25,44.25-8.9,63.86,8.27,10.07,20.48,17,34.88,21.07,6.73-14.27,22-28.17,43.32-40a46.62,46.62,0,0,1-8.92-21.07c-3.78-24.4,11.76-47,34.72-50.54a40,40,0,0,1,21.4,2.65c-1.79-51.71,32.88-97.21,82.31-104.77,48.45-7.4,94.45,24.18,109.43,72.39,9.45-16.13,25.24-27.88,44.5-30.81,33.36-5.1,64.92,18,73.06,52.29,8.34-20.71,26.24-36.4,48.93-39.87,26.2-4,51.29,9.39,64.81,31.91a61.19,61.19,0,0,1,78.29-17.48,37.79,37.79,0,0,1,4.85-1.08,39.77,39.77,0,0,1,21.41,2.64c-1.8-51.71,32.89-97.21,82.3-104.77,48.45-7.39,94.47,24.19,109.43,72.4,9.45-16.15,25.24-27.88,44.5-30.81,33.33-5.11,64.87,18,73,52.22,8.39-20.67,26.28-36.34,49-39.81,26.2-4,51.29,9.39,64.81,31.91a61.93,61.93,0,0,1,40-24.12c35.19-5.37,68.43,20.58,74.23,58,0,.34.06.66.11,1,34.57-4.35,66.89,21.33,72.6,58.15,28.46-3.86,53.88,9.13,57,29.46,2.73,17.45-11.9,34.64-34,42.11a51.87,51.87,0,0,1,10.74,24.15c5.8,37.41-32,74.22-84.45,82.24a136,136,0,0,1-18.32,1.52c-.51.93-1,1.91-1.54,2.84a63,63,0,0,1-34.61,27.71c-6.3,19.47-17.43,37.42-31.1,52.84-17,19.31-37.59,35.14-59.36,48.76-43.82,26.91-91.58,46.91-140.52,62.68-26.71,8.59-53.79,15.89-81,22.39,9.3,23.54,30.25,42.81,55.35,48,35.5,7.32,74.77-14.46,87-48.3-3.33,42.82,45.16,68.61,82.89,62.2,29.29-5,54.38-24.15,73.55-46.69,18.08,17.32,39.64,33.14,64.63,35.7,34.17,3.47,60.64-23.88,62.6-56.55,1.84-31-20.88-57.68-47.13-71.57-6.29-3.32-41.81-19.33-47.31-13,20.82-23.94,24.06-58.85,15.62-92.14,17.51,20.68,47,28.72,70.38,21.1,27.21-8.87,48.9-33.31,64.59-60.9,19,17.56,41.18,33,65.15,33.13C3819,1632.83,3841,1599,3839.31,1561.86Z" class="colorfff svgShape"/><path fill="#ffffff" d="M3122.74 1661.88a157.09 157.09 0 015.34 26.22 146.12 146.12 0 01-3 49.17 185.88 185.88 0 01-13.16 37c11.72-8.2 21.26-19 28.93-31.13a91.43 91.43 0 0017.26-36 86.3 86.3 0 004.12 36.6c1-.87 2-1.72 2.95-2.58a416.93 416.93 0 00.57-49.34A81.46 81.46 0 013122.74 1661.88zM3006.15 1768.91c-.1-3-.28-5.93-.51-8.89a78.15 78.15 0 00-10.5-20.7 112.15 112.15 0 00-28.16-27.5 180.51 180.51 0 00-15.75-9.8 277.11 277.11 0 0126.72 65.73 243.55 243.55 0 016.62 40.27A79.44 79.44 0 003006.15 1768.91zM3292 1686.77a245.23 245.23 0 01-58.07 114.88c0 .33.08.67.13 1 10.12-4.29 20.06-8.85 29.67-14 13.62-7.47 26.66-15.82 38-26a153.9 153.9 0 0016-16.13 136.25 136.25 0 0013.07-18.44 140.33 140.33 0 007-13 123.35 123.35 0 01-29.59-15.1A126.83 126.83 0 013292 1686.77zM3496.36 1626.56c-1.12-.78-2.15-1.64-3.21-2.48a131.29 131.29 0 01-15.77 39.46c-27.68 45.72-78.47 66.06-126.41 55.4a157.67 157.67 0 01-8.44 16.14 148.55 148.55 0 01-32.37 37.35 189.09 189.09 0 01-34.16 22.06c13.23-3 26.43-6.14 39.52-9.65 48.77-13.09 96.66-30.43 141-54.7 22-12.28 42.9-26.75 60.45-44.82 14-14.34 25.77-31.22 33-50A61.89 61.89 0 013496.36 1626.56z" class="colorfff svgShape"/><path fill="#ffffff" d="M3249.23 1669.08c-4.4 7.6-9.1 15.05-13.87 22.46a438.33 438.33 0 01-26.82 35.64c-11.22 13.46-23.14 26.25-35.41 38.61a87.36 87.36 0 0027.34 26.3 41.3 41.3 0 0015.05 5.42 236.86 236.86 0 0074.45-112.8 132.07 132.07 0 01-18.78-24A60.88 60.88 0 013249.23 1669.08zM3217.59 1687.07c.2-.22.38-.45.58-.68C3217.64 1686.8 3217.62 1686.94 3217.59 1687.07z" class="colorfff svgShape"/><path fill="#d8d6eb" d="M2608.26,1891.1c-19-19.18-33.65-41.89-45-65.85a86.59,86.59,0,0,1-81.17-1.26,85.42,85.42,0,0,1-27.37-23.87,45.44,45.44,0,0,1-70-27.08c-.25-1.09-.4-2.18-.58-3.27a99.29,99.29,0,0,1-12.38,3.61c-28.3,6.32-55-.2-68.17-14.76a29.69,29.69,0,0,1-50.33-13.76,29.12,29.12,0,0,1,4-22.24c-18-4.11-30.23-12.08-32.75-23.24-3.11-13.68,9-29.2,30.4-42.44a29,29,0,0,1-7-13.33,29.33,29.33,0,0,1,22.37-35.07,29.67,29.67,0,0,1,15.12.59,69,69,0,0,1,109.4-61.72,126.66,126.66,0,0,1,29.44-37.36,37.24,37.24,0,0,1,3.8-15.47c-14.4-4.12-26.61-11-34.88-21.07-16.14-19.61-14.57-47,8.9-63.86-30.65-3.07-58.43-29-66-59.26-12,14.59-18.38,33.34-19.22,52.39-17.47-10.67-38.8-16.09-58.31-10.27-28.4,8.46-45.93,39.72-44.1,69.08,1.56,25.14,15,48.23,33.28,66-18.72-13.46-44.91-16.3-67.32-9.26-59.61,18.69-108.81,97-69.29,153.39,13,18.6,31.64,32.56,50.12,45.87,5.38,3.86,10.91,7.77,17.3,9.53,4.58,1.28,11,.67,14.94.35-38.57,43-48.19,112.65-9.88,159.2,26.89,32.69,75.1,44.62,115.14,33.07,6.17,4,12.6,7.74,19,11.33,4.45,2.49,9,5,14.05,5.81,3.61.55,8.45-.45,11.45-1-25.7,36.2-27,90.29,6.39,122.58s96,28.73,122.26-9.39c17.38,17.14,48.35,14.6,66.72-1.47s25.45-42,24.11-66.25-9.92-47.48-18.42-70.26c24.28,4.37,51.14,1.88,70.65-13.14C2612.72,1895.57,2610.46,1893.36,2608.26,1891.1Z" class="colord8d6eb svgShape"/><path fill="#d8d6eb" d="M2408.24 1691.35c1.13.61 2.26 1.25 3.32 1.94 0-1.47 0-2.93 0-4.39C2410.51 1689.73 2409.4 1690.53 2408.24 1691.35zM2726 1901.58a208.93 208.93 0 01-21.42-16.5 156.39 156.39 0 01-27.82-32.22 115.65 115.65 0 01-16.19-38.87c7.27 27.31 25.44 50.29 47.08 67.5a215.37 215.37 0 0030.94 20.1 69.39 69.39 0 0032.32-10.62c9.36 22.46 38.91 32 62.11 24.22a67.78 67.78 0 0026.45-16.87c-20.28-13.12-41.26-24.88-63.95-32.94a179.65 179.65 0 00-43.83-9.8 135.48 135.48 0 00-45.25 3.21 138.4 138.4 0 0145.42-7.92 186.57 186.57 0 0146.39 5.49c19.23 4.66 37.68 11.84 55.47 20.2-19.89-36-45.29-69.54-71.87-102.07-15.88-19.43-32-38.88-47.43-58.9-9.73 13-27 23.73-48.1 28.44a101.53 101.53 0 01-12.76 2c-.33.65-.6 1.31-1 2a44.83 44.83 0 01-18.15 17.78c-3.64 24.55-8.29 48.7-8.39 72.76a153.56 153.56 0 005.9 44.33 78.67 78.67 0 0019.27-6A89.69 89.69 0 002726 1901.58zM3102.77 1644.47q-2.3-5.81-5-11.43a132.68 132.68 0 01-36 6.13 84.45 84.45 0 0017.12 6.64C3086.57 1647.87 3096.06 1647.87 3102.77 1644.47zM3171.19 1657.54a256.17 256.17 0 018.08 36.73 69.58 69.58 0 0011.46.07 68.82 68.82 0 009.07-1.32 226.66 226.66 0 007-32 70.13 70.13 0 01-32.93-49.7c-.26-1.69-.41-3.34-.53-5a133.76 133.76 0 01-17.93 4c-1.89.29-3.74.53-5.6.73.88 1.35 1.77 2.71 2.6 4.11A181.38 181.38 0 013171.19 1657.54zM3218.17 1686.39c1.22-1.5 2.45-3 3.67-4.48q4.68-6.17 9.25-12.46a61.58 61.58 0 01-11.35-2.56q-.64 9.9-2.07 19.76C3217.82 1686.56 3218 1686.47 3218.17 1686.39zM3122.74 1661.88a81.46 81.46 0 0043.05 29.88 242.55 242.55 0 00-3.82-32 175.64 175.64 0 00-13.7-42.46c-1-2-2-4-3-5.92-2.73.2-5.44.33-8.1.38a109.74 109.74 0 01-27.74 16.92c2.05 4 4 8 5.76 12.08A186 186 0 013122.74 1661.88zM2968.77 1661.33c-1.12-.78-2.15-1.63-3.21-2.48q-.57 2.55-1.23 5.07c1.54-.78 3.08-1.61 4.57-2.5zM3219.16 1486.82c-1.59 1.11-3.24 2.2-4.92 3.26 1.56 1.07 3.05 2.2 4.49 3.35Q3218.82 1490.12 3219.16 1486.82zM2691.56 1521.6c-1.58 1.11-3.22 2.19-4.91 3.26q2.34 1.61 4.5 3.34C2691.21 1526 2691.35 1523.8 2691.56 1521.6zM2608.57 1764a84.79 84.79 0 01-38.24 57.23c12 23 27.11 44.3 46 61.87 2.33 2.19 4.71 4.35 7.11 6.46a54.75 54.75 0 004.17-5.79 89.08 89.08 0 0011.07.42 165.58 165.58 0 01-4-46c.89-19.41 4.44-38.13 8.1-56.64a160.68 160.68 0 01-13.65-10.62 45.45 45.45 0 01-18.12-5.49C2610.15 1765 2609.37 1764.48 2608.57 1764zM2793.42 1764.66c30.41 33.39 60 68.32 83.77 108 1.44-3.06 2.76-6.18 3.89-9.33 5.35-14.88 7.66-30.54 8.92-46.34 16.45 10.73 36.79 15.7 56.16 12a70.49 70.49 0 0017.1-5.71c-.16-4.25-.4-8.48-.75-12.72-.06-.46-.11-.93-.16-1.4-31.61-9.38-54.83-29.28-57.13-67.4-37.86 21.15-85.55 20.2-124.62-6.85a130.23 130.23 0 01-37-39.43c-.25.16-.52.3-.79.46a35.41 35.41 0 01-2.5 9.54C2757.48 1725.54 2775.5 1745 2793.42 1764.66z" class="colord8d6eb svgShape"/><path fill="#ffffff" d="M2532.07 1614.63a40.16 40.16 0 01-21.94 11c-23 3.51-44.64-13.44-48.43-37.84a46 46 0 017.45-33.29c-25.31-8.36-42-21.9-44.68-39.13a32.28 32.28 0 01-.35-5.29 126.66 126.66 0 00-29.44 37.36 69 69 0 00-109.4 61.72 29.67 29.67 0 00-15.12-.59 29.33 29.33 0 00-22.37 35.07 29 29 0 007 13.33c-21.43 13.24-33.51 28.76-30.4 42.44 2.52 11.16 14.73 19.13 32.75 23.24a29.12 29.12 0 00-4 22.24 29.69 29.69 0 0050.33 13.76c13.13 14.56 39.87 21.08 68.17 14.76a99.29 99.29 0 0012.38-3.61c.18 1.09.33 2.18.58 3.27a45.44 45.44 0 0070 27.08 85.42 85.42 0 0027.37 23.87 86.59 86.59 0 0081.17 1.26c-1.82-3.89-3.59-7.8-5.26-11.75-11.66-28.46-19.32-58.19-24.56-88.16-5.4-30-8.5-60.17-11.52-90.36 4.27 30 8.64 60.09 15.26 89.62 6.44 29.56 15.26 58.6 27.8 85.88 1.7 3.61 3.49 7.2 5.36 10.73a84.79 84.79 0 0038.24-57.23c.8.5 1.58 1 2.42 1.48a45.45 45.45 0 0018.12 5.49c-30.32-26.35-49.74-63.36-54-101.5a153.06 153.06 0 0070.68 96.58c1.42-7.34 2.73-14.66 3.79-22a205.22 205.22 0 002.12-46.56 230.51 230.51 0 00-8.34-46.13c-.83-3-1.71-6-2.64-8.94a131.43 131.43 0 01-12.9 2.65C2587.11 1651.28 2549.53 1638.28 2532.07 1614.63zm-120.51 78.66c-1.06-.69-2.19-1.33-3.32-1.94 1.16-.82 2.27-1.62 3.36-2.45C2411.53 1690.36 2411.52 1691.82 2411.56 1693.29zM2645.78 1641l-1.71.48c1 2.9 2 5.82 2.95 8.75.1.32.19.62.31.93q-.61-2.54-1-5.13C2646.05 1644.37 2645.91 1642.71 2645.78 1641z" class="colorfff svgShape"/><path fill="#ffffff" d="M2672.6 1748c.38-.64.65-1.3 1-2a101.53 101.53 0 0012.76-2c21.09-4.71 38.37-15.49 48.1-28.44-3.16-4.12-6.31-8.26-9.41-12.42-1.49.34-3 .65-4.49.88-30.4 4.63-59.33-14.12-70.38-43.42a223.07 223.07 0 017.25 36.32 212.32 212.32 0 01-.25 48c-.74 7-1.68 13.88-2.71 20.78A44.83 44.83 0 002672.6 1748zM2742.82 1695.91a60.14 60.14 0 01-7.35 3.82c1.62 1.91 3.24 3.81 4.85 5.72A35.41 35.41 0 002742.82 1695.91z" class="colorfff svgShape"/><path fill="#956565" d="M3173.13 1765.79c12.27-12.36 24.19-25.15 35.41-38.61a438.33 438.33 0 0026.82-35.64c4.77-7.41 9.47-14.86 13.87-22.46-.38.05-.73.13-1.11.2a60.8 60.8 0 01-17 .17q-4.56 6.3-9.25 12.46c-1.22 1.51-2.45 3-3.67 4.48-.2.23-.38.46-.58.68 1-7 1.72-13.58 2.15-20.18a63.54 63.54 0 01-12.91-5.91 226.66 226.66 0 01-7 32 221.09 221.09 0 01-7.73 21.8 95.08 95.08 0 01-9.56 10.22c-.69-10.27-1.71-20.57-3.24-30.77a256.17 256.17 0 00-8.08-36.73 181.38 181.38 0 00-18.75-42.43c-.83-1.4-1.72-2.76-2.6-4.11-1.53.17-3.06.3-4.57.42 1 2 2 3.92 3 5.92a175.64 175.64 0 0113.7 42.46 242.55 242.55 0 013.82 32 416.93 416.93 0 01-.57 49.34c-1 .86-2 1.71-2.95 2.58-10.69 9.42-21.67 18.57-32.81 27.56-7.46 6-15 11.91-22.61 17.81 5-.25 10.11-.38 15.23-.31 1.71 0 3.42.06 5.12.11s3.43.12 5.13.26a106.38 106.38 0 0114.55 2.1C3155.83 1782.81 3164.56 1774.38 3173.13 1765.79zM2781.87 1774.49c26.58 32.53 52 66.06 71.87 102.07-17.79-8.36-36.24-15.54-55.47-20.2a186.57 186.57 0 00-46.39-5.49 138.4 138.4 0 00-45.42 7.92 135.48 135.48 0 0145.25-3.21 179.65 179.65 0 0143.83 9.8c22.69 8.06 43.67 19.82 63.95 32.94q3.89 2.52 7.74 5.1c.33.74.64 1.47 1 2.21 3.36-2.2 6.73-4.4 10.06-6.63s6.65-4.48 10-6.74q-4-7.76-8.44-15.31c-.83-1.44-1.72-2.87-2.58-4.31-23.78-39.66-53.36-74.59-83.77-108-17.92-19.65-35.94-39.12-53.1-59.21-1.61-1.91-3.23-3.81-4.85-5.72a62 62 0 01-10.44 3.44c3.1 4.16 6.25 8.3 9.41 12.42C2749.86 1735.61 2766 1755.06 2781.87 1774.49z" class="color956565 svgShape"/><path fill="#956565" d="M3112 1774.23a185.88 185.88 0 0013.16-37 146.12 146.12 0 003-49.17 157.09 157.09 0 00-5.34-26.22 186 186 0 00-7.55-21.08c-1.78-4.1-3.71-8.12-5.76-12.08-3.74 1.6-7.62 3.06-11.62 4.32q2.66 5.63 5 11.43c.17.39.32.79.47 1.18a189.74 189.74 0 017.1 21.71 147.86 147.86 0 014.21 22.27 134.84 134.84 0 01.84 22.54 148.28 148.28 0 01-2.85 22.43c-2.86 14.89-8.13 29.38-14.42 43.52-.73 1.58-1.5 3.18-2.26 4.76-1.2 2.46-2.41 4.92-3.66 7.35q5.84-.64 11.76-1c1.23-2.14 2.49-4.26 3.68-6.46C3109.15 1780 3110.57 1777.12 3112 1774.23zM2955.86 1773.38a226.88 226.88 0 016.49 35.75c.05.47.1.94.16 1.4.35 4.24.59 8.47.75 12.72.21 5.38.26 10.77.12 16.16q10.78-7.14 22-13.49c-.05-6-.35-11.94-.83-17.9a243.55 243.55 0 00-6.62-40.27 277.11 277.11 0 00-26.72-65.73 180.51 180.51 0 0115.75 9.8 112.15 112.15 0 0128.16 27.5 78.15 78.15 0 0110.5 20.7c.23 3 .41 5.92.51 8.89 0 .56.07 1.14.07 1.7a225.2 225.2 0 01-1.51 37.72c-.36 2.7-.79 5.41-1.21 8.12 1.94-1 3.91-1.87 5.88-2.78q5.92-2.72 12-5.17c2-.81 4-1.6 6-2.38a246.77 246.77 0 001.73-27.83c0-2.83 0-5.66-.1-8.49-.95-27.63-6.62-54.78-15.34-80.63-1-3-2.15-6-3.26-9-.3-2.57-.54-5.12-.76-7.7a61.58 61.58 0 01-25.9-3.41c3.5 8.74 6.65 17.63 9.34 26.67q3.49 11.64 6.2 23.44a134.37 134.37 0 00-24.44-19.18 208.17 208.17 0 00-20.06-10.8c-1.54 3.08-3.2 6.11-5 9.09a127.2 127.2 0 01-14.85 19.88c3.13 6.32 6.09 12.71 8.76 19.2A249.91 249.91 0 012955.86 1773.38zM2738.61 1901.59a215.37 215.37 0 01-30.94-20.1c-21.64-17.21-39.81-40.19-47.08-67.5a115.65 115.65 0 0016.19 38.87 156.39 156.39 0 0027.82 32.22 208.93 208.93 0 0021.42 16.5c16.2 11 33.74 19.91 51.38 28 9.4 4.34 18.9 8.4 28.24 12.56q6.62-3.33 13.15-6.87c-12.61-5-25.3-9.45-37.63-14.35A392.33 392.33 0 012738.61 1901.59z" class="color956565 svgShape"/><path fill="#956565" d="M2740.45,1968.22c-16.7-11.75-34-22.2-51-32.65-6.49-4-12.94-8-19.28-12a156.74,156.74,0,0,1-18.16-40.72,153.56,153.56,0,0,1-5.9-44.33c.1-24.06,4.75-48.21,8.39-72.76,1-6.9,2-13.82,2.71-20.78a212.32,212.32,0,0,0,.25-48,223.07,223.07,0,0,0-7.25-36.32,71.09,71.09,0,0,1-2.83-9.44c-.12-.31-.21-.61-.31-.93-.93-2.93-1.94-5.85-2.95-8.75-1.12.32-2.2.62-3.33.89.93,3,1.81,5.95,2.64,8.94a230.51,230.51,0,0,1,8.34,46.13,205.22,205.22,0,0,1-2.12,46.56c-1.06,7.34-2.37,14.66-3.79,22a153.06,153.06,0,0,1-70.68-96.58c4.24,38.14,23.66,75.15,54,101.5a160.68,160.68,0,0,0,13.65,10.62c-3.66,18.51-7.21,37.23-8.1,56.64a165.58,165.58,0,0,0,4,46,175.47,175.47,0,0,0,6.92,22.84c-7.68-5.51-15.08-11.3-22.16-17.47-2.4-2.11-4.78-4.27-7.11-6.46-18.87-17.57-34-38.87-46-61.87-1.87-3.53-3.66-7.12-5.36-10.73-12.54-27.28-21.36-56.32-27.8-85.88-6.62-29.53-11-59.58-15.26-89.62,3,30.19,6.12,60.39,11.52,90.36,5.24,30,12.9,59.7,24.56,88.16,1.67,4,3.44,7.86,5.26,11.75,11.36,24,26.05,46.67,45,65.85,2.2,2.26,4.46,4.47,6.74,6.67a310.8,310.8,0,0,0,28.38,23.91c4.67,3.54,9.4,6.94,14.14,10.33.14.23.27.45.39.69,7.91,5.17,15.57,10.4,23.22,15.53,12.52,8.42,25,16.72,37.08,25.4C2725.69,1972.14,2733.1,1970.31,2740.45,1968.22Z" class="color956565 svgShape"/><path fill="#804f20" d="M3460.37 1736.62c21.77-13.62 42.4-29.45 59.36-48.76 13.67-15.42 24.8-33.37 31.1-52.84-.31.09-.6.16-.9.27-7.23 18.81-19 35.69-33 50-17.55 18.07-38.49 32.54-60.45 44.82-44.3 24.27-92.19 41.61-141 54.7-13.09 3.51-26.29 6.69-39.52 9.65a189.09 189.09 0 0034.16-22.06 148.55 148.55 0 0032.37-37.35 157.67 157.67 0 008.44-16.14 120.56 120.56 0 01-13.18-3.74 140.33 140.33 0 01-7 13 136.25 136.25 0 01-13.07 18.44 153.9 153.9 0 01-16 16.13c-11.38 10.15-24.42 18.5-38 26-9.61 5.11-19.55 9.67-29.67 14-.52.21-1 .44-1.53.65.42-.54.9-1.1 1.4-1.66A245.23 245.23 0 003292 1686.77c-.7-.67-1.36-1.37-2-2.06a236.86 236.86 0 01-74.45 112.8q-7.2 6-14.84 11.39-6.3 1-12.61 2a120.52 120.52 0 0114.13 13.21c1.47 1.59 2.91 3.25 4.31 4.93q16.17-3.52 32.31-7.37c27.24-6.5 54.32-13.8 81-22.39C3368.79 1783.53 3416.55 1763.53 3460.37 1736.62zM2822 2065a198.87 198.87 0 00-23.25-42.19c-9.5-13.09-20.85-24.47-32.71-34.88-8.25-7.08-16.85-13.58-25.59-19.73-7.35 2.09-14.76 3.92-22.24 5.41a353.34 353.34 0 0135.05 28.3c10.6 10.12 20.42 20.86 28.34 32.76a177.67 177.67 0 0119 38.27c4.88 13.46 7.86 27.65 10 42a309.11 309.11 0 013.08 43.68c0 4.91 0 9.85-.12 14.79 7.29-21.57 13.88-43.22 21-64.71C2831.63 2093.92 2827.79 2079.18 2822 2065z" class="color804f20 svgShape"/><path fill="#b67e7e" d="M2909.24 1943.19a298.78 298.78 0 00-21-50.93q-5 3.39-10 6.74c-3.33 2.23-6.7 4.43-10.06 6.63a268.11 268.11 0 0115.34 44.48 210 210 0 015 28.6 131.5 131.5 0 00-28.64-23.59c-13.24-8.15-27.11-14.31-41.06-19.83q-6.54 3.54-13.15 6.87c16.33 7.28 32.22 14.88 46.33 24.77a112.32 112.32 0 0128.16 27.5 82.08 82.08 0 018.17 14.56l-.42.69c12.18-13.42 23.53-27.33 30.35-44.71l-2.77 3.7A239.06 239.06 0 002909.24 1943.19zM3017.69 1851.49a244 244 0 009.7-45.37c-2 .78-4 1.57-6 2.38q-6 2.46-12 5.17c-2 .91-3.94 1.83-5.88 2.78a249 249 0 01-6.47 29 298.56 298.56 0 01-19.39 50.49c-.53.54-1.08 1-1.61 1.59a311.27 311.27 0 008.44-47.53 237.61 237.61 0 00.93-24q-11.22 6.33-22 13.49c-.09 3-.2 6-.41 9-1.27 25.38-6.67 50.58-13.82 75.46-.16.53-.34 1.06-.49 1.59 22.59-21.64 48.92-39.73 67.14-64.41l-2 1.74C3015.12 1859.05 3016.46 1855.29 3017.69 1851.49z" class="colorb67e7e svgShape"/><path fill="#804f20" d="M2812.84,2300.55c-11.36-10.36-18-23.09-22.21-36.7a906.49,906.49,0,0,0-14.21,104.45c-.67,8.62-1.2,17.24-1.65,25.87,8.89,16.59,21.69,30.37,40.81,39,15.3,7.27,29.64,7.32,42.76,2.73q-2.09-32.14-2.1-64.35.15-29.55,2.15-59C2842.56,2316.24,2826,2313.31,2812.84,2300.55Z" class="color804f20 svgShape"/><path fill="#653d12" d="M2815.58,2433.21c-19.12-8.67-31.92-22.45-40.81-39a1152.49,1152.49,0,0,0,.15,118.88c3.69,72,13.47,143.56,27,213.72l109.3-1.3c-11.68-42.81-27.35-108.39-35.37-151.82a1176.27,1176.27,0,0,1-17.5-137.71C2845.22,2440.53,2830.88,2440.48,2815.58,2433.21Z" class="color653d12 svgShape"/><path fill="#804f20" d="M3188.07,1810.92c-7.17,1.14-14.37,2.27-21.58,3.33-17.81,2.7-36.06,5-54.46,8.77,11.65-10.48,23.33-21,34.85-31.81a106.38,106.38,0,0,0-14.55-2.1c-1.7-.14-3.4-.21-5.13-.26s-3.41-.1-5.12-.11c-5.12-.07-10.19.06-15.23.31-1.69,1.3-3.36,2.63-5,3.94.75-1.25,1.43-2.54,2.16-3.79q-5.92.38-11.76,1-4.56,8.83-9.56,17.52c-22.39,17.2-44.92,34.62-66.84,53.29-18.22,24.68-44.55,42.77-67.14,64.41-.26.78-.48,1.56-.74,2.32q-15.55,18-29.69,37.2c-6.82,17.38-18.17,31.29-30.35,44.71-2.82,4.53-5.58,9-8.29,13.63a711.59,711.59,0,0,0-44.22,89.87c-.14-.73-.24-1.47-.38-2.2s-.31-1.52-.46-2.28c-7.1,21.49-13.69,43.14-21,64.71a851.7,851.7,0,0,0-22.92,90.44c4.24,13.61,10.85,26.34,22.21,36.7,13.13,12.76,29.72,15.69,45.55,12.06A751.17,751.17,0,0,1,2873.12,2206a687.38,687.38,0,0,1,53.45-157.85c24.65-50,55.65-97.11,94-138.33,6.43-7,13.07-13.77,19.85-20.53q6.93-6.84,13.93-13.56c12.22-9.62,27.18-16.82,43.2-22.16,22.9-7.69,47.7-12,72.89-17q18-3.6,36.07-7.49c-1.4-1.68-2.84-3.34-4.31-4.93A120.52,120.52,0,0,0,3188.07,1810.92Z" class="color804f20 svgShape"/><path fill="#e7e6f3" d="M2424.47,1515.34c2.68,17.23,19.37,30.77,44.68,39.13a46,46,0,0,0-7.45,33.29c3.79,24.4,25.48,41.35,48.43,37.84a40.16,40.16,0,0,0,21.94-11c17.46,23.65,55,36.65,95.77,30.42a131.43,131.43,0,0,0,12.9-2.65c1.13-.27,2.21-.57,3.33-.89l1.71-.48c.13,1.68.27,3.34.53,5s.61,3.44,1,5.13a71.09,71.09,0,0,0,2.83,9.44c11.05,29.3,40,48,70.38,43.42,1.51-.23,3-.54,4.49-.88a62,62,0,0,0,10.44-3.44,60.14,60.14,0,0,0,7.35-3.82c.27-.16.54-.3.79-.46a130.23,130.23,0,0,0,37,39.43c39.07,27,86.76,28,124.62,6.85a119.52,119.52,0,0,0,29.72-23.55,127.2,127.2,0,0,0,14.85-19.88c1.81-3,3.47-6,5-9.09a131,131,0,0,0,9.53-25.29q.66-2.52,1.23-5.07c1.06.85,2.09,1.7,3.21,2.48a65.64,65.64,0,0,0,15,7.75,61.58,61.58,0,0,0,25.9,3.41c19.08-1.6,37.15-12.15,48.19-30.41.56-.93,1-1.89,1.54-2.83l2.38-.08a132.68,132.68,0,0,0,36-6.13c4-1.26,7.88-2.72,11.62-4.32a109.74,109.74,0,0,0,27.74-16.92c2.66,0,5.37-.18,8.1-.38,1.51-.12,3-.25,4.57-.42,1.86-.2,3.71-.44,5.6-.73a133.76,133.76,0,0,0,17.93-4c.12,1.68.27,3.33.53,5a70.13,70.13,0,0,0,32.93,49.7,63.54,63.54,0,0,0,12.91,5.91,61.58,61.58,0,0,0,11.35,2.56,60.8,60.8,0,0,0,17-.17c.38-.07.73-.15,1.11-.2a60.88,60.88,0,0,0,22-8.4,132.07,132.07,0,0,0,18.78,24c.68.69,1.34,1.39,2,2.06a126.83,126.83,0,0,0,16.19,13.33,123.35,123.35,0,0,0,29.59,15.1,120.56,120.56,0,0,0,13.18,3.74c47.94,10.66,98.73-9.68,126.41-55.4a131.29,131.29,0,0,0,15.77-39.46c1.06.84,2.09,1.7,3.21,2.48a61.89,61.89,0,0,0,53.57,8.73c.3-.11.59-.18.9-.27a63,63,0,0,0,34.61-27.71c.58-.93,1-1.91,1.54-2.84a136,136,0,0,0,18.32-1.52c52.45-8,90.25-44.83,84.45-82.24a51.87,51.87,0,0,0-10.74-24.15c22.12-7.47,36.75-24.66,34-42.11-3.16-20.33-28.58-33.32-57-29.32-5.74-37-38.06-62.64-72.63-58.29,0-.33-.06-.65-.11-1-5.8-37.42-39-63.37-74.23-58a61.93,61.93,0,0,0-40,24.12c-13.52-22.52-38.61-35.9-64.81-31.91-22.68,3.47-40.57,19.14-48.91,39.83-8.21-34.28-39.75-57.35-73.08-52.24-19.26,2.93-35.05,14.66-44.5,30.81-15-48.21-61-79.79-109.43-72.4-49.41,7.56-84.1,53.06-82.3,104.77a39.77,39.77,0,0,0-21.41-2.64,37.79,37.79,0,0,0-4.85,1.08,61.19,61.19,0,0,0-78.29,17.48c-13.52-22.52-38.61-35.91-64.81-31.91-22.69,3.47-40.59,19.16-48.93,39.87-8.14-34.29-39.7-57.39-73.06-52.29-19.26,2.93-35,14.68-44.5,30.81-15-48.21-61-79.79-109.43-72.39-49.43,7.56-84.1,53.06-82.31,104.77A40,40,0,0,0,2497,1383c-23,3.5-38.5,26.14-34.72,50.54a46.62,46.62,0,0,0,8.92,21.07c-21.28,11.84-36.59,25.74-43.32,40a37.24,37.24,0,0,0-3.8,15.47A32.28,32.28,0,0,0,2424.47,1515.34Zm267.09,6.26c-.21,2.2-.35,4.39-.41,6.6q-2.16-1.74-4.5-3.34C2688.34,1523.79,2690,1522.71,2691.56,1521.6Zm527.6-34.78q-.35,3.3-.43,6.61c-1.44-1.15-2.93-2.28-4.49-3.35C3215.92,1489,3217.57,1487.93,3219.16,1486.82Z" class="colore7e6f3 svgShape"/><path fill="#804f20" d="M1483.94,1667.74l-1.25-1.21-2.27-1.17-2-.45-.51.55-106,193.87,9.21-71.86-1-1-3.15-.53-2.16.51-16.58,97.91-16.87,30.84-73.25,316.63L1167,2358.69l32,148.75-34,68.16-29.68-99.25-41.76-205.13,8.08-143.15a6.7,6.7,0,0,0,.74-3.12c.14-5.1-.09-10.2.42-15.28a5,5,0,0,0,0-1.45l2.61-46.35L1083,1955.74q1.59-3.95,3.2-7.89a12.23,12.23,0,0,0,.85-2.84l6.73-16.71-9.17-85.1,39.16-78.68,0-.49-.55-.38-.71,0-.46.32-44.07,77.86,4.63,84.38-4.06,8.27-22.32-105.73-.51-.51-1.52-.14-1.63.33-.78.6,19.45,120.36L1048.79,1995l-73.85-195.24L877.61,1693l-.8,0-1.67,1-1.57,1.47-.54,1.06,85.88,111.69,76.57,222.46-28.22,129.62-23.18-78.9-48-108.16-.89-.37-1.13.23-.7.71.15.76,40.87,110.55,25.81,107.59L990,2239.5l-9,1-34.37-72.08-29-94.73-37.3-49.12-3-.59-34-1.06-2.1,1.57-.55,2.67,1.32,2.2,2.42.44.52.06-.41.66q10,1.15,20.07,2.25c3.08.27,6.29.37,9.22,1.54a62.24,62.24,0,0,1,4.07,6.31l.58-.44,26,40.32,24,95.29,39.52,81.82,5.49,1.11.51.09c-.08.12-.17.22-.24.33,7,2.36,14.58,2.58,21.75,4.51,1.89,4.65,4.17,9.15,6,13.82.69,1.51,1.21,3.34,2.65,4.27l73.43,166.49,38.82,219.62,1.18,32.63,16.18,8.16,32,2.51,28.89-5,7.61-9.49-11.84-36.87.19.13c-.7-5.48-3.12-10.58-3.84-16.05-.43-3,1.11-5.74,2.14-8.43q20.28-54.95,40.72-109.82c1.37-4.47,3.58-8.66,4.67-13.2l1.43-3.84-17.34-69c-.17-1.17-.37-2.34-.5-3.51-.87-7.1-1.79-14.19-2.65-21.28-.21-1-.3-2.08-.55-3.08l.2-1.25,7.47,7.62,2.3.55,2-1.39-.25-1.93-10.8-20.66L1210,2393l-2.88,2.27-8.41-33.5,90.33-120.63a2.37,2.37,0,0,0,1.14-1.51l.38-.51.24-1.11c2.41-7.48,2.89-15.45,5.53-22.86q27.15-10.77,54.34-21.56c4.11-1.69,8.35-3.08,12.34-5.09-.06-.1-.14-.17-.2-.26l.81-.33,36.72-49.94.59-1.36-1.87-2-2.45-.66-38.25,44.87-58.65,18,.18-.87a82.09,82.09,0,0,0,2.37-9.91c10.13-47.22,20.49-94.4,30.65-141.62,2.28-9.94,4-20,7-29.81,2.58-10.08,5-20.2,7.68-30.26a5,5,0,0,0,.15-2.11l17-67.18.92-7.2,83.77-170.06h.49l.43-.7-.31-.55ZM1031.13,2233.5c1.19-4.25,1.42-8.68,2.16-13l25.56-177.5c.62-4.89,1.6-9.73,1.92-14.66l.17-1.2-1.12-3c-.4-1.33-1-2.63-1.38-4-.77-3.23,1-6.24,2.21-9.13q7.35-18.12,14.64-36.28l14.23,88.07-5,46.57-.39-.3c-1.3,7.38-1.77,14.88-2.71,22.31-3.82,36.91-8,73.78-11.82,110.69-.41,3.37-1.2,6.75-.59,10.16l.14-.06-2.22,20.64,8.19,59.82-32.95-70.08L1031,2234.29Zm45.69,121.18.07.27-58-134.07Zm-62.67-110.23-.32-.14.33.14-.79-2.61.8,2.63,1.17,3.87Zm-15.58-5.87.17.05-.2-.05Zm-120-199v0L908,2080.29Z" class="color804f20 svgShape"/><path fill="#999248" d="M1807.47,2631.17c-37.75-32.34-88-85.32-112.91-162.11-32.69-100.72,6.87-153.91-5-326.2-7.5-108.94-13.85-184.89-71-223.32-44.76-30.11-115.34-33.58-156.79-2.27-34.47,26-52.82,79.14-57.54,116.71-3.84,30.62,1.18,52.53-15.83,69.27-17.38,17.11-37.26,8.64-53.64,21.46-33.23,26-10,106.63-6.26,119.66,41.74,145,181.87,238.19,243.49,278.11C1623,2555.49,1701.47,2599.05,1807.47,2631.17Z" class="color999248 svgShape"/><g style="mix-blend-mode:soft-light" clip-path="url(#a)" opacity=".5" fill="#000000" class="color000 svgShape"><path fill="#ffffff" d="M1850,2656.91l1.21-3.61c-112.64-37.27-254.61-108.14-291.32-234.14-13.5-46.34-11.42-95-8.53-162.44,2.3-53.81,8.82-91.75,14.58-125.22,7.53-43.79,13.48-78.38,6.28-127.94-7.32-50.29-26.19-99.8-56.09-147.16l-3.25,2c29.62,46.91,48.3,95.92,55.54,145.68,7.12,49,1.21,83.3-6.26,126.76-5.78,33.58-12.33,71.65-14.64,125.7-2.79,65.21-5,116.72,8.68,163.65,17.49,60,60.58,113.39,128.08,158.6C1729.85,2609.33,1785.6,2635.61,1850,2656.91Z" class="colorfff svgShape"/><path fill="#ffffff" d="M1551,2219.33l2-.94c.35-.17,35.76-17.5,70.26-55.75,31.85-35.31,69.47-96.19,67.88-185.77l-3.83.07c1.56,88.34-35.52,148.36-66.9,183.16-29.43,32.62-59.4,49.74-67.16,53.87-33.63-95.71-88.65-154.37-129-186.79-44.11-35.42-80.85-48.07-81.22-48.19l-1.23,3.6c.36.12,36.58,12.62,80.18,47.67,40.23,32.33,95.15,91,128.39,187Z" class="colorfff svgShape"/><path fill="#ffffff" d="M1549.32,2364.86l.74-1.18c.33-.52,33.76-53.37,77.73-99.84,43.66-46.15,149.7-65.92,150.76-66.11l-.69-3.75c-4.4.8-108.34,20.19-152.87,67.26-40.57,42.88-72.21,91.14-77.43,99.25-113.22-29.73-243.36-284.44-244.67-287l-3.43,1.71a1302.84,1302.84,0,0,0,80.37,133.67c63.12,91.32,119.68,143.69,168.14,155.67Z" class="colorfff svgShape"/><path fill="#ffffff" d="M1667.22,2566.47l-2-3.21c-30.6-48-28.59-99.88,6-154.1,25.9-40.64,61.39-67.4,61.75-67.66l-2.31-3.05c-.36.27-36.34,27.39-62.63,68.59-34.18,53.59-36.94,107.1-8,155-13.44-1.38-61.18-7.23-121.24-25.3-65.3-19.64-158.94-58.16-234.24-130.12l-146.34-139.87-2.66,2.75,146.34,139.86c75.87,72.52,170.15,111.29,235.89,131.06,71.2,21.4,125.22,25.74,125.76,25.78Z" class="colorfff svgShape"/></g><path fill="#c49b30" d="M1882.82,2765.75c-102.36,24.27-236.25,40.7-374.55,13.33-35.3-7-253.35-50.13-250.88-144.65.87-33.3,28.36-44.85,30.31-89.34,2.3-52.73-34.83-70.26-71-127-21.57-33.85-84.71-132.91-33.56-207.57,30.56-44.61,100.56-78.49,159.89-78.4,87,.12,134,73.3,211.43,198.49,68.6,111,65.1,142.89,115.91,222C1708.09,2611.24,1771.53,2689.37,1882.82,2765.75Z" class="colorc49b30 svgShape"/><g style="mix-blend-mode:soft-light" clip-path="url(#b)" opacity=".5" fill="#000000" class="color000 svgShape"><path fill="#ffffff" d="M2009.84,2777.92c107.78,0,215.16-27.79,319.31-82.63l-1.8-3.37c-105.35,55.49-214,83.14-323,82.17-389.9-3.43-621.15-388.47-682.73-506.4-35-67-49.85-146.55-44.24-236.6l-3.83-.23c-5.65,90.74,9.38,171,44.66,238.58,50.65,97,139,235.78,272.48,346.3,128.38,106.31,267.54,160.87,413.62,162.16Z" class="colorfff svgShape"/><path fill="#ffffff" d="M1439.12,2456l.75-1.54c.21-.42,20.65-42.57,31.2-102.17,9.74-55.07,12.81-136.76-27.89-213.25l-3.39,1.78c40.17,75.5,37.14,156.25,27.52,210.7-9.31,52.72-26.43,91.64-30.16,99.73-250.53-90.31-285.91-251.4-290.78-298.7a21.16,21.16,0,0,0-.29-2.32l-3.73.9,1.86-.45-1.87.43c.06.26.11.88.21,1.82,4.94,48,40.81,211.55,295,302.49Z" class="colorfff svgShape"/><path fill="#ffffff" d="M1407,2651.73c50.06,0,111.39-9.5,183.42-37.53l.95-.37.22-1c.3-1.38,29.7-139.56-22.79-306.18l-53-168.07-3.66,1.14,53,168.07c49.85,158.25,25.45,290.53,22.9,303.24-128.11,49.62-221.88,40.16-278,23.45-61-18.14-92-48.5-92.28-48.81l-2.72,2.69c.31.31,31.84,31.25,93.66,49.69C1334,2645.62,1366.87,2651.73,1407,2651.73Z" class="colorfff svgShape"/></g><ellipse cx="2299.04" cy="2739" fill="#e7e6f3" rx="1276.95" ry="168.23" class="colore7e6f3 svgShape"/><path fill="#f79838" d="M1022.09,2739c0,88.15,514.57,160.45,1169.54,167.64,39.62-19.73-102.85-33.28-163.38-55-74.52-26.69,14.49-32.85,72.44-76s-120-47.23-159.38-65.71,168.61-3.46,189.37-6.12,32.11-2.09,54.88-34.94c21.7-31.31-152.11-88.72-168.5-94.05C1447.5,2591.8,1022.09,2658.86,1022.09,2739Z" class="colorf79838 svgShape"/><path fill="#72c8ea" d="M2026.33,2685.52c-119.69,1-161.93,49.61-67,57.67s134.22,43.28,70.68,60-39,77.05,250.22,83.41c284.5,6.26,111.78-57.35,229.63-66.62s325.77-18.28,290.15-72.22-172-46.39-91.64-62.21,102.12-35.27-94.71-45-677.3-16.62-556,9.33S2125.39,2684.65,2026.33,2685.52Z" class="color72c8ea svgShape"/><path fill="#5bbeb1" d="M2800.05,2747.73c-35.61-53.93-172-46.39-91.64-62.21s102.12-35.27-94.71-45-677.3-16.62-556,9.33,67.74,34.81-31.32,35.68c-119.69,1-161.93,49.61-67,57.67s134.22,43.28,70.68,60-39,77.05,250.22,83.41c284.5,6.26,111.78-57.35,229.63-66.62S2835.67,2801.67,2800.05,2747.73Zm-228.11,38.74c-134.94,11.7-316.7,7-230.17,18.08s217.59,52.83-42.09,50-279.89-37.53-211.18-48.65,135.91-33.37,11-49-170.81-46.29-64.25-55.22c99.52-8.35,200.41-16.69,110.3-43.2s-20.61-18,234.54-12.41,386.76,18.07,326.5,29.19-106.54,30.58-35.07,45.88S2822.25,2764.79,2571.94,2786.47Z" class="color5bbeb1 svgShape"/><path fill="#416883" d="M2135.41 2703.76s-1.67.41-4.61 1.06-7.11 1.61-12.05 2.89c-2.47.64-5.11 1.42-7.88 2.26a73.09 73.09 0 00-8.32 3.23 21.07 21.07 0 00-3.75 2.29 5.15 5.15 0 00-2 2.62c-.47 1.32 1.89 3.76 4.54 5.33a57.72 57.72 0 008.73 4.34c3.07 1.18 6.1 2.39 9.12 3.38 6 2 11.73 3.75 16.65 5.21l11.91 3.53c2.88.86 4.52 1.39 4.52 1.39s-1.72-.14-4.71-.46-7.27-.88-12.36-1.79c-2.55-.43-5.3-1-8.2-1.61s-5.95-1.34-9.07-2.27-6.36-1.86-9.58-3.1a61.54 61.54 0 01-9.61-4.61 20.28 20.28 0 01-4.43-3.72 6 6 0 01-1-1.29 6.36 6.36 0 01-.78-1.54 6.6 6.6 0 01-.29-3.77 8.84 8.84 0 013.86-5.15 24.23 24.23 0 014.69-2.58 56.74 56.74 0 019.14-2.85c2.93-.67 5.72-1.15 8.29-1.51s4.94-.61 7-.8 3.93-.27 5.44-.36C2133.69 2703.78 2135.41 2703.76 2135.41 2703.76zM2330.22 2791.34l14.76-.57 16.94-.71 22-1 26-1.33c9.21-.52 18.92-1.07 29-1.74s20.39-1.47 30.91-2.25l15.88-1.37 16-1.64c10.65-1.16 21.29-2.41 31.68-4 5.22-.7 10.32-1.74 15.4-2.62 2.55-.46 5-.88 7.52-1.45s5-1.08 7.38-1.68a184.43 184.43 0 0027.35-8.56 80.39 80.39 0 0011.74-5.88 32.24 32.24 0 009-7.72 12.39 12.39 0 002.18-4.76 8.51 8.51 0 00-.59-4.79c-1.31-3-4-5.24-6.63-7a58.45 58.45 0 00-15.35-6.48c-4.51-1.22-8.11-2.05-10.58-2.51l-3.8-.71 3.84.45c2.5.32 6.17.84 10.78 1.87a59.72 59.72 0 0116.05 5.87c2.83 1.72 6 3.89 7.79 7.54a10.49 10.49 0 011 6.12 14.8 14.8 0 01-2.42 5.94 35 35 0 01-9.55 8.84 81 81 0 01-12.06 6.47 172.28 172.28 0 01-27.76 9.37c-2.48.66-5 1.25-7.44 1.81s-5.07 1.1-7.61 1.6c-5.11 1-10.28 2.1-15.54 2.81-10.49 1.7-21.18 3-31.88 4.23L2486 2787l-15.94 1.29c-10.57.76-21 1.37-31 1.84s-19.82.82-29.05 1.11-18 .42-26 .51c-16.13.2-29.56 0-39-.08S2330.22 2791.34 2330.22 2791.34zM2174.66 2808l-3.09.93c-2 .62-4.92 1.6-8.5 3.1a33.73 33.73 0 00-5.62 3 11.64 11.64 0 00-2.56 2.29 3.33 3.33 0 00-.8 3c.59 2.07 3.21 3.69 5.77 4.95a58.53 58.53 0 008.83 3.24 178.17 178.17 0 0021 4.41c7.55 1.2 15.58 2.1 23.9 2.92s16.94 1.37 25.71 1.89 17.69.85 26.62 1 17.86.37 26.66.39 17.45 0 25.81-.2 16.44-.52 24-1.38c3.7-.45 7.5-1 10.4-2.2a3.68 3.68 0 001.26-.83s0 .07 0-.07a2.07 2.07 0 00-.47-.61 15.61 15.61 0 00-3.9-2.48 129.66 129.66 0 00-17-6.13c-5.21-1.56-9.81-2.77-13.6-3.75l-11.93-3 3.17.52c2.08.35 5.12.82 9 1.58s8.52 1.69 13.85 2.94a111.86 111.86 0 0117.72 5.36 18 18 0 014.82 2.84 5.11 5.11 0 011.14 1.44 3.21 3.21 0 01.15 2.49 5.41 5.41 0 01-2.73 2.57c-3.73 1.74-7.47 2.23-11.35 2.87a242.94 242.94 0 01-24.3 2.05c-8.42.35-17.12.6-25.95.61s-17.81 0-26.79-.23-18-.66-26.78-1.22-17.5-1.36-25.88-2.31-16.45-2.16-24.06-3.59a158.07 158.07 0 01-21.22-5.31 56.61 56.61 0 01-9.07-3.81 22.6 22.6 0 01-3.86-2.66 7.31 7.31 0 01-2.58-4 5 5 0 011.35-4.3 13.15 13.15 0 013-2.42 35.57 35.57 0 016-2.73 70.85 70.85 0 018.79-2.48z" opacity=".5" class="color416883 svgShape"/><path fill="#f9a239" d="M1825.21,399.93c43.28.4,83.22-20.95,124.11-35s90.56-19.6,123.75,8c35.63,29.57,36.3,82.35,39.12,128.35S2130.65,602,2175.53,614c27.23,7.24,56.17-5,78.51-22s40.57-39,63.12-55.76c53.3-39.7,129.91-45.78,188.9-15-37.87,18.28-76.31,37-107.51,65s-54.73,67.37-54,109.14c1.07,61.18,51.22,109.33,99.64,147.23s102.35,78.17,116.68,137.68c16.09,66.84-26.18,136.8-84,174.59s-128.34,50.34-196.74,61.28q-291.3,46.62-585.19,75c-35.61,3.43-72.09,6.6-106.74-2.26-54.33-13.9-99.3-59-112.69-113.07-12.18-49.15.4-100.47,7.9-150.53s8.47-105.69-22.28-146.08c-40.69-53.44-133.89-54.09-175.34-1.22,35.8-86.53,150.46-130.67,235.74-90.76a162.44,162.44,0,0,1,61.78-97.95c-2.68,33.94-4.69,70.66,14,99.23s66.78,39.43,86.39,11.5c13-18.58,7.4-44.78-5-63.78s-30.53-33.62-44.41-51.61c-44.78-58-34.09-150.6,22.77-197.09-8.84,33.14-8.08,69.66,7.22,100.4s46.47,54.5,81,56.31,70.12-21.42,77.74-54.86c9.95-43.69-21-93.35-62.88-110-180.1-71.82-84-218-84-218s39.81,74.13,56.3,92.78C1755.92,380.74,1788.7,399.59,1825.21,399.93Z" class="colorf9a239 svgShape"/><path fill="#ffd649" d="M2304.16,1177.64c53.32-9.24,108.86-21.84,153.81-51.21,42.81-28,82.82-83.16,69.55-138.28-11-45.8-55.81-80.8-99.12-114.63l-5.45-4.24c-51.76-40.53-111.33-96.83-112.69-173.38-.82-47.71,23-96.88,65.25-134.93a297.28,297.28,0,0,1,31.26-24.31c-2.88.33-5.75.76-8.63,1.26-22.37,3.88-43.26,12.66-60.4,25.45-9.92,7.35-19.33,16.37-29.31,25.89-10.37,9.92-21.11,20.18-33.45,29.6-14.28,10.91-37,24.9-64.18,29.61a102.48,102.48,0,0,1-44.14-1.65c-51.63-13.71-83.95-66-88.7-143.54l-.53-9.18c-2.18-37.83-4.42-77-26.35-95.15-16.65-13.83-42.34-12.89-61-9.65a190,190,0,0,0-29.55,7.75c-9.74,3.34-19.41,7.14-29.11,10.92-23.42,9.15-47.65,18.64-74,23.22a176.48,176.48,0,0,1-32.53,2.74c-43.87-.38-85.89-20.78-118.33-57.44-5.94-6.73-13.76-18.29-21.81-31.22a87.44,87.44,0,0,0,4,29.24c9.77,30.21,38,54.81,84.06,73.17,59.4,23.69,96.87,90.57,83.54,149.09-9.14,40.16-44.72,72.26-88.54,79.86a110.08,110.08,0,0,1-24.45,1.48c-39.79-2.08-78-25.19-101.27-60.27,2.68,16.73,9,32.69,19.33,46a253.4,253.4,0,0,0,17.2,19.31c9.37,9.87,20,21.08,28.75,34.47,22.2,34,23.93,73.88,4.4,101.71-11,15.7-27.9,26.22-47.55,29.59-35.57,6.17-75.84-11.5-95.78-42a116.9,116.9,0,0,1-11.21-22.06c-.81,2.9-1.5,5.85-2.08,8.82l-8.41,42.94-39.89-18.68c-23.6-11-51.11-14.3-79.53-9.38-3.58.63-7.1,1.37-10.59,2.21,28.76,8.33,54.18,24.83,71.72,47.89,40.84,53.62,36,123.58,28.84,171.56-1.29,8.49-2.71,17.06-4.12,25.63-6.62,39.9-12.88,77.57-4.41,111.81,10.4,42,45.75,77.41,88,88.2,29.85,7.64,64.4,4.31,94.86,1.36,194.51-18.76,390.67-43.87,583.07-74.67C2284.45,1181,2294.31,1179.35,2304.16,1177.64Z" class="colorffd649 svgShape"/><path fill="#f05729" d="M1877.26,1280.13c-31-6.78-62.24-15.5-89.53-32.77s-50.48-44.23-57.69-76.68c-10.84-48.85,15.64-96.93,44-136.4s61-79.85,65-129.52c4.85-60.65-42.36-121.82-100-129.64a101,101,0,0,1,86.46-8.78c28.48,10.29,52.55,34,64.21,63.19,7.28,18.24,9.88,38.25,18,56.12s24.44,34.22,43,32.75c19.83-1.58,33.32-23.27,34.33-44.16s-7.15-41.1-14.53-60.71c-16.28-43.35-29.61-88.75-29.9-135s13.82-93.9,45.66-125.18c-12.29,36.48,14.27,82.16,51,87.81s73.1-30.37,69.83-69.23c6.41,30.53,13,61.64,28.11,88.76s40.34,50.08,69.85,53.46,61.41-18.25,63.71-49.24c-13.52,25.55,3.4,59.35,27.2,75.5s52.67,20.61,79.4,30.18c72.63,26,130.79,94.31,147.25,172.91s-9.36,164.57-65.41,217.67c-37.59,35.61-86,56-134.16,72.84-76.92,26.88-155,40.57-234,58.67C2020.84,1308.29,1945.73,1295.1,1877.26,1280.13Z" class="colorf05729 svgShape"/><path fill="#e4384d" d="M2081.05,1257.36c19-4.34,38-8.45,56.87-12.55,60.17-13,117-25.31,173.64-45.14,43.7-15.25,88.77-33.79,122.33-65.57,46.72-44.28,68.89-118,55.15-183.55s-63.63-124.13-124.18-145.83c-7.47-2.68-15.14-4.9-22.8-7.16-20.26-5.92-43.26-12.65-64.34-27a112.22,112.22,0,0,1-28.44-28.06,92.28,92.28,0,0,1-22,6.77A88.38,88.38,0,0,1,2202,750c-37.81-4.31-73.86-31.09-96.4-71.61-3.11-5.59-5.9-11.31-8.44-17a93.56,93.56,0,0,1-37,15.2,84.38,84.38,0,0,1-27.23.31c-20.91-3.22-40.23-14.22-55.3-31a178.93,178.93,0,0,0-2.79,33.12c.27,44,14.81,88.23,27.46,121.86,9.23,24.51,18.25,48.4,16.92,76-1.62,33.35-22.65,70.45-59.73,76.84l-5.6.72c-31,2.44-61.35-18.65-77.29-53.72q-1.62-3.6-3-7.19a145.82,145.82,0,0,1-.43,15.06c-4.44,55.39-36,98.76-63.76,137l-7.86,10.87c-32.21,44.85-44.31,78.79-38.09,106.76,4.43,20,19.56,39.46,41.51,53.37,23.43,14.79,51.64,22.35,78.61,28.25,58.16,12.72,125.31,25.39,185.66,14.92C2069.28,1259.72,2077.16,1258.25,2081.05,1257.36Z" class="colore4384d svgShape"/><path fill="#e74724" d="M2534.55,1090.6c26.81-5.06,44.61-32.43,47.44-59.35s-5.93-53.56-14.57-79.23c50.39,28.45,81.48,87.42,76.3,144.71s-46.38,109.81-101.08,128.9c-63.09,22-132.08,1.09-198.86-2.73a385.44,385.44,0,0,0-174,30.76c-35.39,15.28-69.48,36.2-107.87,40.19s-83.45-16.71-89.19-54.58c-3.62-23.91,9.18-47.23,24.13-66.33s32.76-36.65,42-59c11.49-27.74,7.7-61.2-9.71-85.71s-47.91-39.31-78.11-37.9c39.81-21.44,92.27-17.11,128,10.56,26.36,20.42,48.09,53.79,81.53,53.71,27.16-.07,49.49-25.28,53.22-52s-7.36-53.45-22.69-75.69c-44.08-64-126.69-99.44-203.88-87.54,62.81-17.46,128-34.09,192.56-25.2s129.12,49.55,146,112c6.56,24.23,5.67,49.91,11.49,74.33s21.2,49.38,45.84,55c29.81,6.85,59.62-19.62,65.3-49.46s-6.89-60.25-23.6-85.68c2.21,3.35,21.28,8.29,26.09,11.59a85.64,85.64,0,0,1,23.54,24.88c11.36,18,15.28,36.85,10.57,57.32C2477,1049.14,2481.11,1100.68,2534.55,1090.6Z" class="colore74724 svgShape"/><path fill="#ffc015" d="M1496.46 449.29a164.8 164.8 0 01-55.33-86.5c1.57 49.36 4.63 102.78 36.61 140.61 14.41 17.05 33.85 32.76 51.76 46.09s18.66 24.61 30.6.79C1582.89 504.8 1523.82 471.57 1496.46 449.29zM1520.68 269a101.11 101.11 0 01-28.57-56.2c-2 30.27-3.43 63.12 13.83 88.17 7.77 11.29 18.7 22.06 28.84 31.28s9.92 16.17 18.67 2.31C1570.15 308.09 1536.05 284.23 1520.68 269zM2487.81 819.44c-24.54-24.73-27.2-64.77-15.73-97.55s34.61-60 57.27-86.47c-10.29 18.5-20.68 37.23-26.21 57.63s-5.79 43 3.72 61.9c9.6 19.07 27.91 32.42 39.29 50.5 19.47 30.92 14.77 78.57-13.94 102.63C2544.57 857.34 2520.29 852.17 2487.81 819.44z" class="colorffc015 svgShape"/><path fill="#f05729" d="M1705.28 1043a140.49 140.49 0 00-1.71 109c10.11 24.76 27.66 47.9 27.45 74.62L1661.4 1152c-16.15-17.29-33.12-36.33-35.53-59.78-3.09-30 18.85-57 42.92-75.45s52.11-32.95 70.45-57 22.62-62.91-1.17-81.73c22.16 17.53 49.22 53.33 36.76 83.2C1761.47 993.29 1720.56 1008.66 1705.28 1043zM1605.52 1121.79c-11.46-14.64-30.48-26.31-48.29-20.68 16.37 4.15 27.56 19.47 33.33 35.23s7.52 32.71 13 48.58c4.79 13.94 13.91 29.49 28.39 35.27 11.8 4.7 39.25 3.3 40.62-13.75 1.14-14.21-24-24.79-32-32.7C1625.39 1158.92 1618.42 1138.27 1605.52 1121.79z" class="colorf05729 svgShape"/><path fill="#5bbeb1" d="M2938.36,1969.64s-63.18,83.26-192.29,156.72-170.33,98-173.07,176.32,0,117.55-33,139.59-65.92-17.14-52.19-93.06-5.49-97.95-52.19-97.95-52.2,41.63-35.71,159.17,67,362.33-43.42,362.33-52.73-254.58-36.26-352.53,0-154.28-63.18-171.42-80.28,87.9-153.83-4.9c-36.4-45.92-54.94-31.83-118.12-46.52s-22-34.29-79.68-73.47-137.1-106.73-195-183.05c0,0,225.25,266.31,634.58,266.31S2938.36,1969.64,2938.36,1969.64Z" class="color5bbeb1 svgShape"/><path fill="#72c8ea" d="M2524.6 2419c19.79-39.29 11-87.64 19.68-129.14 7.86-37.44 31.08-65.42 61.51-91 1.12-.93 2.94.56 2 1.62-13.62 15.14-27.29 30.46-37 47.93-11.44 20.58-12.11 45.32-12.8 67.86-.71 23.53.93 46.94-3.65 70.25-2.44 12.46-9.89 31.84-24.29 36.9C2527.09 2424.5 2523.09 2422 2524.6 2419zM2354.67 2734.58c31.15-9.24 33.07-52.3 35.21-76.38 3.47-39-1.94-78.23-8.32-116.81-11.52-69.64-23.11-140-6.27-209.52.16-.63 1.35-.39 1.25.25-12.62 84.3 22.55 167.35 35.47 249.85 6.1 39 6.9 78.51-2.17 117.13-5.68 24.17-20.29 51.64-53 46.42C2351.23 2744.63 2347.89 2736.6 2354.67 2734.58zM2148.94 2260.64c33.73-5.82 61.11-40.63 97.59-30.67a1.15 1.15 0 01-.53 2.23c-28.21-1.84-38.22 15.3-57.79 28.91-12.68 8.82-26.88 12.82-40 2.53A1.63 1.63 0 012148.94 2260.64z" class="color72c8ea svgShape"/><path fill="#01bae8" d="M1952.36,2151.72c12.82,21.45,41.22,23,64.54,27.63,21.75,4.33,44.14,9.8,61.39,22.7,2,1.46-.08,4.15-2.28,2.91-24.84-13.94-53.35-10.35-80.65-15.45a68.9,68.9,0,0,1-26.85-11.51c-11.27-7.73-13.17-14.13-17.92-25.56C1950.17,2151.4,1951.76,2150.73,1952.36,2151.72Z" class="color01bae8 svgShape"/><path fill="#cde2ef" d="M2295.46 2655.2c2.79-33.22 8.1-67.75 19.9-99.31.29-.8 1.74-.53 1.62.31-3.9 27.77-7.46 56.82-5.06 84.79 1.35 15.86 3.5 31.78 6.38 47.47 2.38 13 8.88 23.17 14.42 35 2.41 5.13-3.12 11.72-9.52 9.29C2294.61 2721.9 2293.55 2678 2295.46 2655.2zM2336.14 2737.48c1.85-1.69 4.45-2.13 6.91-2.56 6-1 11.87 2.79 12.92 8a9.14 9.14 0 01-1.85 7.42c-2.06 2.62-6.31 4.84-10 4.2l-1.7-.28a13.27 13.27 0 01-7.64-3.65 8.4 8.4 0 01-2.37-6.72C2332.62 2741.22 2334.09 2739.37 2336.14 2737.48zM2506.56 2323.46c.06-.6 1-.5 1 .08.47 15.34-2.07 30.17-3.78 45.38-2.17 19.37 1.53 31.6 11.65 48.33 2.41 4-3.26 7.1-7 5.19C2474.58 2404.92 2504.07 2348.59 2506.56 2323.46zM2525.31 2419.73c6.08 0 5.25 8.35-.77 8.35S2519.3 2419.73 2525.31 2419.73zM2112.65 2222.45c3.86 4.42 6 10 9.76 14.65a43.93 43.93 0 0015.83 12.54 1.72 1.72 0 01-.81 3.33c-7.82-.42-13.31-4.25-18.35-9.33-4.88-4.94-10.79-12.28-12.2-18.81C2106.27 2222 2110.62 2220.14 2112.65 2222.45z" class="colorcde2ef svgShape"/><path fill="#5bbeb1" d="M1550,1540.73c47.77,433.29,440.63,746.24,877.44,698.85s752.35-437.08,704.6-870.38S2691.49,623,2254.63,670.35,1502.27,1107.37,1550,1540.73Z" class="color5bbeb1 svgShape"/><path fill="#6c9a5e" d="M1990.7,2111.66c-3.26-29.54,24-108.38,32.51-153.92s10.36-109.61,7.88-133.15c-2.67-23.48,31.52-80.71,113.35-31.6s129.11,29.11,148.75,3.17,11.94-28.59,19.65-25.88c24.8,8.55,33.74,33.11,104.77,12.43s59.88-53.29,71.07-20.77l-17.46,58s14.66-9.39,23.85,1.07c4.75,5.36,8,16,7.2,35.7-2.67,58.28,32.25,170.5-54.21,202.14s-99.87,73.26-92.52,99.27c3.34,11.6-43.07,44.55-107.74,80.83a796,796,0,0,1-272.05-82.77C1984.9,2134.59,1991.38,2118,1990.7,2111.66Z" class="color6c9a5e svgShape"/><path fill="#6c9a5e" d="M2399.44,880.64c57.77-10.15,87.76-18,64.74-53.72s-68.28-121.09,16.59-134.14c8.21-1.23,20.32-4.21,35.6-7.91,293,65.58,530.67,293.1,600,592.42-22,45-49.55,88.87-80.24,109.7-76.72,51.94-81.93,75.88-103.52,128.81s-29.11,127.73-126.13,138.23-121,5.38-195.22,44.58-149.62,66.81-125.45,37,125-40.8,132-84.41,57.39-49.05,65.64-81.11,5.67-55.08,37.16-54.59,36.58,11.57,49.08,18,72.88-.09,62.55-30.09-66.79-99.55-10.27-93.21,106.5-2.89,103.06-33.69-65.19-129.15-65.19-129.15-38.29-11.45-54.34,13.66-46.7,67.39-73.78,70.28-34.92,3.82-46.46-30-21.12-13.26-43.89-41.94-26.62-63.36-29.16-86.41.6-101.27.6-101.27,21.14-21.75-53.37-21.48-84.47,17-103-8.27-98.64-4.87-18.5-25.27,174,12.28,170.66-18.46,11.73-36.31-40.42-46.28-52.59,21.29-89.15,9.72-97.84,2.83-106.5,31-38.47,43.11-52.19,25c-13.76-17.91-35.6-73.91-35.6-73.91S2341.69,890.89,2399.44,880.64Z" class="color6c9a5e svgShape"/><path fill="#f79838" d="M1735,1056.75c-8.87-4.25-24.17-28.4-39.3-63.61C1823,818.39,2021.47,695.61,2254.63,670.35c12.87-1.42,25.75-2.46,38.62-3.26a84,84,0,0,0,4.81,30.31c13.2,38.18,9.65,87.61-29.84,96.34s-83.48,58.13-80.63,84.56-.59,35.79-23.27,33.76-102.58-29-88-61.82,60.74-103.61,10-74.13-127.32,69-110.69,178.72-4.46,85.27,20.26,185.16,12.9,156.84-8.35,126.87,8.41-86.72-43.89-112.29-22.24,42.59-95.33,32.62-85.37.43-103.14-37.88S1773,1074.93,1735,1056.75Z" class="colorf79838 svgShape"/><path fill="#f9a239" d="M1661.34,1528.69c-19.6,64.56,18.71,167.43-29.19,181.59-29.1,8.52-42.93-29.58-60-52A786.8,786.8,0,0,1,1561.27,1297c18.83-2.3,37.29,1.85,50,19.79,37.28,52.62,53.54,77.7,98,72.77,44.42-4.73,127.16,4.13,76.53,58.66S1680.92,1464.07,1661.34,1528.69Z" class="colorf9a239 svgShape"/><path fill="url(#c)" d="M1659.76,1819.48c6,8.9,6.24,25.58-.77,42.35q-17.27-28.53-32.27-58.72C1644.38,1806.44,1653.47,1810.19,1659.76,1819.48Z"/><path fill="#b1bfdb" d="M2155.51,957.85c50.1-28.8,59.29-37.7,183.71-25.42,110.08,10.89,126,64.84,154.52,102.26-49.42-11-69.84-23.85-136.65-66.13-72.12-45.61-106.4-12.13-183.55,2.92S2105.41,986.68,2155.51,957.85Z" class="colorb1bfdb svgShape"/><path fill="#b1bfdb" d="M2022.59 1570.88c-56.52 12.16-68 17.85-182.69-31.88-101.34-43.88-99.79-100-115.33-144.32 43.61 25.54 59 44 109.5 104.53 54.57 65.39 97.53 44 175.58 53.21S2079.2 1558.79 2022.59 1570.88zM2797.88 1604.11c-50.06 28.78-59.24 37.7-183.76 25.48-110-11-125.9-64.83-154.47-102.31 49.43 11 69.84 23.91 136.68 66.13 72.11 45.54 106.36 12.15 183.55-2.93S2848 1575.34 2797.88 1604.11z" opacity=".9" class="colorb1bfdb svgShape"/><path fill="#b1bfdb" d="M2080.07,990.84c-33.66-13.85-25-34.78-50.5-20.34s-15,18.71,5.09,20S2080.07,990.84,2080.07,990.84Z" class="colorb1bfdb svgShape"/><path fill="#b1bfdb" d="M3107.86,1492.32c-33.68-13.82-25-34.74-50.51-20.31s-14.93,18.74,5.15,20S3107.86,1492.32,3107.86,1492.32Z" opacity=".9" class="colorb1bfdb svgShape"/><path fill="#b1bfdb" d="M2072.44 1018c-14.74-4.34-11.51-9.6-35.8-6.56-24.38 2.87-27.67 16.44-33 23.79s-5.33 10.34 28.45 6.52S2072.44 1018 2072.44 1018zM2586.47 2022.12c-14.71-4.28-11.53-9.48-35.9-6.59s-27.5 16.49-32.91 23.79-5.35 10.46 28.48 6.52S2586.47 2022.12 2586.47 2022.12z" class="colorb1bfdb svgShape"/><path fill="#b1bfdb" d="M2875 1273.5c-14.76-4.34-11.58-9.5-35.86-6.55s-27.61 16.46-32.91 23.69-5.37 10.5 28.43 6.59S2875 1273.5 2875 1273.5zM2804.33 1208.48c-14.77-4.3-11.51-9.57-35.88-6.55s-27.56 16.49-32.9 23.72-5.39 10.47 28.45 6.62S2804.33 1208.48 2804.33 1208.48z" opacity=".9" class="colorb1bfdb svgShape"/><path fill="#b1bfdb" d="M2268.22,1036.25c-14.77-4.27-11.54-9.5-35.87-6.52s-27.54,16.46-32.94,23.79-5.4,10.4,28.48,6.52S2268.22,1036.25,2268.22,1036.25Z" class="colorb1bfdb svgShape"/><path fill="#b1bfdb" d="M1644 1600.85c-14.7-4.27-11.5-9.51-35.83-6.61s-27.61 16.58-32.91 23.78-5.37 10.47 28.38 6.62C1637.55 1620.67 1644 1600.85 1644 1600.85zM1974.66 1000.41c-29.16 8.18-28.29 27.17-34.46 9.23s-23-23.63-6-32.25 47.43 9.32 46.34 13.08S1974.66 1000.41 1974.66 1000.41zM1609.48 1510.75c-29.16 8.1-28.29 27.14-34.53 9.17s-23-23.66-6-32.22 47.46 9.33 46.38 13S1609.48 1510.75 1609.48 1510.75zM2862.6 1029.12c-29.14 8.09-28.27 27-34.43 9.2s-23.05-23.7-6.08-32.31 47.46 9.38 46.33 13.07S2862.6 1029.12 2862.6 1029.12zM1696.46 1662.58c-29.19 8.12-28.26 27.17-34.46 9.26s-23-23.72-6-32.31 47.4 9.39 46.28 13.08S1696.46 1662.58 1696.46 1662.58zM2892.6 1672.89c-29.24 8.09-28.31 27.17-34.48 9.2s-23-23.66-6-32.22 47.43 9.39 46.33 13.05S2892.6 1672.89 2892.6 1672.89zM2211.07 1838.19c-29.15 8.1-28.26 27.14-34.49 9.2s-23-23.63-6-32.21 47.4 9.38 46.35 13S2211.07 1838.19 2211.07 1838.19zM1772.06 1362.28c-29.19 8.12-28.26 27.2-34.5 9.23s-22.92-23.66-6-32.22 47.46 9.33 46.31 13.08S1772.06 1362.28 1772.06 1362.28zM1798.43 1422.78c-29.13 8.09-28.32 27.11-34.44 9.23s-23-23.73-6.08-32.28 47.44 9.32 46.41 13.08S1798.43 1422.78 1798.43 1422.78z" opacity=".9" class="colorb1bfdb svgShape"/><path fill="#b1bfdb" d="M2452.51 2135.23c-15-19-44-50-58.33-36.77-14.36 13.08-41.2 20.19-21.38 47.88s33.31 23.6 58.48 18.86S2452.51 2135.23 2452.51 2135.23zM2074.89 1963.25c-8.13-10.37-24-27.36-31.83-20.12s-22.55 11.13-11.72 26.21 18.21 12.9 32 10.34S2074.89 1963.25 2074.89 1963.25zM1800.94 1812.5c-14.92-19-43.89-50-58.29-36.87s-41.19 20.31-21.34 48 33.29 23.63 58.41 18.8S1800.94 1812.5 1800.94 1812.5zM2536.12 1189.1c23.11 11.41 60.16 38 54.24 9.78s-27-13.66-25.28-38.92 15-27.08 2.43-35.7-23.34-14.65-36.08 8-.46 27.17-.82 35.76S2536.12 1189.1 2536.12 1189.1zM2705.21 2056.73c-24.58-12.55-63.84-41.69-58-11.32s28.62 15.08 26.45 42.13-16.57 28.77-3.17 38.24 24.79 16.07 38.79-8 1-29.08 1.46-38.34S2705.21 2056.73 2705.21 2056.73zM1919.19 1856.23c-8.47-26.19-15.48-74.35-32.91-48.69s9.49 30.68-11.32 48.35-32.2 8.71-29.5 24.8 6 28.77 33.13 21.54 21.4-19.94 28.29-26.06S1919.19 1856.23 1919.19 1856.23zM2139.66 2118.58c-22.61-24.18-101.78-38.71-134.69-74.52-42.63-46.25-49-151.86-47.68-83.46 2 103.76-6.52 106.44 68.62 131.3s140.84 42.1 140.84 42.1zM2739.66 982.16c6.5 22.09-46.22 36 28.09 101.21s56.24 63.23 115.5 68.34c-34.52-24.56-61.07-46.62-93.64-76.62C2728.82 1022.72 2739.66 982.16 2739.66 982.16zM2023.67 1213.78c63-104.57 72.44-94.6 72.44-94.6s-110.84 165.25-56.21 262.43l-8.35-1.27C2032 1364.22 1960.55 1318.37 2023.67 1213.78zM2351.71 1513.71s3.67 13.11-119.17 12.22c-122.88-1-127.08-89-136-101.18l87.08 64.79C2260 1517.29 2351.71 1513.71 2351.71 1513.71zM2739 799.44c23.83 65.63 120.69 128.07 137.26 172.56l27.33 35.27s-77.43-58.78-163.39-132.93c-63.95-55.18-73.17-68.66-50.94-129.31q21.27 10.4 41.9 21.85A166.8 166.8 0 002739 799.44zM1585.84 1205.93c70.76-25 126.69-52.1 147.13-90.16 31-57.88 29.5-106 8.72-126.66s53.29 19.39 39.4 80.1-17.93 87.27-65.92 112.35c-27.24 14.25-87.89 42.31-141.86 65.45C1577.09 1233.13 1581.31 1219.5 1585.84 1205.93zM1877.31 2008.64c6.4 7.78 8.57 13.29 8.57 13.29C1881.26 2018.48 1878.87 2013.9 1877.31 2008.64zM1877.31 2008.64c-14.73-18.25-52-49.48-137.64-56.56-6.23-.77-12.28-1.39-18.36-2-9.06-11.29-17.93-22.86-26.46-34.62 17.15 2.12 38 4.49 64.34 6.86C1885.72 1933.89 1869.28 1981 1877.31 2008.64zM2997.3 1656c44.36-27.67 62.57-41 105.84-27.73 3.82 1.14 8.32 2.65 13.34 4.31-1.95 8.46-4 17-6.25 25.38-21.56-5.1-40.68-6.12-56.77-1.26-52.78 16-80.61 45.36-80.58 69.67S2953 1683.75 2997.3 1656zM3089.69 1537.59a263.79 263.79 0 0144-13.17q-1.82 21.13-4.85 41.91c-37.71 2.46-84 12.37-123.67 49.72-64 60.13-98.15 26.53-50.13-22.71S2962.38 1588.17 3089.69 1537.59zM1555.9 1326c12.26 8.28 25.13 22.74 33.51 33.45 0 0 4 25.26-21.22 30-7.67 1.45-14.33 2.83-20.38 3.23C1549.57 1370.25 1552.27 1348 1555.9 1326z" class="colorb1bfdb svgShape"/><path fill="#b1bfdb" d="M1700.49 1110.32c-20.56 18.8-29.41 9.08-39.33-3.94s4.31-10.37 14.61-35.57c7.91-19.29-5.83-19.2-10.92-32.06q7.39-11.73 15.14-23.14c10.61 7.69 24.29 24.58 35.11 35.32 0 0 1.74 14.62-1.55 23.3S1721.18 1091.49 1700.49 1110.32zM1608.21 1733.94c50.12-28.74 59.25-37.63 183.83-25.33 110 10.9 125.85 64.75 154.42 102.23-49.45-11-69.83-23.88-136.65-66.13-72.12-45.57-106.4-12.12-183.58 2.92-8.6 1.63-16 3.14-22.55 4.43-1.74-4.18-3.42-8.37-5.06-12.64C1601.66 1737.72 1604.85 1735.94 1608.21 1733.94zM2543.65 2096.28c31.88 35.87 45.16 75.51 116.13 82.09a802.05 802.05 0 01-85.54 31.39c-52.64-22-81.82-71-136.8-115.3-79.28-64.07-107.61-28.46-158.77 15.08-50.69 43.17-68.56 36.06 6.82-70.9S2457.76 1999.74 2543.65 2096.28zM2690.23 1982.91c73-16.92 94.88 26.41 149.2 59.55a149.78 149.78 0 0020.78 10.64c-12.95 11.05-26.21 21.6-39.83 31.82-15.51-9.54-31.25-21.66-46.72-35-32.73-28.25-42-64.49-160.66-21.54C2630.67 2010.3 2656 1990.82 2690.23 1982.91z" class="colorb1bfdb svgShape"/><path fill="#2e726a" d="M1912.9,1872.32c284.9,287.53,737.11,312.82,1051.45,73.33a802,802,0,0,1-65.5,72.22c-313.57,305.53-817.32,301.22-1125.3-9.66s-303.7-810.68,9.77-1116.18a804.6,804.6,0,0,1,73.89-63.73C1610.38,1135.86,1628.12,1584.85,1912.9,1872.32Z" opacity=".3" class="color2e726a svgShape"/><path fill="#416883" d="M1957.94,2202.32l8-1304.62a130.38,130.38,0,0,0-2.44-26.06,412.62,412.62,0,0,0,38.66,16.63c-30.54-90.81-128.34-111-128.37-111-10.74-2.85-22.09-3.06-33.9-3.06h-39.22c-35.61,0-68.17,11.92-92.48,33.65-1.65,1.47-3.27,2.31-4.84,3.86a129.77,129.77,0,0,0-13,14.52c-1.32,1.76-2.59,3.38-3.82,5.19a128.31,128.31,0,0,0-6.79,11.17,122.37,122.37,0,0,0-14.6,57.74l-2.46,1334.28c-75.73,54.75-126.11,140.25-126.11,232,0,33.65,6.82,56.61,19.07,92.12h-.09s65.41,187.74,286.63,167.24c-17.69-11-34.59-21-50.73-30.87,7-.4,14-.79,21.11-1.72a296.86,296.86,0,0,0,48.52-10.42c124.51-37.67,218.52-153,219.5-277.19C2081.27,2315.13,2032.47,2240.34,1957.94,2202.32Z" class="color416883 svgShape"/><path fill="#ffffff" d="M2123.2,2437.56c-1,124.23-95,239.57-219.51,277.24a295.74,295.74,0,0,1-48.52,10.5c-150.92,19.71-276-81.36-276-226.24,0-91.75,50.38-178,126.11-232.73L1707.75,932c.07-36.88,16.65-68.5,43.09-92,24.31-21.73,56.87-33.23,92.49-33.23h39.21c71.38,0,126.49,53.73,126.06,124.4l-8,1303.74C2075.12,2272.94,2123.92,2346.91,2123.2,2437.56Z" class="colorfff svgShape"/><path fill="url(#d)" d="M2061.05,2444.58c-.76,107.4-92.09,205.74-205.63,220.09-115.32,14.58-210-62.71-209.89-173.11.08-81.27,51.6-156.74,125.1-195.65a234.52,234.52,0,0,1,86.39-26.29c28.48-2.84,55.5-.08,80,7.34C2010.68,2299.22,2061.62,2363.56,2061.05,2444.58Z"/><path fill="url(#e)" d="M1944,929.81l-7.25,1391L1770.52,2338l3.92-1406.77c.1-35.21,32.45-65.51,68.65-65.67l39.18-.16C1918.09,865.29,1944.18,895,1944,929.81Z"/><path fill="#416883" d="M2061,2444.57c-.74,107.4-92.09,205.74-205.61,220.1-115.31,14.59-210-62.71-209.89-173.1.06-81.27,51.58-154.36,125.1-193.28l1.1-440.92,1.22-488.31.87-349.21h169l-1.64,349.21-2.3,488.31-2,422C2010.68,2301.58,2061.61,2363.55,2061,2444.57Z" class="color416883 svgShape"/><polygon fill="#f7952f" points="1942.87 1019.85 1941.23 1369.06 1938.93 1857.37 1771.74 1857.37 1772.96 1369.06 1773.83 1019.85 1942.87 1019.85" class="colorf7952f svgShape"/><polygon fill="#e4384d" points="1942.87 1019.85 1941.23 1369.06 1772.96 1369.06 1773.83 1019.85 1942.87 1019.85" class="colore4384d svgShape"/><path fill="#162c40" d="M1987.1 934.72c0 6.55-5.48 12.63-12.17 12.7l-78.47.77c-6.76.07-12.23-6-12.2-12.55v-2c0-6.59 5.55-11.3 12.31-11.36l78.5-.63c6.69-.06 12.08 4.53 12 11.08zM1986.61 1018a12.09 12.09 0 01-12.15 11.79l-78.38 1.21c-6.76.11-12.22-4.91-12.19-11.49v-2.47a12.21 12.21 0 0112.3-11.92l78.41-1.08a11.55 11.55 0 0112 11.5zM1986.12 1101.21c0 6.51-5.47 10.83-12.14 11l-78.29 1.66c-6.74.14-12.19-4-12.17-10.54l0-2.93a12.65 12.65 0 0112.27-12.41l78.32-1.52a11.82 11.82 0 0112 11.86zM1985.63 1186.88c0 6.5-5.46 12.66-12.12 12.84l-78.2 2.12c-6.74.19-12.18-5.72-12.15-12.27v-2c0-6.55 5.52-11.4 12.26-11.57l78.22-2c6.67-.16 12 4.38 12 10.88zM1985.14 1269.88a12.55 12.55 0 01-12.11 12.24l-78.1 2.56a11.57 11.57 0 01-12.14-11.53v-2.39c0-6.53 5.51-11.76 12.25-12l78.13-2.42c6.66-.21 12 4.65 12 11.14zM1984.66 1352.78c0 6.47-5.45 11.48-12.1 11.74l-78 3c-6.73.26-12.16-4.38-12.13-10.89v-2.69a12.67 12.67 0 0112.24-12.31l78-2.86a11.33 11.33 0 0112 11.34zM1984.17 1435.58c0 6.46-5.44 11.05-12.08 11.35l-77.92 3.43c-6.72.3-12.14-3.85-12.11-10.35v-2.93a13 13 0 0112.22-12.61l77.94-3.3a11.45 11.45 0 0112 11.5zM1983.69 1518.29c0 6.44-5.44 10.72-12.07 11l-77.83 3.87c-6.71.33-12.13-3.44-12.1-9.92v-3.13a13.21 13.21 0 0112.21-12.84l77.85-3.74a11.51 11.51 0 0111.94 11.61zM1983.2 1603.47c0 6.43-5.43 13.07-12 13.43l-77.74 4.33c-6.7.38-12.11-5.7-12.08-12.17v-2c0-6.48 5.49-11.39 12.19-11.75l77.76-4.19c6.63-.36 12 3.94 11.93 10.36zM1982.72 1686c0 6.41-5.42 12.93-12 13.34l-77.65 4.76c-6.69.41-12.1-5.49-12.07-11.95v-2.06c0-6.46 5.49-11.48 12.18-11.88l77.68-4.63c6.61-.4 11.94 4 11.91 10.37zM1982.24 1768.41c0 6.39-5.42 12.9-12 13.34l-77.55 5.2c-6.69.45-12.09-5.38-12.06-11.82V1773c0-6.44 5.48-11.53 12.17-12l77.58-5.06c6.61-.43 11.93 3.93 11.9 10.33zM1981.76 1850.73c0 6.38-5.41 13-12 13.46l-77.47 5.62c-6.67.49-12.07-5.37-12-11.79v-2.1c0-6.43 5.47-11.53 12.15-12l77.49-5.49c6.6-.47 11.92 3.84 11.89 10.22zM1981.28 1933c0 6.36-5.41 13.15-12 13.66l-77.37 6.06c-6.67.52-12.06-5.46-12-11.87v-2c0-6.41 5.46-11.48 12.13-12l77.41-5.92c6.59-.5 11.9 3.71 11.87 10.08zM1980.8 2012.52c0 6.35-5.4 10.85-12 11.4l-77.29 6.45c-6.66.56-12-3.07-12-9.46v-3.22c0-6.39 5.46-12.67 12.12-13.21l77.31-6.33a11 11 0 0111.86 11.17zM1980.33 2094.56c0 6.33-5.4 11.22-12 11.81l-77.19 6.88c-6.65.59-12-3.36-12-9.74v-3.06a13.7 13.7 0 0112.11-13.1l77.22-6.75a10.83 10.83 0 0111.84 10.92zM1979.85 2176.5c0 6.32-5.39 11.7-12 12.32l-77.1 7.31c-6.65.63-12-3.76-12-10.12v-2.85c0-6.36 5.45-12.31 12.1-12.93l77.13-7.18a10.6 10.6 0 0111.83 10.63z" class="color162c40 svgShape"/><path d="M1879,2443.74c-.21,47.68-41,91.06-91.51,97-50.82,6-92.21-28.23-92.13-76.49s41.71-91.95,92.66-97.33C1838.63,2361.55,1879.22,2396,1879,2443.74Z" style="mix-blend-mode:soft-light" fill="#ffffff" opacity=".5" class="colorfff svgShape"/><path d="M1903.69,2714.8a295.74,295.74,0,0,1-48.52,10.5c-150.92,19.71-276-81.36-276-226.24,0-91.75,50.38-178,126.11-232.73L1707.75,932c.07-36.88,16.65-70.25,43.09-93.77,15.53,8.81,32.05,23.23,45.9,46.67,19.68,33.2,34,84.6,32.4,164.16-.47,25.23,0,59.37-.34,100.18-3.16,334.3-2.11,1108.5-2.11,1126.13v.31s-14.82,22.22-28.65,58.29c-3.81,10.09-8.16,21.16-11.65,33.21-14.16,48.15-23.55,110.32-8.16,174.2,10.18,42.1,30.9,84.75,68,124.26A354.27,354.27,0,0,0,1903.69,2714.8Z" style="mix-blend-mode:soft-light" fill="#ffffff" opacity=".3" class="colorfff svgShape"/><path fill="#e65a53" d="M1455.37 1084.1a27.51 27.51 0 004.91 13.7c2.86 3.9 6.64 7 10.46 10.4s7.62 7.43 9.83 12.61a26.23 26.23 0 012.12 8 30.9 30.9 0 010 8.32c-.67 5.75-3.77 10.85-5.92 14.93-2 3.91-3.53 9-5.36 13.57l-2.7 7a63.34 63.34 0 01-3.18 7.33c-2.59 4.75-4.89 8.39-5.49 12.49a25.07 25.07 0 001 12.58c1.34 4 4.2 7.35 7.5 11s7.12 7.76 9.61 12.87a31.93 31.93 0 013.62 16.17 38.29 38.29 0 01-4 15.67 112.78 112.78 0 01-7.93 13.24c-3 4.13-6 8-7.95 12.41a46.26 46.26 0 00-3.4 14.37 41.31 41.31 0 011.14-15.17c1.41-5.05 4.24-9.54 6.61-13.85a112 112 0 006.32-13.24 33.79 33.79 0 002.44-13.48 27 27 0 00-3.61-12.68c-2.09-3.88-5.29-7.14-8.87-10.79s-7.39-8-9.43-13.62a33.16 33.16 0 01-1.58-17c1-5.92 4.34-10.91 6.54-14.9 2-3.76 3.73-8.88 5.73-13.38s3.57-9.18 6.3-14.14c2.66-4.64 5.15-8.23 6-12.52a27 27 0 00-.76-13.2c-1.34-4.26-4.2-8-7.56-11.68s-7-7.46-9.5-12.11A26.42 26.42 0 011455.37 1084.1zM1232.87 1280.26a27.44 27.44 0 004.75 13.27c2.69 3.83 6.37 6.82 10.11 10s7.55 6.79 10.18 11.56 3.49 10.29 3.42 15.62-2.32 11-4.86 15.24l-3.57 6.41c-1.27 2.23-2.67 4.36-4 6.39s-2.64 3.94-3.81 5.91l-3.6 6.28c-2.42 4.08-4 7.67-4.19 11.8s.17 8.42 2 12c1.66 3.7 4.71 6.9 8.06 10.39s7.09 7.47 9.62 12.23a29.48 29.48 0 013.74 15.75 33.21 33.21 0 01-4.08 15.29 61.35 61.35 0 01-9.1 12.13c-3.41 3.56-6.73 6.9-9 11a33.38 33.38 0 00-4 13.61 31.14 31.14 0 011.87-14.64c1.84-4.76 5.09-8.79 7.93-12.64a58 58 0 007.27-11.91 28.43 28.43 0 002.42-12.82c-.19-8.85-5.24-15.81-12.44-22.27-3.48-3.39-7.37-7.31-9.85-12.47a31.68 31.68 0 01-3-16.31c.34-5.63 2.89-11.18 5.51-15.35l3.74-6.31c1.34-2.2 2.8-4.3 4.24-6.26s2.77-3.84 4-5.78l3.79-6.19c2.5-4 4.24-7.65 4.69-12a25.79 25.79 0 00-1.78-12.65c-1.7-4-4.75-7.51-8.06-11s-6.9-7.21-9.2-11.79A26.12 26.12 0 011232.87 1280.26zM1635.58 1152.05a26.24 26.24 0 01-2.71 14.49c-2.3 4.58-6 8.22-9.2 11.78s-6.37 7-8.06 11a25.73 25.73 0 00-1.78 12.66c.45 4.3 2.18 7.94 4.69 12l3.78 6.19c1.23 1.94 2.57 3.82 4 5.78s2.89 4.06 4.24 6.25l3.74 6.32c2.62 4.17 5.17 9.72 5.51 15.34a31.72 31.72 0 01-3 16.32c-2.49 5.16-6.37 9.08-9.85 12.47-7.2 6.46-12.25 13.42-12.45 22.27a28.6 28.6 0 002.43 12.82 58 58 0 007.27 11.91c2.84 3.85 6.09 7.88 7.93 12.64a31.27 31.27 0 011.87 14.64 33.47 33.47 0 00-4-13.62c-2.31-4.07-5.63-7.41-9-11a61.78 61.78 0 01-9.11-12.13 33.36 33.36 0 01-4.07-15.29 29.47 29.47 0 013.73-15.75c2.54-4.76 6.3-8.8 9.63-12.24s6.4-6.68 8.06-10.38c1.82-3.58 2.23-7.85 2-12s-1.76-7.72-4.18-11.8l-3.61-6.27c-1.16-2-2.46-3.88-3.8-5.91s-2.75-4.16-4-6.39l-3.56-6.41c-2.54-4.25-4.77-9.78-4.86-15.24s.7-10.85 3.42-15.62 6.49-8.36 10.18-11.56 7.42-6.16 10.1-10A27.35 27.35 0 001635.58 1152.05zM1348.36 1116.49a26.24 26.24 0 01-2.71 14.49c-2.3 4.58-6 8.21-9.2 11.78s-6.37 7-8.06 11a25.68 25.68 0 00-1.78 12.65c.45 4.3 2.18 8 4.69 12l3.78 6.18c1.23 1.94 2.57 3.82 4 5.79s2.89 4.05 4.24 6.25l3.74 6.31c2.62 4.18 5.17 9.72 5.51 15.35a31.74 31.74 0 01-3 16.32c-2.49 5.15-6.37 9.07-9.85 12.46-7.2 6.46-12.25 13.42-12.45 22.28a28.39 28.39 0 002.43 12.81 58 58 0 007.27 11.91c2.84 3.86 6.09 7.88 7.93 12.65a31.23 31.23 0 011.87 14.63 33.38 33.38 0 00-4-13.61c-2.31-4.08-5.63-7.42-9-11a62.15 62.15 0 01-9.11-12.14 33.45 33.45 0 01-4.08-15.28 29.63 29.63 0 013.74-15.76c2.54-4.76 6.3-8.8 9.63-12.23s6.4-6.69 8.06-10.39c1.82-3.58 2.23-7.85 2-12s-1.76-7.72-4.18-11.8l-3.61-6.28c-1.16-2-2.46-3.88-3.8-5.91s-2.75-4.16-4-6.39l-3.56-6.4c-2.54-4.26-4.77-9.79-4.86-15.25s.7-10.84 3.42-15.62 6.49-8.36 10.18-11.55 7.42-6.17 10.1-10A27.35 27.35 0 001348.36 1116.49z" class="colore65a53 svgShape"/><path fill="#393f6b" d="M2384.11,1012.78v172.69c0,25,21,45.16,47.15,45l96.94-.39,12.8,0,45.24,55c3.43,2.65,11.65,2.76,14.41-.55l6.71-8.79,35.1-46.06,3.24,0,88.64-.34a37.7,37.7,0,0,0,24.53-9.2c9.05-7.54,14.26-19.07,14.26-32V1031.5c0-22.65-17.21-42.06-39.35-43.36L2715,987l-284.21-16.69a46,46,0,0,0-19.6,3.06A41.69,41.69,0,0,0,2384.11,1012.78Z" class="color393f6b svgShape"/><path fill="#66729a" d="M2391,1008.33v172.21c0,24.91,21.74,45,47.68,45l91.68-.18,18,0,45,52.43a8,8,0,0,0,12.26,0l1.64-1.94,38.36-46.08,3.82-4.59,91.41-.2a37.66,37.66,0,0,0,18.2-4.75c12.66-6.85,20.92-20.53,20.92-36.26V1027.62c0-22.61-17.37-42-39.42-43.31L2719,983l-280-16.92a47.57,47.57,0,0,0-28.68,7.31C2398.91,980.9,2391,993.58,2391,1008.33Z" class="color66729a svgShape"/><path fill="#ffffff" d="M2609.31 1133.12l-15.7-.37a8.67 8.67 0 01-8.23-8.19l-5.75-109.74a7.08 7.08 0 012.27-5.66 7.57 7.57 0 016-1.86l27.05 1.87a8.2 8.2 0 018 8.58l-5.6 107.75A8 8 0 012609.31 1133.12zM2585.07 1159.93q5.89-5.58 16.54-5.4 11 .17 16.65 5.73t5.67 16.19q0 10.27-5.8 15.9t-16.52 5.66q-10.52 0-16.47-5.85t-6-16.07Q2579.17 1165.51 2585.07 1159.93z" class="colorfff svgShape"/><path fill="#393f6b" d="M2528,1230.13l12.9,0,45.27,55c3.43,2.65,11.67,2.76,14.44-.55l6.72-8.79,38.35-46.08,88.64-.34a38.34,38.34,0,0,0,24.78-9.2c12.66-6.85,20.92-20.53,20.92-36.26V1027.62c0-22.61-17.37-42-39.42-43.31L2719,983c-1.36,1.28-2.59,2.61-3.86,4-14.45,15.78-24.66,39-22.79,73.34,5.5,102-62.83,118.51-124.56,137.64-19.13,5.94-30.56,16.12-37.24,27.34C2529.65,1226.91,2528.81,1228.51,2528,1230.13Z" opacity=".4" class="color393f6b svgShape"/><path fill="#233b52" d="M2869,1898.16c-48.8-51.8-13.93-289.07,45.67-335.79,82.58,42.7,49.17,248.5,49.17,248.5Z" class="color233b52 svgShape"/><path fill="#192c44" d="M2900.9,1633.8s-8.63,139.9,18.23,153.37c41.88,21,15.25-6.78,15.25-6.78Z" class="color192c44 svgShape"/><path fill="#265173" d="M2993.14,2754.33c28.82-12.33,44.08-9.37,53.1-62.6l66.16-4.44s10.93,58.16,7.95,107.45h-49.21l-1.28-9.85s-18.94,9.16-49.67,9.85h-47.42S2964.32,2766.65,2993.14,2754.33Z" class="color265173 svgShape"/><path fill="#038daf" d="M2993.48,2788.54c-6.71,0-14-.17-22-.57a2.47,2.47,0,0,1-2.36-2.59,2.4,2.4,0,0,1,2.61-2.34c51.16,2.53,72.77-3.62,93.64-9.57,15.48-4.4,30.09-8.56,55.36-8.56a2.47,2.47,0,1,1,0,4.94c-24.57,0-38.86,4.07-54,8.37C3049.59,2783.11,3030.49,2788.54,2993.48,2788.54Z" class="color038daf svgShape"/><path fill="#265173" d="M3148.72,2750.92c21.12-8.14,14.53-23,18.51-59.19l57-4.44s7.24,58.16,5.27,107.45h-97.8S3127.49,2759.09,3148.72,2750.92Z" class="color265173 svgShape"/><path fill="#038daf" d="M3131.4,2788a2.47,2.47,0,1,1,0-4.94c75.26,0,82.72-8.64,86.72-13.27,2.54-2.94,4.72-4.86,11.66-4.86a2.47,2.47,0,1,1,0,4.94c-5.17,0-6.08,1.05-7.87,3.13C3216.75,2779,3209,2788,3131.4,2788Z" class="color038daf svgShape"/><path fill="#f79838" d="M2952.68,2002.45s-60.35,277-48.46,366,85.74,280,124.37,359.9h92.27s16.1-223.18-33.71-362.93c0,0,61.36-223.41,76.38-333Z" class="colorf79838 svgShape"/><path fill="#b77227" d="M3031.61,2081.76s-52,231.48-26.86,321.66c17,61,117.08,307.52,117.08,307.52l7.87-80.62Z" class="colorb77227 svgShape"/><path fill="#f79838" d="M3039,2002.45s-28.77,277-16.87,366,85.74,280,124.37,359.9h92.27s16.1-223.18-33.71-362.93c0,0,49.5-225.09,64.52-334.67Z" class="colorf79838 svgShape"/><path fill="#233b52" d="M3186.78,1549.79c-116.29-69.62-254.66-22.56-272.09,12.58-50.33,101.48,56.4,259.5,15.12,447-3.85,17.5,12.23,23.85,5,42,0,0,233.67,62.39,333.34,33.76,0,0,24-13.74,28.67-38.7C3317,1938.11,3336.57,1639.48,3186.78,1549.79Z" class="color233b52 svgShape"/><path fill="#192c44" d="M3123.46,1612.73s-17.81,52.86-12.95,127.15L2953,1720.79l-14.2,92.13s169.08,176.66,279.92,126,37.12-281.54,6.89-310.71Z" class="color192c44 svgShape"/><path fill="#a62438" d="M3028.59 1616.5c-8.26 32.68-4.5 87.71 0 144.13l58.56 4.94c-11.06-72-13.9-137.54-3.32-192.72zM2943.7 1606c-8.26 32.68-4.5 87.71 0 144.13l58.56 4.94c-11.06-72-13.9-137.54-3.32-192.72z" class="colora62438 svgShape"/><path fill="#265173" d="M3023.84,1480s19.53-65.53,81.11-56.06c41.25,6.35,147.42,92.09-21.12,143.15Z" class="color265173 svgShape"/><path fill="#21365b" d="M3023.84,1486.79s29.89-60.53,65.38-52.5,35.5,70.42-69.74,95.74Z" class="color21365b svgShape"/><path fill="#416883" d="M2969.25,1740.06s-32.72-42.94-38.6-32.9c-3.8,6.5,7.76,22.57,7.76,22.57s-37.24-15.76-46.47-12.72c-20.48,6.76-18.55,43,.33,56.69s78.27,18.2,78.27,18.2Z" class="color416883 svgShape"/><path fill="#233b52" d="M3173.17,1562.37c-81-45.63-42.38,204-42.38,204l-164.86-34.18,1.8,83.18c46.92,86.2,214.16,139.35,273.43,86.48C3277.52,1869.44,3264.82,1614,3173.17,1562.37Z" class="color233b52 svgShape"/><path fill="#192c44" d="M2943.29,1784c16.62-2.23,33.26-4.29,49.92-6.08s33.31-3.49,50-5.17l50-4.54,50.06-4,8.56-.68-1.05,8.61-5.2,42.5c-1.69,14.17-3.54,28.32-5.47,42.46l-.42,3.1-2.44,1.8a285.51,285.51,0,0,1-52.63,30.59l-13.94,6c-4.68,1.92-9.44,3.61-14.16,5.42-9.55,3.28-19.18,6.31-29,8.85a303.63,303.63,0,0,1-59.62,9.74c-20.07,1.07-40.54,0-59.7-5.74,19.77,2.84,39.59,1.86,59-.94a358.15,358.15,0,0,0,57.19-13.55c9.33-2.95,18.51-6.38,27.56-10,4.5-1.9,9-3.68,13.5-5.67l13.25-6.19c17.43-8.69,34.27-18.52,49.62-30.08l-2.86,4.89c1.71-14.17,3.49-28.33,5.43-42.47l5.7-42.43,7.51,7.93-50.15,2.39-50.2,1.82c-16.74.44-33.47,1-50.23,1.18S2960.06,1784.05,2943.29,1784Z" class="color192c44 svgShape"/><path fill="#416883" d="M3140.91,1775.86s40.36-36,44.21-25c2.49,7.1-11.95,20.69-11.95,20.69s39.59-8.44,48.06-3.71c18.81,10.51,10,45.71-11.2,55.59s-80.33,3.09-80.33,3.09Z" class="color416883 svgShape"/><path fill="#233b52" d="M2923.94,1785.18l219.77-14-10.9,84.93c-78.15,58.6-222.09,85.24-263.79,42C2897.74,1857.87,2884,1799.19,2923.94,1785.18Z" class="color233b52 svgShape"/><path fill="#265173" d="M3197.49,1509.19a37.89,37.89,0,0,1,8.29,4,19.14,19.14,0,0,1,5.91,7.15,50.18,50.18,0,0,0,10.17,14.75c7.83,9.32,20.52,11.6,30.9,19a41.71,41.71,0,0,1,7.2,6.37,26.7,26.7,0,0,1,5.07,8.37c2.34,6,3.32,12.09,4.75,17.92s3.12,11.53,6.13,16.27,7.63,8.78,12,13.12,8.69,9.12,11.64,15,3.46,12.77,3.31,18.85-.69,12.19-.32,18a36.13,36.13,0,0,0,4.94,16.43c2.9,5.19,6.48,10.2,9.43,15.68s5.22,11.65,5,18.06c-.71,12.57-6.42,23.75-5.74,36.07-1.82-12.25,3.5-24.29,3.3-36.08,0-5.86-2.3-11.41-5.28-16.54s-6.74-10-10-15.29a42.78,42.78,0,0,1-4.14-8.61,41.72,41.72,0,0,1-1.77-9.42c-.47-6.29,0-12.45.07-18.42s-.36-11.72-3-16.67-6.64-9.39-10.91-13.63-8.88-8.53-12.46-14.06-5.14-11.79-6.53-17.79-2.31-12-4.35-17.39-5.86-9.61-10.52-13.22-10.12-6.24-15.58-9.11a66.65,66.65,0,0,1-8-4.86,48.93,48.93,0,0,1-6.82-6.49,51.8,51.8,0,0,1-9.57-15.8,18.22,18.22,0,0,0-5.19-7.15A37.39,37.39,0,0,0,3197.49,1509.19Z" class="color265173 svgShape"/><path fill="#265173" d="M3245.19 1519a30.61 30.61 0 016.63 3.24 15.4 15.4 0 014.74 5.73 39.67 39.67 0 008.14 11.8c6.26 7.46 16.41 9.29 24.72 15.24 4.1 2.87 8 6.82 9.82 11.79 1.88 4.8 2.66 9.68 3.81 14.34s2.5 9.23 4.91 13 6.1 7 9.59 10.49 6.95 7.31 9.31 12 2.77 10.23 2.65 15.1-.55 9.75-.25 14.44a28.77 28.77 0 003.95 13.15c2.32 4.15 5.19 8.16 7.55 12.55s4.18 9.33 4 14.46c-.57 10.06-5.13 19-4.59 28.87-1.46-9.8 2.8-19.44 2.64-28.88 0-4.69-1.83-9.13-4.22-13.24s-5.39-8-8-12.24a34.56 34.56 0 01-3.33-6.89 34.07 34.07 0 01-1.41-7.54c-.38-5 0-10 .06-14.74s-.29-9.38-2.43-13.35-5.32-7.51-8.73-10.91-7.11-6.82-10-11.25-4.12-9.44-5.23-14.24-1.85-9.6-3.48-13.92-4.7-7.69-8.42-10.58a91.17 91.17 0 00-12.47-7.29 54.18 54.18 0 01-6.43-3.89 39 39 0 01-5.45-5.19 41.49 41.49 0 01-7.66-12.65 14.62 14.62 0 00-4.15-5.72A30 30 0 003245.19 1519zM2900.21 1528.35a15.23 15.23 0 01-5.74 5 16.83 16.83 0 00-6.07 3.87 21.34 21.34 0 00-4.11 5.71 43.65 43.65 0 00-1.87 7 35.53 35.53 0 01-2.28 7.47 18.24 18.24 0 01-5 6.5c-4 3.38-8.4 5.85-10.59 9.61s-2.09 8.79-3.2 13.88a19.05 19.05 0 01-3.3 7.5 41.16 41.16 0 01-5.43 5.58c-3.76 3.31-7 6.78-7.21 11.72-.68 4.75.29 10-1.41 14.86.8-5-.57-9.8-.54-15a15.29 15.29 0 012.08-7.68 35.63 35.63 0 014.92-6.07 55.31 55.31 0 004.75-5.44 15.27 15.27 0 002.44-6.23c1-4.59.6-9.92 3.47-15.15 3.12-5 8-7.43 11.59-10.44 3.87-2.73 5.32-7.07 6.76-11.86a45.71 45.71 0 012.55-7.3 22.31 22.31 0 015.07-6.08 18.34 18.34 0 017-3.42A16.91 16.91 0 002900.21 1528.35z" class="color265173 svgShape"/><path fill="#e0effa" d="M3156.35 998.93a10.59 10.59 0 11-10.59-10.5A10.55 10.55 0 013156.35 998.93zM3319 1028.87a19.59 19.59 0 11-19.59-19.43A19.51 19.51 0 013319 1028.87zM3052.14 1113.35a19.34 19.34 0 11-19.34-19.18A19.26 19.26 0 013052.14 1113.35zM2864.67 1113.35a12.84 12.84 0 11-12.84-12.74A12.79 12.79 0 012864.67 1113.35zM3434.5 1716.39a10.6 10.6 0 11-10.59-10.5A10.55 10.55 0 013434.5 1716.39zM3477.69 1898.65a10.6 10.6 0 11-10.59-10.5A10.55 10.55 0 013477.69 1898.65z" class="colore0effa svgShape"/><ellipse cx="3467.1" cy="2157.83" fill="#e0effa" rx="10.59" ry="10.51" class="colore0effa svgShape"/><path fill="#e0effa" d="M3477.69,2325.49A10.6,10.6,0,1,1,3467.1,2315,10.54,10.54,0,0,1,3477.69,2325.49Z" class="colore0effa svgShape"/><ellipse cx="2545.29" cy="1780.79" fill="#e0effa" rx="10.59" ry="10.51" class="colore0effa svgShape"/><ellipse cx="2443.7" cy="1608.36" fill="#e0effa" rx="10.59" ry="10.51" class="colore0effa svgShape"/><ellipse cx="2442.17" cy="1938.53" fill="#e0effa" rx="10.59" ry="10.51" class="colore0effa svgShape"/><path fill="#e0effa" d="M3383.6 2055.17a15.47 15.47 0 11-15.47-15.34A15.4 15.4 0 013383.6 2055.17zM2504.28 2372.48a16.5 16.5 0 11-16.49-16.36A16.42 16.42 0 012504.28 2372.48z" class="colore0effa svgShape"/><ellipse cx="2967.46" cy="2217.38" fill="#e0effa" rx="14.51" ry="14.39" class="colore0effa svgShape"/><ellipse cx="3345.09" cy="2242.04" fill="#e0effa" rx="11.69" ry="11.59" class="colore0effa svgShape"/><path fill="#e0effa" d="M2527.56 2106.41a12.8 12.8 0 11-12.79-12.7A12.74 12.74 0 012527.56 2106.41zM3397.41 2404.1a13.81 13.81 0 11-13.81-13.7A13.76 13.76 0 013397.41 2404.1zM3467.1 1129.5a14.27 14.27 0 11-14.27-14.15A14.21 14.21 0 013467.1 1129.5zM3515.86 1398.06a14.49 14.49 0 11-14.48-14.37A14.42 14.42 0 013515.86 1398.06z" class="colore0effa svgShape"/><ellipse cx="3423.91" cy="1284.98" fill="#e0effa" rx="14.67" ry="14.55" class="colore0effa svgShape"/><path fill="#e0effa" d="M3434.23,1508.87a10.62,10.62,0,1,1-10.61-10.53A10.57,10.57,0,0,1,3434.23,1508.87Z" class="colore0effa svgShape"/><ellipse cx="2564.42" cy="1487.81" fill="#e0effa" rx="19.13" ry="18.98" class="colore0effa svgShape"/><ellipse cx="3152.22" cy="1222.4" fill="#e0effa" rx="18.23" ry="18.08" class="colore0effa svgShape"/><path fill="#e0effa" d="M2770.17 1323.38a10.89 10.89 0 11-10.89-10.8A10.85 10.85 0 012770.17 1323.38zM3520.89 1618.86a10.6 10.6 0 11-10.59-10.5A10.55 10.55 0 013520.89 1618.86z" class="colore0effa svgShape"/><path fill="#d8d6eb" d="M3319,2696.88c28.52-3.21,52.72-3.27,72.94-1-6.2-19-32.15-33.31-63.34-33.5a100.63,100.63,0,0,0-14.05.9c-6.4-18.79-32.22-33-63.21-33.15-17.48-.12-5.4,3.33-10.81.44.25,2.85-2.86,16.18-2.7,19C3280.24,2662.52,3295.8,2663.68,3319,2696.88Z" class="colord8d6eb svgShape"/><path fill="#ffffff" d="M3135.17,2704.16c-12.47-16.91-67.58-28.39-70.11-7.37,18.55,7.32,26.32,20.13,26.32,20.13-14.56-11-35.06-16.37-61.85-13.37s-44.92,23.07-44.92,23.07a49,49,0,0,1,28.84-31.87c-.11-.37.11.36,0,0-1.76-6-4.66-9.62-6.38-15.67-.07-.09-1.31-2.37-1.38-2.48-1.61-6.14-4.56-11.83-6-17.57-.09-.11-.2-.2-.29-.32-3.72-15.3-13.37-22.55-11.13-23.89,1.86-1.1-3.68.13,0,0-.36-2-3.32-5.26-3.6-7.15-34.86,8.34-46.28,19.72-62.68,48.94-45.87-7.34-101,31.91-106.56,89.73,0,0,8.48,94.35,288.94,86.82,275.06-7.37,370.21-99.14,370.21-99.14,1-25.57-24.08-51.59-82.59-58.15-20.22-2.26-44.42-2.2-72.94,1-23.21-33.2-41.89-40.55-81.17-47.35,1.06,19.06-30.85,36.73-32.26,51.54,41-1.46,57.11,25,57.11,25-14.56-11-35.06-16.37-61.85-13.37s-44.91,23.07-44.91,23.07a28.93,28.93,0,0,1,1.77-6.8,109.32,109.32,0,0,0-32.19-.77c-26.8,3-44.92,23.07-44.92,23.07s2.95-31.55,46.4-34.57c8.56-.6,26.67,3.06,33.24,4.41-.29-1-11.18-5-11.49-6.06-1.76-6-11.85-4.87-13.57-10.92Z" class="colorfff svgShape"/><path fill="#e7e6f3" d="M3032.49 2692l-1.48.09a69.72 69.72 0 00-19.29 3.89c-.39.13-.76.28-1.13.42-.12 0-.24.1-.36.15-23.69 9.5-25.62 30.11-25.62 30.11s18.12-20.07 44.92-23.07 47.29 2.41 61.85 13.37c0 0-7.77-12.81-26.32-20.13C3056.56 2693.43 3045.8 2691.24 3032.49 2692zM3202.33 2701.23c-14.26 1-24.17 5.05-31 10.07a39.77 39.77 0 00-6.88 6.35 38.71 38.71 0 00-2.68 3.53l-.29.44c-.41-.15-.81-.32-1.22-.48a69.06 69.06 0 00-7.51-2.35c-1-.25-2-.48-3.09-.7a82.68 82.68 0 00-22.64-1.36c-43.45 3-46.4 34.57-46.4 34.57s18.12-20.07 44.92-23.07a109.32 109.32 0 0132.19.77 28.93 28.93 0 00-1.77 6.8s18.11-20.07 44.91-23.07 47.29 2.41 61.85 13.37c0 0-16.07-26.49-57.11-25C3204.51 2701.1 3203.43 2701.16 3202.33 2701.23z" class="colore7e6f3 svgShape"/><path fill="#22192b" d="M3052.2,1374s47.27.66,18.73,75.46l-18.07,6.91-26.67-8.21Z" class="color22192b svgShape"/><path fill="#faba97" d="M2970.87,1474l.63,80.46s9.15,4.2,36.14,6c22.7,1.56,36-6.61,36-6.61l-.71-90.09Z" class="colorfaba97 svgShape"/><polygon fill="#f5927e" points="2971.5 1554.83 3022.33 1510.14 2971.32 1531.73 2971.5 1554.83" class="colorf5927e svgShape"/><path fill="#faba97" d="M2919.16,1394.52l.84,105.38a14.23,14.23,0,0,0,6.18,11.62l29,19.9a14.36,14.36,0,0,0,13.83,1.4l53.51-22.63a14.34,14.34,0,0,0,8.76-13.28l1.54-121.83Z" class="colorfaba97 svgShape"/><path fill="#f08372" d="M2919.58,1447.61l.33,41.5a20.75,20.75,0,1,0-.33-41.5Z" opacity=".32" class="colorf08372 svgShape"/><path fill="#de7360" d="M2962.36,1469.62l-16.12.13a1.64,1.64,0,0,1-1.2-.52,1.59,1.59,0,0,1-.42-1.23l4.33-45.08a1.61,1.61,0,0,1,3.2.31l-4.16,43.32,14.34-.12A1.61,1.61,0,0,1,2964,1468,1.6,1.6,0,0,1,2962.36,1469.62Z" class="colorde7360 svgShape"/><ellipse cx="3050.2" cy="1463.4" fill="#faba97" rx="26.48" ry="26.26" class="colorfaba97 svgShape"/><path fill="#0e0d0b" d="M2971 1414.63c.16 6 20.34 9.83 21.32 4.31C2993.92 1409.76 2970.72 1405.06 2971 1414.63zM2917.61 1419.06c2.83 4.81 20.8-1 19.12-5.92C2933.94 1405 2913.12 1411.46 2917.61 1419.06z" class="color0e0d0b svgShape"/><ellipse cx="3001.66" cy="1466.34" fill="#f08372" opacity=".32" rx="20.93" ry="20.76" class="colorf08372 svgShape"/><path fill="#281c1c" d="M2972.84 1438c.14 4.19 2.23 7.52 4.69 7.45s4.35-3.53 4.22-7.72-2.23-7.52-4.69-7.44S2972.71 1433.85 2972.84 1438zM2928.91 1438.35c.13 4.19 2.23 7.52 4.68 7.44s4.35-3.53 4.22-7.72-2.23-7.51-4.69-7.44S2928.78 1434.16 2928.91 1438.35z" class="color281c1c svgShape"/><path fill="#de7360" d="M3044.63,1479.06a1.62,1.62,0,0,1-1.27-.61,22.24,22.24,0,0,1-4.35-11c-1.88-13.23,10.61-18.59,17.47-19.58a1.6,1.6,0,1,1,.47,3.16c-.71.1-16.66,2.6-14.76,16a19.09,19.09,0,0,0,3.69,9.44,1.59,1.59,0,0,1-.26,2.24A1.66,1.66,0,0,1,3044.63,1479.06Z" class="colorde7360 svgShape"/><path fill="#de7360" d="M3040.61,1468.84a1.66,1.66,0,0,1-.88-.25,1.58,1.58,0,0,1-.48-2.2c5.4-8.32,13.35-6.37,16.79-4.18a1.58,1.58,0,0,1,.49,2.2,1.62,1.62,0,0,1-2.22.49c-.75-.47-7.45-4.35-12.36,3.21A1.61,1.61,0,0,1,3040.61,1468.84Z" class="colorde7360 svgShape"/><path fill="#530e2b" d="M3051.25,1376.54s2.44-25,5.42-27.44,8.3,3-1.39,24.37c0,0,16.81-6.69,14.86-2.87s-19.79,9.18-19.79,9.18Z" class="color530e2b svgShape"/><path fill="#22192b" d="M2910,1393.82a22.91,22.91,0,0,0-5.79,16c0,.31,0,.64.06,1a21.35,21.35,0,0,0,9.25,15.89c.62,6.42,3,13.25,5.28,19.28-.52-23.15,2.59-37.47,8.67-51.91,19.63,3.79,39.62,0,56.89-9.36,6.21,4.77,13.83,6.5,21.52,6.68s13.13,1.05,20.72-.15c1.07,23.31,4.16,40.22,5.9,61.32,8.19-3.41,13.24-13.93,20.75-14.89,8.57-17.7,13.94-25.88,13.28-42.15-.17-4.52-.65-9.1-2.5-13.24s-5.25-7.76-12.07-8.63a29.29,29.29,0,0,0-1.11-12.82,39.9,39.9,0,0,0-12.67-18.48c-9.2-7.62-21-11.56-32.66-14.08a170.08,170.08,0,0,0-51.07-3.12c-8.15.73-16.57,2.19-23.29,6.85s-11.16,13.35-8.5,21.09a24.46,24.46,0,0,0-19.39,16.4A23.55,23.55,0,0,0,2910,1393.82Z" class="color22192b svgShape"/><path fill="#851941" d="M2910,1393.82a22.91,22.91,0,0,0-5.79,16,40.4,40.4,0,0,1,14.49-17.38c-5-5.29-8-10.84-7.13-16.41.79-4.85,4.48-8.92,8.89-11.17s9.47-2.95,14.43-3.11c-3.6-8.1.3-16.68,6.53-20.92s14.13-5.11,21.67-5.62c16.84-1.13,34-.82,50.27,3.62,14.17,3.88,27.71,11.16,37.49,22a39.9,39.9,0,0,0-12.67-18.48c-9.2-7.62-21-11.56-32.66-14.08a170.08,170.08,0,0,0-51.07-3.12c-8.15.73-16.57,2.19-23.29,6.85s-11.16,13.35-8.5,21.09a24.46,24.46,0,0,0-19.39,16.4A23.55,23.55,0,0,0,2910,1393.82Z" class="color851941 svgShape"/><path fill="#416883" d="M3072.16,1411.77l-171.89-8.27a201.4,201.4,0,0,1,4.62-34,174.75,174.75,0,0,1,8.91-28.41c16.48-40.42,46.24-67,78.93-65.43s59.6,30.88,72.06,72.69a175.67,175.67,0,0,1,6.09,29.14A200.21,200.21,0,0,1,3072.16,1411.77Z" class="color416883 svgShape"/><path fill="#21365b" d="M3070.88,1377.51c-21.86,2.14-51.16,2.69-83.18,1.15s-61.26-4.91-82.81-9.14a174.75,174.75,0,0,1,8.91-28.41c20.89-1.57,47.22-1.85,75.76-.48s54.59,4.17,75.23,7.74A175.67,175.67,0,0,1,3070.88,1377.51Z" class="color21365b svgShape"/><path fill="#416883" d="M3065,1419.63,2906.66,1412c-7.88-.38-13.85-5.82-13-11.82l7-47.5c.79-5.4,6.89-9.32,14-9l149.09,7.17c7.1.35,12.79,4.83,13.05,10.28l2.3,47.94C3079.37,1415.17,3072.9,1420,3065,1419.63Z" class="color416883 svgShape"/><path fill="#e4384d" d="M3049.27,1454.15s-1.44,4.88-3.35,11.62c-4.19,14.84-16.34,38.45-62,55.67-16.42,6.19-32.91,12.29-39.34,1.82-28.75,24.89,4.77,36.42,4.77,36.42s-46,19.76,4.15,53.53c37,24.94,105.44,26.35,128.69-14.83s35.7-114.84,2.49-121.06C3084.66,1477.32,3085.8,1453.74,3049.27,1454.15Z" class="colore4384d svgShape"/><path fill="#a62438" d="M2949.33 1559.68a208.15 208.15 0 0026.27 6.69 148.46 148.46 0 0026.6 2.61 97.42 97.42 0 0026.15-3.79c8.52-2.55 16.3-6.94 23.86-12.1-6.22 6.57-13.75 12.41-22.55 15.73a80.07 80.07 0 01-27.43 5.1 108.53 108.53 0 01-27.5-3.8A103.05 103.05 0 012949.33 1559.68zM3084.66 1477.32a50.28 50.28 0 01-2.63 24.81 62.07 62.07 0 01-13.36 21.63 74.78 74.78 0 01-20.8 14.62c-3.76 1.93-7.86 3.1-11.77 4.59-4.1 1-8.17 2-12.26 2.7 3.79-1.82 7.65-3.25 11.39-5 3.6-2 7.37-3.59 10.81-5.73s7-4.12 10-6.76c3.33-2.27 6.1-5.16 9-7.87A71.52 71.52 0 003084.66 1477.32z" class="colora62438 svgShape"/><path fill="#d66b5e" d="M2943.25,1495.21l-2.29-2.45c.15-.14,15.62-14.11,31-4.29l-1.82,2.81C2957,1482.86,2943.8,1494.7,2943.25,1495.21Z" class="colord66b5e svgShape"/><ellipse cx="1274.43" cy="2745.49" fill="#b77227" opacity=".5" rx="208.14" ry="34.88" class="colorb77227 svgShape"/><path fill="#faba97" d="M1709.77 1516.88c-3 46-106.89 114.65-213.34 134-156.94 38.53-158.43-12.66-178.76-39.59-6.27-20 99.7-47.85 144.12-61.18L1605 1508.87zM1323.43 2282.16c7.33 19.06 11.77 29.68 11.77 29.68-41.76 233.22-69.83 368.31-39 417.75 6.6 10.58 22.75 7.41 24.45-4.71 11.25-80.66 144.75-296.87 141.59-411.76-.45-16.26-1.66-34.16-3.39-53z" class="colorfaba97 svgShape"/><path fill="#752632" d="M1464.65,2302.15l-156.91,1.77s-24.07-61.76-49.68-153.21c-19.42-69.42-39.8-156-51.18-245.53l191.07-.08S1451.13,2155.26,1464.65,2302.15Z" class="color752632 svgShape"/><path fill="#591620" d="M1307.74,2303.92s-24.07-61.76-49.68-153.21l30.1-132.84S1330.7,2166.19,1307.74,2303.92Z" class="color591620 svgShape"/><path fill="#faba97" d="M1158.71,2282.16c7.33,19.06,11.77,29.68,11.77,29.68-38.49,239.38-69.83,368.31-39,417.75,6.61,10.58,22.76,7.41,24.45-4.71,11.26-80.66,144.76-296.87,141.6-411.76-.45-16.26-1.66-34.16-3.39-53Z" class="colorfaba97 svgShape"/><path fill="#752632" d="M1291.44,1916l-184.33-10.9c-.1,121.49,50.59,355,31.41,455.43l155,17.5C1314.54,2292.81,1291.44,1916,1291.44,1916Z" class="color752632 svgShape"/><path fill="#e4384d" d="M1217.07,1565.67c67.59-41.52,244.72-15.57,244.72-15.57,34.64,83.23-99.6,260.85-56.3,375,0,0-208.92,38.66-303.66,11.45C1101.83,1936.52,1095.83,1640.15,1217.07,1565.67Z" class="colore4384d svgShape"/><path fill="#faba97" d="M1378.88 1561.06c4.08 27.37-16.56 63-30.07 58.17-30.61-10.84-50.75-72.8-50.75-72.8zM1165 1752c4.88-95.69 23.7-173.46 64.81-173.35 47.82.14 38.58 175.92 38.58 175.92 4.27 166.91-10.15 370.27-10.15 370.27C1164.41 2153.58 1160.72 1905.46 1165 1752z" class="colorfaba97 svgShape"/><path fill="#752632" d="M1458.84,2260.09s14.75,63.16,0,117.94l-150.37-21.2s2.65-28-.73-52.91C1307.74,2303.92,1420.41,2242.59,1458.84,2260.09Z" class="color752632 svgShape"/><path fill="#22192b" d="M1288.65,1438.34s-17.4-76.53,29.54-87.75C1344,1344.43,1338.27,1447.33,1288.65,1438.34Z" class="color22192b svgShape"/><path fill="#faba97" d="M1386.61,1474.29l-7.73,86.77s-10.24,3.74-39.52,3.41c-24.63-.27-38.3-10.23-38.3-10.23l8.65-97.15Z" class="colorfaba97 svgShape"/><polygon fill="#f5927e" points="1378.85 1561.48 1327.91 1508.89 1381.07 1536.57 1378.85 1561.48" class="colorf5927e svgShape"/><path fill="#faba97" d="M1451.31,1373l-12.08,133.61a15.48,15.48,0,0,1-7.69,12l-33,19a15.58,15.58,0,0,1-15,.32l-55.76-29a15.51,15.51,0,0,1-8.29-15.09l9.92-111.34Z" class="colorfaba97 svgShape"/><path fill="#f08372" d="M1444.25,1450.26l-4,44.75a22.46,22.46,0,1,1,4-44.75Z" opacity=".32" class="colorf08372 svgShape"/><path fill="#de7360" d="M1413.71,1471.86h-.16l-17.38-1.52a1.73,1.73,0,0,1-1.58-1.87,1.75,1.75,0,0,1,1.89-1.57l15.46,1.36-.7-47.1a1.73,1.73,0,0,1,1.72-1.75,1.71,1.71,0,0,1,1.76,1.7l.73,49a1.74,1.74,0,0,1-1.74,1.75Z" class="colorde7360 svgShape"/><path fill="#faba97" d="M1330.47,1458.55a28.66,28.66,0,1,1-26-30.82A28.59,28.59,0,0,1,1330.47,1458.55Z" class="colorfaba97 svgShape"/><path fill="#0e0d0b" d="M1391.68 1410.25c-.7 6.51-22.8 8.86-23.38 2.81C1367.35 1403 1392.79 1400 1391.68 1410.25zM1448.88 1419.63c-3.48 4.94-22.36-2.9-20.12-8C1432.48 1403.08 1454.38 1411.8 1448.88 1419.63z" class="color0e0d0b svgShape"/><ellipse cx="1354.05" cy="1463.41" fill="#f08372" opacity=".32" rx="22.65" ry="22.47" class="colorf08372 svgShape"/><path fill="#281c1c" d="M1387.62 1435.34c-.51 4.51-3.07 7.93-5.71 7.63s-4.38-4.18-3.88-8.69 3.07-7.92 5.71-7.63S1388.12 1430.84 1387.62 1435.34zM1435 1439.46c-.51 4.51-3.07 7.93-5.71 7.63s-4.38-4.18-3.87-8.69 3.06-7.92 5.71-7.62S1435.51 1435 1435 1439.46z" class="color281c1c svgShape"/><path fill="#de7360" d="M1306.72,1473.43a1.75,1.75,0,0,1-1.19-.46,1.71,1.71,0,0,1-.08-2.44,20.84,20.84,0,0,0,4.81-9.87c3.23-14.32-13.8-18.35-14.53-18.51a1.73,1.73,0,1,1,.77-3.37c7.33,1.66,20.33,8.52,17.15,22.63a24.16,24.16,0,0,1-5.66,11.48A1.75,1.75,0,0,1,1306.72,1473.43Z" class="colorde7360 svgShape"/><path fill="#de7360" d="M1312,1462.76a1.73,1.73,0,0,1-1.53-.91c-4.64-8.59-12.21-5-13.06-4.53a1.75,1.75,0,0,1-2.35-.72,1.72,1.72,0,0,1,.72-2.33c3.91-2.07,12.65-3.49,17.75,6a1.71,1.71,0,0,1-.71,2.34A1.84,1.84,0,0,1,1312,1462.76Z" class="colorde7360 svgShape"/><path fill="#22192b" d="M1373.26,1390.23c-14,8-33.12,6.26-46.51-1.1-.14-5.17-3.52-27.42-3.11-32.58.6-7.69-.61-11.14,2.3-18.36,4.44-11,29.58-22.93,40.82-23.19,10.71-.24,24.72-1.35,34.71,2.3,6.85,2.5,8.57,11.82,15,15.28Z" class="color22192b svgShape"/><path fill="#22192b" d="M1341.5,1394.24s-.86,48.06-16.52,55.14c0,0,2.84-14.08-11.91-19.19s.78-14.35,2.21-19.19,9-27.55,9-27.55l30.63-6.27Z" class="color22192b svgShape"/><path fill="#22192b" d="M1447.48,1401s-21.65,14.26-28-19.77c0,0-5,22.1-53.42,25.81,0,0-22.42.35-27.34-4.39l-11.79,46s0,2.65-1.92,0l-14.16-19.17s-17.43-19.81-11.28-36.12,21-58.36,95.64-76.92c0,0,5.29-1.73,23.26,6.64,18.82,8.76,18,10.21,18,10.21s36.85,17.13,32.55,57.85c-1.64,15.54-23.13,43.36-23.13,43.36Z" class="color22192b svgShape"/><path fill="#22192b" d="M1325 1352.69s-30.66 46-16.17 74.65l-11.62-4.5s-4.81-24.79-3.92-29.18 14.73-36 14.73-36zM1461.58 1355.21s-54.34-46.36-99.63-27.46l-4.7-11S1410.54 1298 1461.58 1355.21z" class="color22192b svgShape"/><path fill="#faba97" d="M1594.61,1508.87l-147.93-105.06c67.47-42.5,266.25,51.68,263.09,113.07C1663.43,1526.24,1631.45,1524.94,1594.61,1508.87Z" class="colorfaba97 svgShape"/><path fill="#de7360" d="M1413.84,1496.91a1.76,1.76,0,0,1-1.31-.59c-7-7.89-25.48-1-25.67-.9a1.73,1.73,0,1,1-1.25-3.22c.85-.32,20.89-7.85,29.53,1.84a1.71,1.71,0,0,1-.15,2.43A1.74,1.74,0,0,1,1413.84,1496.91Z" class="colorde7360 svgShape"/><path fill="#e5f4f6" d="M1347.77 1419.55s-8.28 9.76-2.59 10.78S1347.77 1419.55 1347.77 1419.55zM1359.67 1410.83s-4.4 11.55-1.29 10.52S1362.26 1417.76 1359.67 1410.83zM1321.12 1474s-7 11.3-1.55 11.3S1321.12 1474 1321.12 1474z" class="colore5f4f6 svgShape"/><path fill="#faba97" d="M1412.76,1368.74c-7.53.43-13.42,2.4-13.18,7.56.25,5.44,12.27,8.9,23.88,11-8.65-.31-16.62.76-16.61,5.73,0,12,34.32,1.72,53.37,21.46,14.41,14.92,25.69,21.13,34.7,24.15,6.56,2.19,11.92,2.7,16.43,3.64,7.79-13.86,12.32-30.16,15-44.49-4.09-4.25-9.1-9-15.19-14.23s-13.24-11.06-21.65-17.51c-7.77-6-19.8-18.29-27-21.53-10.83-4.84-59.25-18.21-62.77-6.63-2,6.67,14.72,11.63,27.13,14.36-12.77-1.88-30.69-3-31.64,5.56C1394.51,1363.36,1402.85,1366.72,1412.76,1368.74Z" class="colorfaba97 svgShape"/><path fill="#f2c9ac" d="M1445 1390a151 151 0 00-21.5-2.69C1434.4 1389.22 1445 1390 1445 1390zM1426.81 1352.22c6.69 1.46 12.12 2.28 12.68 2.36C1439 1354.45 1433.62 1353.22 1426.81 1352.22zM1443.24 1371.74s-17.62-3.75-30.48-3C1426.5 1371.52 1443.24 1371.74 1443.24 1371.74z" class="colorf2c9ac svgShape"/><path fill="#f1a97f" d="M1454.59 1357.14c-5-1.37-10-2.79-15.14-3.71s-10.24-1.68-15.4-2.12c-12.67-1.11-20.78.17-20.27.15 12-.59 30.36 2.44 35.46 3.36s10.23 1.59 15.32 2.51C1454.69 1357.36 1454.71 1357.17 1454.59 1357.14zM1451.56 1375.47c-6.41-3.3-26.54-7.26-38.64-6.85-.5 0-.37.23.14.31 6.52 1 32 5.39 38.48 6.69C1451.64 1375.64 1451.65 1375.52 1451.56 1375.47zM1451.82 1391.67c-8.61-3.3-19-4.68-30.08-4.43-.5 0-.28.31.23.38 10 1.28 17.9 2.22 29.75 4.38C1451.91 1392 1452 1391.74 1451.82 1391.67z" class="colorf1a97f svgShape"/><path fill="#faba97" d="M1506.17,1379.35c-.22-.58-26.8-36.08-27.58-44.94-.71-8-7.79-12.18-12.54-3.15s-3.63,13.23-3.63,13.23C1468.9,1347.39,1492.91,1371.28,1506.17,1379.35Z" class="colorfaba97 svgShape"/><path fill="#f5927e" d="M1461.79,1550.1s33.12,50.48,26.22,101.13l-35.19,9.58s23.46-56.12,6.9-110.19Z" class="colorf5927e svgShape"/><path fill="#faba97" d="M1200.34,2098.94a41.84,41.84,0,0,0,46.48,38l1.43-.2s11.91,37.95,23.43,36c4.76-.8,4.47-8.51,2.75-16.62,3.88,10.6,9.16,21.38,14.41,20.74,5-.62,5.89-6.51,5.08-13.67,3.54,9,8.11,16.33,13.35,14.83,8-2.3,4-19,.15-30.75,4.62,11.25,12.11,26.25,18.17,23.24,10.5-5.2-10.19-48.58-16.58-58-4.27-6.29-17.37-15.91-25.44-20.8-6.33-3.84-14.23-8.36-21.13-12.23Z" class="colorfaba97 svgShape"/><path fill="#f8ae8c" d="M1298.92 2123.85c14.47 27.59 13 45.52 13 45-1.4-11.43-7.29-28.17-9-32.83s-2.46-7.51-4.17-12.15C1298.7 2123.79 1298.87 2123.75 1298.92 2123.85zM1281.15 2127.84c7.71 12.62 12.21 29.26 12.86 35.24 0 .48-.16.39-.32-.07-2-6-10.39-29.28-12.68-35.13C1281 2127.79 1281.1 2127.75 1281.15 2127.84zM1265.62 2130.24c6 11.8 7.54 17.69 9.14 27.58.08.47-.25.32-.4-.15-2.87-9.23-5-16.48-9-27.29C1265.25 2130.22 1265.53 2130.06 1265.62 2130.24z" class="colorf8ae8c svgShape"/><path fill="#804f20" d="M1142.33 2331.19l155.76 16.42s-1.47 28.51-4.61 30.42l-155-17.5zM1309.48 2325l155.24 19.5s-2.59 32.85-4.66 35.42l-154.2-21z" class="color804f20 svgShape"/><path fill="#a23d2f" d="M1257,2741.08s5.18,12.75-1.71,12.89-51.81-4.17-63.49-7.8S1088.7,2730,1088.7,2730l6.43-16.47,90.2,9.73Z" class="colora23d2f svgShape"/><path fill="#e4384d" d="M1172,2672.22s-44.32-4.76-55.53-19.87l-21.38,61.2,96.24,20s47.8,18.34,65.63,7.56C1257,2741.08,1178.56,2706.66,1172,2672.22Z" class="colore4384d svgShape"/><polygon fill="#dfdfe4" points="1184.48 2711.23 1182.34 2708.6 1193 2700.03 1195.15 2702.66 1184.48 2711.23" class="colordfdfe4 svgShape"/><polygon fill="#dfdfe4" points="1176.19 2701.78 1174.12 2699.1 1182.94 2692.39 1185.02 2695.07 1176.19 2701.78" class="colordfdfe4 svgShape"/><polygon fill="#dfdfe4" points="1166.76 2691.78 1165.09 2688.84 1176.52 2682.46 1178.19 2685.41 1166.76 2691.78" class="colordfdfe4 svgShape"/><polygon fill="#dfdfe4" points="1162.22 2678.83 1161.49 2675.53 1173.48 2672.91 1174.21 2676.21 1162.22 2678.83" class="colordfdfe4 svgShape"/><path fill="#a23d2f" d="M1433.28,2728.08s7.17,11.76.39,13-51.81,4.15-63.92,2.44-104.38.52-104.38.52l3.67-17.28,90.61-4.8Z" class="colora23d2f svgShape"/><path fill="#e4384d" d="M1338.24,2673.69s-44.51,2.38-58-10.75L1269,2726.76l98.23,4.34s50.15,10.47,66-3C1433.28,2728.08,1350.26,2706.63,1338.24,2673.69Z" class="colore4384d svgShape"/><polygon fill="#dfdfe4" points="1356.86 2710.2 1354.31 2707.95 1363.44 2697.79 1365.99 2700.04 1356.86 2710.2" class="colordfdfe4 svgShape"/><polygon fill="#dfdfe4" points="1347.14 2702.2 1344.65 2699.88 1352.28 2691.85 1354.76 2694.17 1347.14 2702.2" class="colordfdfe4 svgShape"/><polygon fill="#dfdfe4" points="1336.21 2693.84 1334.08 2691.2 1344.33 2683.08 1346.45 2685.73 1336.21 2693.84" class="colordfdfe4 svgShape"/><polygon fill="#dfdfe4" points="1329.63 2681.78 1328.37 2678.64 1339.77 2674.14 1341.03 2677.28 1329.63 2681.78" class="colordfdfe4 svgShape"/><polygon fill="#f5927e" points="1287.92 2377.72 1162 2363.35 1155.79 2399.63 1287.92 2377.72" class="colorf5927e svgShape"/><polygon fill="#f5927e" points="1325.87 2360.27 1319.65 2395.18 1454.89 2379.44 1325.87 2360.27" class="colorf5927e svgShape"/></g></svg>